<?xml version="1.0" standalone="no"?>
<!DOCTYPE svg PUBLIC "-//W3C//DTD SVG 1.1//EN" "http://www.w3.org/Graphics/SVG/1.1/DTD/svg11.dtd" >
<svg>
<metadata>
Created by FontForge 20090914 at Mon Sep  9 05:07:48 2013
 By www-data
Converted by ALLTYPE
</metadata>
<defs>
<font id="LucidaBright" horiz-adv-x="500" >
  <font-face 
    font-family="Lucida Bright"
    font-weight="5"
    font-stretch="normal"
    units-per-em="1000"
    panose-1="0 0 0 0 0 0 0 0 0 0"
    ascent="800"
    descent="-200"
    x-height="530"
    cap-height="722.001"
    bbox="-36 -210 1013 927.001"
    underline-thickness="50"
    underline-position="-55"
    unicode-range="U+0020-U+F002"
  />
<missing-glyph 
d="M62 0v722h375v-722h-375v0zM125 62h250v598h-250v-598v0z" />
    <glyph glyph-name=".notdef" 
d="M62 0v722h375v-722h-375v0zM125 62h250v598h-250v-598v0z" />
    <glyph glyph-name="space" unicode=" " horiz-adv-x="304" 
 />
    <glyph glyph-name="space" unicode="&#xa0;" horiz-adv-x="304" 
 />
    <glyph glyph-name="exclam" unicode="!" horiz-adv-x="265" 
d="M84 0v96h96v-96h-96v0zM117 192l-33 386v144h96v-144l-33 -386h-30v0z" />
    <glyph glyph-name="quotedbl" unicode="&#x22;" horiz-adv-x="385" 
d="M93 530l-33 240h96l-33 -240h-30v0zM261 530l-33 240h97l-34 -240h-30v0z" />
    <glyph glyph-name="numbersign" unicode="#" horiz-adv-x="608" 
d="M93 0l56 222h-151l7 48h156l45 181h-164l9 49h167l56 222h50l-56 -222h141l56 222h50l-56 -222h152l-9 -49h-155l-45 -181h164l-9 -48h-167l-56 -222h-50l56 222h-141l-56 -222h-50v0zM211 270h141l45 181h-141l-45 -181v0z" />
    <glyph glyph-name="dollar" unicode="$" horiz-adv-x="608" 
d="M295 -60v59.998c-34 0 -67.833 3.16699 -101.5 9.5s-67.167 16.5 -100.5 30.5v122h54v-9c0 -8 0.166992 -14.833 0.5 -20.5s0.833008 -10.167 1.5 -13.5c0 -12.667 3 -24.5 9 -35.5s14.667 -20.5 26 -28.5c12 -8.66699 25.833 -15 41.5 -19s32.834 -6 51.501 -6l18 2v296
c-32.667 18.667 -60.667 36.834 -84 54.501s-41.666 34.834 -54.999 51.501c-12.667 16.667 -22.334 34.5 -29.001 53.5s-10 39.833 -10 62.5c0 48 14.833 86.5 44.5 115.5s74.167 48.5 133.5 58.5v59h31v-58c28 -2 56.5 -6.16699 85.5 -12.5s58.5 -15.166 88.5 -26.499
v-111h-55v9c-0.666992 7.33301 -1.16699 13.666 -1.5 18.999s-0.5 9.33301 -0.5 12c0 11.333 -2.5 21.666 -7.5 30.999s-12.5 17.333 -22.5 24c-9.33301 7.33301 -20.666 12.5 -33.999 15.5s-28.333 4.5 -45 4.5l-8 1v-283c16 -11.333 30.167 -20.833 42.5 -28.5l30.5 -19.5
c21.333 -12.667 39.166 -25.167 53.499 -37.5s25.166 -24.166 32.499 -35.499c8 -11.333 13.833 -24.333 17.5 -39s5.5 -30.667 5.5 -48c0 -26 -4 -50 -12 -72s-20.333 -42 -37 -60c-16 -18 -35.167 -32.667 -57.5 -44s-47.5 -19.333 -75.5 -24v-60h-31v0zM326 37.998
c32.667 8.66699 57.167 24.3301 73.5 46.9971s24.5 52.334 24.5 89.001c0 28.667 -8.16699 54.334 -24.5 77.001s-40.833 42.334 -73.5 59.001v-272v0zM295 428.994v259c-14 -2.66699 -26.667 -7.16699 -38 -13.5s-21.333 -15.166 -30 -26.499
c-8.66699 -10.667 -15.167 -22.834 -19.5 -36.501s-6.5 -28.5 -6.5 -44.5c0 -26 7.83301 -50.5 23.5 -73.5s39.167 -44.833 70.5 -65.5v1z" />
    <glyph glyph-name="percent" unicode="%" horiz-adv-x="674" 
d="M16 -18l581 758h61l-581 -758h-61v0zM510 0c-22.667 0 -43.167 4 -61.5 12s-34.833 20.333 -49.5 37c-14 17.333 -24.667 36.666 -32 57.999s-11 45.333 -11 72s3.66699 50.834 11 72.501s18 40.834 32 57.501c14.667 17.333 31.167 30.166 49.5 38.499
s38.833 12.5 61.5 12.5s43.167 -4.16699 61.5 -12.5s34.833 -21.166 49.5 -38.499c14.667 -16.667 25.5 -35.834 32.5 -57.501s10.5 -45.834 10.5 -72.501s-3.5 -50.667 -10.5 -72s-17.833 -40.666 -32.5 -57.999c-14.667 -16.667 -31.167 -29 -49.5 -37
s-38.833 -12 -61.5 -12v0zM510 29c14 -0.666992 26.167 2.16699 36.5 8.5s18.833 15.833 25.5 28.5s11.667 28.5 15 47.5s5 41.167 5 66.5s-1.66699 47.166 -5 65.499s-8.33301 33.833 -15 46.5c-6.66699 13.333 -15.167 23 -25.5 29s-22.5 9 -36.5 9
c-13.333 0 -25 -3 -35 -9s-18.667 -15.667 -26 -29c-6.66699 -12.667 -11.667 -28.167 -15 -46.5s-5 -40.166 -5 -65.499s1.66699 -47.5 5 -66.5s8.33301 -34.833 15 -47.5c7.33301 -12.667 16 -22.167 26 -28.5s21.667 -9.5 35 -9.5v1zM164 361.001
c-22.667 -0.666992 -43.167 3.16699 -61.5 11.5s-34.833 20.833 -49.5 37.5c-14 17.333 -24.667 36.666 -32 57.999s-11 45.333 -11 72c0 27.333 3.66699 51.833 11 73.5s18 40.834 32 57.501c14.667 16.667 31.167 29.167 49.5 37.5s38.833 12.5 61.5 12.5
s43.167 -4.16699 61.5 -12.5s34.5 -20.833 48.5 -37.5c14.667 -16.667 25.5 -35.834 32.5 -57.501s10.5 -46.167 10.5 -73.5c0 -26.667 -3.5 -50.667 -10.5 -72s-17.5 -40.666 -31.5 -57.999c-14.667 -16.667 -31.167 -29.167 -49.5 -37.5s-38.833 -12.5 -61.5 -12.5v1z
M164 391.002c13.333 -0.666992 25.166 2.16699 35.499 8.5s18.833 15.833 25.5 28.5s11.667 28.5 15 47.5s5 40.833 5 65.5c0 25.333 -1.66699 47.333 -5 66s-8.33301 34.334 -15 47.001s-15.167 22 -25.5 28s-22.166 9 -35.499 9s-25 -3 -35 -9s-18.667 -15.333 -26 -28
c-6.66699 -12.667 -11.667 -28.334 -15 -47.001s-5 -40.667 -5 -66c0 -24.667 1.66699 -46.5 5 -65.5s8.33301 -34.833 15 -47.5c7.33301 -12.667 16 -22.167 26 -28.5s21.667 -9.5 35 -9.5v1z" />
    <glyph glyph-name="ampersand" unicode="&#x26;" horiz-adv-x="689" 
d="M507 0l-46.002 49.998c-35.333 -23.333 -69.666 -40.5 -102.999 -51.5s-65.666 -16.5 -96.999 -16.5c-34 0 -65.5 5.33301 -94.5 16s-55.167 27.334 -78.5 50.001s-40.833 47.667 -52.5 75s-17.5 57.333 -17.5 90c0 53.333 15.167 98.333 45.5 135
s75.833 64.667 136.5 84c-18.667 29.333 -32.667 56.5 -42 81.5s-14 47.833 -14 68.5c0 22.667 4 43.334 12 62.001s20 35.667 36 51c16.667 15.333 35 26.666 55 33.999s42.333 11 67 11c25.333 0 48.5 -3.33301 69.5 -10s39.167 -16.667 54.5 -30
s26.833 -28.833 34.5 -46.5s11.5 -37.167 11.5 -58.5c0 -40.667 -13.667 -76 -41 -106s-68 -54.667 -122 -74l11 -18l8 -13c20 -33.333 44 -70.5 72 -111.5l96 -134.5c14 21.333 24.667 44.833 32 70.5s11 53.5 11 83.5c0 13.333 -0.333008 24 -1 32s-2 13.333 -4 16
c-1.33301 3.33301 -4.16602 5.83301 -8.49902 7.5s-10.166 2.5 -17.499 2.5c-1.33301 0 -5.5 0.166992 -12.5 0.5s-16.833 0.833008 -29.5 1.5l-10 2v29h229v-29l-10 -1c-18.667 -1.33301 -33.334 -2.66602 -44.001 -3.99902s-16.667 -2.66602 -18 -3.99902
c-2 -0.666992 -3.33301 -4.33398 -4 -11.001s-1 -16.334 -1 -29.001c0 -26 -7.5 -54.833 -22.5 -86.5s-37.5 -66.5 -67.5 -104.5l11.5 -12l13.5 -15c5.33301 -4.66699 9.66602 -8.83398 12.999 -12.501s5.33301 -6.16699 6 -7.5c8.66699 -9.33301 16.667 -16.666 24 -21.999
s14.333 -8.66602 21 -9.99902c1.33301 -0.666992 7.5 -1.5 18.5 -2.5s26.833 -2.16699 47.5 -3.5l6 1v-30h-184v0zM439.998 74.998c-44 56.667 -84.833 112.829 -122.5 168.496s-72.167 109.834 -103.5 162.501c-33.333 -20 -58.333 -43.833 -75 -71.5
s-25 -59.167 -25 -94.5c0 -29.333 4.66699 -56.166 14 -80.499s23.333 -46.166 42 -65.499s39.5 -34 62.5 -44s48.5 -15 76.5 -15c22.667 0 45 3.33301 67 10s43.333 16.334 64 29.001v1zM305.998 439.993c29.333 19.333 51.5 43.332 66.5 71.999s22.5 61.334 22.5 98.001
c0 33.333 -6.33301 58.166 -19 74.499s-31.667 24.5 -57 24.5c-26.667 0 -46.5 -8.16699 -59.5 -24.5s-19.5 -41.166 -19.5 -74.499c0 -18 4 -38.5 12 -61.5s20 -48.5 36 -76.5c2 -4 4.5 -8.66699 7.5 -14l10.5 -19v1z" />
    <glyph glyph-name="quotesingle" unicode="'" horiz-adv-x="240" 
d="M105 505l-45 265h120l-45 -265h-30v0z" />
    <glyph glyph-name="parenleft" unicode="(" horiz-adv-x="316" 
d="M274 -114l0.000976562 -29.998c-34.667 21.333 -65.834 47.666 -93.501 78.999s-51.5 67 -71.5 107c-20.667 41.333 -36 84.666 -46 129.999s-15 92.333 -15 141c0 47.333 5.16699 93.333 15.5 138s25.833 88 46.5 130c21.333 42 45.5 78.667 72.5 110
s57.5 57.333 91.5 78v-29c-24.667 -28.667 -45.5 -57.5 -62.5 -86.5s-30.167 -58.833 -39.5 -89.5s-16.333 -67 -21 -109s-7 -90 -7 -144c0 -53.333 2.33301 -101 7 -143s11.667 -78 21 -108c9.33301 -30.667 22.5 -60.167 39.5 -88.5s37.833 -56.833 62.5 -85.5v0z" />
    <glyph glyph-name="parenright" unicode=")" horiz-adv-x="316" 
d="M41 740v29.999c35.333 -21.333 66.666 -47.833 93.999 -79.5s51.333 -68.167 72 -109.5c20 -41.333 35.167 -84.5 45.5 -129.5s15.5 -91.833 15.5 -140.5c0 -47.333 -5.16699 -93.5 -15.5 -138.5s-26.166 -88.5 -47.499 -130.5c-20.667 -40.667 -44.667 -76.667 -72 -108
s-58 -57.333 -92 -78v30c25.333 28.667 46.5 57.167 63.5 85.5s30.167 57.833 39.5 88.5s16.166 66.834 20.499 108.501s6.5 89.167 6.5 142.5c0 54 -2.16699 102 -6.5 144s-11.166 78.333 -20.499 109c-9.33301 30 -22.5 59.667 -39.5 89s-38.167 58 -63.5 86v1z" />
    <glyph glyph-name="asterisk" unicode="*" horiz-adv-x="469" 
d="M226 490l-74 -131.999l-58 42l103 112c3.33301 -6.66699 7.5 -11.834 12.5 -15.501s10.5 -6.16699 16.5 -7.5v1zM272 512.001l103 -112.001l-58 -42l-74 132c6.66699 0.666992 12.5 2.83398 17.5 6.50098s8.83301 8.5 11.5 14.5v1zM192 527l-149 30l22 68l138 -63
c-4 -5.33301 -7 -10.333 -9 -15s-3 -9 -3 -13v-3c0 -1.33301 0.333008 -3 1 -5v1zM266 562l138 62.999l22 -68l-149 -30v1c0 0.666992 0.333008 1.33398 1 2.00098v2v2c0 4.66699 -1 9.16699 -3 13.5s-5 8.83301 -9 13.5v1zM217 571.999l-18.999 149.999h73l-19 -150
c-3.33301 0.666992 -6.5 1.33398 -9.5 2.00098s-5.83301 1 -8.5 1s-5.33398 -0.333008 -8.00098 -1s-5.66699 -1.66699 -9 -3v1z" />
    <glyph glyph-name="plus" unicode="+" horiz-adv-x="608" 
d="M276 23v239h-237v54h237v238h55v-238h238v-54h-238v-239h-55v0z" />
    <glyph glyph-name="comma" unicode="," horiz-adv-x="265" 
d="M120 0h-48v120h120v-105c0 -20 -0.5 -37.167 -1.5 -51.5s-2.5 -25.166 -4.5 -32.499c-2.66699 -8 -6.66699 -16 -12 -24s-12 -16.333 -20 -25c-11.333 -11.333 -23.833 -20.333 -37.5 -27s-28.5 -10.334 -44.5 -11.001v30c16 1.33301 28 10 36 26s12 39 12 69v31v0z" />
    <glyph glyph-name="hyphen" unicode="-" horiz-adv-x="325" 
d="M48 262v72h229v-72h-229v0z" />
    <glyph glyph-name="period" unicode="." horiz-adv-x="265" 
d="M72 0v120h120v-120h-120v0z" />
    <glyph glyph-name="slash" unicode="/" horiz-adv-x="512" 
d="M1 -144l450 914h59l-448 -914h-61v0z" />
    <glyph glyph-name="zero" unicode="0" horiz-adv-x="608" 
d="M304 -18c-38.667 0 -73.168 8.33203 -103.501 24.999s-57.166 42 -80.499 76c-22.667 34.667 -39.834 74.834 -51.501 120.501s-17.5 96.834 -17.5 153.501c0 58.667 5.66699 111.167 17 157.5s28.333 86.833 51 121.5c23.333 34.667 50.333 60.5 81 77.5
s65.334 25.5 104.001 25.5s73.334 -8.5 104.001 -25.5s57.334 -42.833 80.001 -77.5c23.333 -34.667 40.666 -75.167 51.999 -121.5s17 -98.5 17 -156.5c0 -57.333 -5.66699 -108.833 -17 -154.5s-28.666 -85.834 -51.999 -120.501c-22.667 -34 -49.334 -59.333 -80.001 -76
s-65.334 -25 -104.001 -25v0zM303.999 11.999c24 -0.666992 45.333 6.16699 64 20.5s35 35.833 49 64.5c12.667 26 22.167 60.833 28.5 104.5s9.5 96.5 9.5 158.5c0 61.333 -3.16699 114 -9.5 158s-15.833 79 -28.5 105c-14 28.667 -30.667 50.167 -50 64.5
s-41 21.5 -65 21.5c-23.333 0 -44.333 -7.16699 -63 -21.5s-35 -35.833 -49 -64.5c-12.667 -26 -22 -60.833 -28 -104.5s-9 -96.5 -9 -158.5s3 -114.833 9 -158.5s15.333 -78.5 28 -104.5c13.333 -28.667 29.5 -50.167 48.5 -64.5s40.833 -21.5 65.5 -21.5v1z" />
    <glyph glyph-name="one" unicode="1" horiz-adv-x="608" 
d="M352 729v-602.998c0 -28.667 1.5 -50.334 4.5 -65.001s7.83301 -22.667 14.5 -24c10 -2.66699 20.333 -4.66699 31 -6s21.334 -2 32.001 -2l57 1v-30h-374v30h57c11.333 -0.666992 22.166 -0.333984 32.499 0.999023s20.5 3.33301 30.5 6c6 1.33301 10.667 9.33301 14 24
s5 36 5 64v461c0 14.667 -0.5 27.5 -1.5 38.5s-2.5 19.5 -4.5 25.5c-1.33301 6.66699 -3.5 11.5 -6.5 14.5s-6.83301 4.5 -11.5 4.5s-12.5 -0.833008 -23.5 -2.5s-25.167 -4.16699 -42.5 -7.5l-49 -8v31l235 47v0z" />
    <glyph glyph-name="two" unicode="2" horiz-adv-x="608" 
d="M78 0l-0.00292969 47.9971c13.333 39.333 30.833 76 52.5 110s47.5 65 77.5 93l52 49c30 27.333 55 52 75 74s34.667 41.333 44 58c10 16.667 17.5 34.5 22.5 53.5s7.5 39.167 7.5 60.5c0 24.667 -3 46.834 -9 66.501s-15 36.834 -27 51.501
c-12 15.333 -26.167 26.5 -42.5 33.5s-34.5 10.5 -54.5 10.5c-22 0 -42.167 -3 -60.5 -9s-35.166 -14.667 -50.499 -26c-6 -4.66699 -10.833 -15.167 -14.5 -31.5s-6.16699 -38.166 -7.5 -65.499l-1 -11h-48v131c35.333 14.667 69 25.667 101 33s63 11 93 11
c32.667 0 62.334 -4.66699 89.001 -14s50.334 -23 71.001 -41c21.333 -18.667 37.166 -39.5 47.499 -62.5s15.5 -48.833 15.5 -77.5c0 -38 -11.667 -74.667 -35 -110s-58.666 -69.333 -105.999 -102l-59 -39c-46.667 -33.333 -83 -67.5 -109 -102.5s-41 -71.167 -45 -108.5
l351 1v-84h-430v0z" />
    <glyph glyph-name="three" unicode="3" horiz-adv-x="608" 
d="M90 4l0.00195312 127.993h48l1 -11l1 -39c0.666992 -8.66699 2.5 -15.834 5.5 -21.501s6.83301 -10.5 11.5 -14.5c15.333 -12 32.166 -21 50.499 -27s38.5 -9 60.5 -9c21.333 0 40.5 4.33301 57.5 13s31.833 21.334 44.5 38.001c13.333 16.667 23.166 36.167 29.499 58.5
s9.5 47.166 9.5 74.499s-4.16699 51.833 -12.5 73.5s-21.166 40.167 -38.499 55.5c-16.667 15.333 -37 26.833 -61 34.5s-51 11.5 -81 11.5l-60 1v30h32c36 -0.666992 67 2.33301 93 9s47 16.334 63 29.001c16.667 13.333 29 30.166 37 50.499s12 44.833 12 73.5
c0 25.333 -2.66699 47 -8 65s-13.333 33.333 -24 46c-10.667 12 -24.334 21 -41.001 27s-35.667 9 -57 9c-18.667 0 -36.167 -2 -52.5 -6s-31.5 -9.66699 -45.5 -17c-4 -2.66699 -7.16699 -5.16699 -9.5 -7.5s-3.83301 -5.16602 -4.5 -8.49902
c-0.666992 -2.66699 -1.66699 -9.16699 -3 -19.5s-2.66602 -24.5 -3.99902 -42.5v-6h-49v110c26 8.66699 54 15.5 84 20.5s61.333 7.5 94 7.5c33.333 0 63.166 -3.66699 89.499 -11s49.166 -18.666 68.499 -33.999c19.333 -14.667 33.833 -32.167 43.5 -52.5
s14.5 -43.5 14.5 -69.5c0 -21.333 -3.16699 -41.166 -9.5 -59.499s-15.833 -35.166 -28.5 -50.499s-28.5 -29.166 -47.5 -41.499s-41.167 -23.166 -66.5 -32.499c31.333 -8 58.166 -17.667 80.499 -29s39.833 -24.333 52.5 -39c13.333 -14.667 23.333 -32.334 30 -53.001
s10 -44.334 10 -71.001c0 -33.333 -5.33301 -63.166 -16 -89.499s-27 -49.166 -49 -68.499c-21.333 -19.333 -46.666 -33.666 -75.999 -42.999s-62.666 -14 -99.999 -14c-16.667 0 -33 0.5 -49 1.5s-31.667 2.5 -47 4.5c-14.667 2 -29 4.33301 -43 7
s-27.333 5.33398 -40 8.00098v1z" />
    <glyph glyph-name="four" unicode="4" horiz-adv-x="608" 
d="M361 204l-331 -0.000976562v48l361 482h54v-457h97v-73h-97v-78c0 -22.667 1 -40.667 3 -54s4.66699 -22 8 -26s11 -7.5 23 -10.5s28 -5.16699 48 -6.5l9 1v-30h-277v30h9c24 0.666992 43 2.33398 57 5.00098s22.667 5.66699 26 9s5.83301 11.833 7.5 25.5
s2.5 32.167 2.5 55.5v79v0zM84 276.999h277v368l-277 -368v0z" />
    <glyph glyph-name="five" unicode="5" horiz-adv-x="608" 
d="M114 -1l-0.00292969 121h48l1 -12c0 -19.333 1.5 -35.333 4.5 -48s7.83301 -22.667 14.5 -30c6.66699 -6.66699 16.334 -11.5 29.001 -14.5s28.334 -4.5 47.001 -4.5c22.667 0 43 4.33301 61 13s33.333 21.667 46 39c13.333 17.333 23.166 38 29.499 62s9.5 51 9.5 81
c0 36 -5 66.5 -15 91.5s-25.667 44.5 -47 58.5c-20.667 14.667 -49 25.5 -85 32.5s-79.667 10.5 -131 10.5v323h364v-84h-334v-202h45c50.667 -0.666992 95 -5.83398 133 -15.501s69.667 -24.167 95 -43.5c25.333 -18.667 44.333 -42.5 57 -71.5s19 -63.167 19 -102.5
c0 -34.667 -5.83301 -65.667 -17.5 -93s-29.167 -50.666 -52.5 -69.999c-23.333 -20 -51.166 -34.667 -83.499 -44s-69.166 -14 -110.499 -14c-20.667 0 -41.5 1.5 -62.5 4.5s-42.5 7.16699 -64.5 12.5v0z" />
    <glyph glyph-name="six" unicode="6" horiz-adv-x="608" 
d="M162 369c11.333 15.333 23.498 28.832 36.498 40.499s26.833 21.5 41.5 29.5s30 13.833 46 17.5s32.667 5.5 50 5.5c31.333 0 60 -5.16699 86 -15.5s49 -26.166 69 -47.499c20 -20.667 35 -44.667 45 -72s15 -57.666 15 -90.999c0 -36 -5.66699 -69.167 -17 -99.5
s-28.333 -57.833 -51 -82.5s-48.167 -42.834 -76.5 -54.501s-59.166 -17.5 -92.499 -17.5c-40.667 0 -76.667 7.66699 -108 23s-58 39 -80 71s-38.5 70.667 -49.5 116s-16.5 97.333 -16.5 156c0 62.667 6.33301 118 19 166s31.667 89 57 123
c25.333 34.667 55.833 60.5 91.5 77.5s76.834 25.5 123.501 25.5c30 0 58.333 -2.66699 85 -8s51.334 -13.666 74.001 -24.999v-114h-48l-1 10c-0.666992 14 -1.5 25.5 -2.5 34.5s-2.16699 15.167 -3.5 18.5c-0.666992 3.33301 -2 6.66602 -4 9.99902s-4.66699 6.33301 -8 9
c-14.667 11.333 -30.334 19.833 -47.001 25.5s-34.667 8.5 -54 8.5c-28.667 0 -54 -7.33301 -76 -22s-41 -37 -57 -67c-15.333 -29.333 -27 -65 -35 -107s-12 -90.333 -12 -145v1zM164.998 268.999c0 -38.667 3.83008 -73.498 11.4971 -104.498s18.834 -58.5 33.501 -82.5
c15.333 -23.333 32.666 -41 51.999 -53s41 -18 65 -18c20 0 37.833 4.66699 53.5 14s28.834 23.333 39.501 42c11.333 18.667 19.833 41 25.5 67s8.5 55.667 8.5 89s-2.83301 62.666 -8.5 87.999s-14.167 46.666 -25.5 63.999c-11.333 18 -25.166 31.5 -41.499 40.5
s-35.166 13.5 -56.499 13.5c-23.333 0 -44.5 -3.66699 -63.5 -11s-35.833 -18.333 -50.5 -33s-25.5 -31.667 -32.5 -51s-10.5 -41.333 -10.5 -66v1z" />
    <glyph glyph-name="seven" unicode="7" horiz-adv-x="608" 
d="M137 0c4 24.667 9.50195 48.667 16.502 72s14.833 45.333 23.5 66c11.333 26.667 23 51.5 35 74.5s24.333 43.833 37 62.5c12.667 19.333 34.5 50.5 65.5 93.5l120.5 164.5l72 99h-406v90h463v-63c-52.667 -71.333 -98.167 -137.5 -136.5 -198.5
s-69.833 -117.167 -94.5 -168.5s-43.834 -101.5 -57.501 -150.5s-21.834 -96.167 -24.501 -141.5h-114v0z" />
    <glyph glyph-name="eight" unicode="8" horiz-adv-x="608" 
d="M208 389c-36.667 24.667 -64.333 50.999 -83 78.999s-28 57.333 -28 88c0 27.333 5 52.166 15 74.499s25 41.833 45 58.5c19.333 17.333 42 30.166 68 38.499s55 12.5 87 12.5c30.667 0 58.167 -3.66699 82.5 -11s45.5 -18.333 63.5 -33c18 -14 31.667 -30.667 41 -50
s14 -41 14 -65c0 -36.667 -12 -70.5 -36 -101.5s-59.667 -58.5 -107 -82.5c57.333 -24.667 100.5 -54.5 129.5 -89.5s43.5 -75.5 43.5 -121.5c0 -30.667 -5.66699 -58.167 -17 -82.5s-28.666 -46.166 -51.999 -65.499c-22.667 -18.667 -48.834 -32.667 -78.501 -42
s-62.5 -14 -98.5 -14c-34.667 0 -66.334 4.33301 -95.001 13s-54 21.667 -76 39c-21.333 18 -37.5 38.667 -48.5 62s-16.5 49.333 -16.5 78c0 48.667 12.333 90.834 37 126.501s61.334 64.834 110.001 87.501v1zM230.001 367.999c-24.667 -23.333 -43 -50.1689 -55 -80.502
s-18 -64.166 -18 -101.499c0 -26.667 3.33301 -50.667 10 -72s16.667 -40 30 -56s28.666 -27.833 45.999 -35.5s37.333 -11.5 60 -11.5c20.667 0 39.5 3.5 56.5 10.5s32.5 17.5 46.5 31.5c13.333 14 23.5 29.833 30.5 47.5s10.5 36.834 10.5 57.501
c0 17.333 -2.66699 33.5 -8 48.5s-13 28.5 -23 40.5c-10.667 12 -25.667 24.833 -45 38.5s-43.666 28.5 -72.999 44.5l-68 38v0zM344.001 414.996c28 20 49.167 43.666 63.5 70.999s21.5 58.333 21.5 93c0 19.333 -3 37 -9 53s-14.667 30 -26 42
c-11.333 11.333 -24.5 20 -39.5 26s-32.167 9 -51.5 9c-16.667 0 -32.334 -2.83301 -47.001 -8.5s-27.667 -14.5 -39 -26.5c-12 -12 -21 -25.167 -27 -39.5s-9 -30.166 -9 -47.499c0 -16.667 2.66699 -32 8 -46s13.333 -26.667 24 -38
c11.333 -11.333 27.833 -24.5 49.5 -39.5s48.834 -31.5 81.501 -49.5v1z" />
    <glyph glyph-name="nine" unicode="9" horiz-adv-x="608" 
d="M445 353c-11.333 -16.667 -23.332 -30.8359 -35.999 -42.5029s-26.334 -21.5 -41.001 -29.5s-30 -14 -46 -18s-33 -6 -51 -6c-31.333 0 -59.833 5.33301 -85.5 16s-48.5 26.667 -68.5 48s-35 45.5 -45 72.5s-15 57.167 -15 90.5c0 36 5.66699 69.167 17 99.5
s28.333 57.833 51 82.5s48 43.167 76 55.5s58.667 18.5 92 18.5c40.667 0 76.667 -8 108 -24s58 -40 80 -72c22.667 -32 39.5 -70.667 50.5 -116s16.5 -97.333 16.5 -156c0 -62.667 -6.33301 -118 -19 -166s-31.667 -89 -57 -123s-56 -59.333 -92 -76s-77.333 -25 -124 -25
c-30 0 -58.167 2.66699 -84.5 8s-51.166 13 -74.499 23v116h48l1 -10c1.33301 -15.333 2.5 -27.666 3.5 -36.999s1.83301 -15.666 2.5 -18.999s2.16699 -6.5 4.5 -9.5s5.16602 -5.83301 8.49902 -8.5c14 -11.333 29.5 -19.833 46.5 -25.5s34.833 -8.5 53.5 -8.5
c28.667 0 54 7.33301 76 22s41 37 57 67c15.333 30 27 65.833 35 107.5s12 89.834 12 144.501v1zM442.001 452.998c0 37.333 -3.66895 71.502 -11.002 102.502s-18.666 58.167 -33.999 81.5c-14.667 24 -31.667 41.833 -51 53.5s-41 17.5 -65 17.5
c-20.667 0 -38.667 -4.5 -54 -13.5s-28.666 -22.833 -39.999 -41.5s-19.833 -41 -25.5 -67s-8.5 -55.667 -8.5 -89c0 -32.667 2.83301 -61.834 8.5 -87.501s14.167 -47.167 25.5 -64.5c11.333 -18 25.333 -31.5 42 -40.5s35.667 -13.5 57 -13.5
c23.333 0 44.5 3.66699 63.5 11s35.5 18.333 49.5 33c14.667 15.333 25.5 32.666 32.5 51.999s10.5 41 10.5 65v1z" />
    <glyph glyph-name="colon" unicode=":" horiz-adv-x="265" 
d="M72 0v120h120v-120h-120v0zM72 409v121h120v-121h-120v0z" />
    <glyph glyph-name="semicolon" unicode=";" horiz-adv-x="265" 
d="M120 0h-48v120h120v-105c0 -20 -0.5 -37.167 -1.5 -51.5s-2.5 -25.166 -4.5 -32.499c-2.66699 -8 -6.66699 -16 -12 -24s-12 -16.333 -20 -25c-11.333 -11.333 -23.833 -20.333 -37.5 -27s-28.5 -10.334 -44.5 -11.001v30c16 1.33301 28 10 36 26s12 39 12 69v31v0z
M72 409v121h120v-121h-120v0z" />
    <glyph glyph-name="less" unicode="&#x3c;" horiz-adv-x="608" 
d="M569 554v-58l-413 -207l413 -207v-59l-530 266l530 265v0z" />
    <glyph glyph-name="equal" unicode="=" horiz-adv-x="608" 
d="M39 177v54h530v-54h-530v0zM39 346v54h530v-54h-530v0z" />
    <glyph glyph-name="greater" unicode="&#x3e;" horiz-adv-x="608" 
d="M39 23v59l412 207l-412 207v58l530 -265l-530 -266v0z" />
    <glyph glyph-name="question" unicode="?" horiz-adv-x="480" 
d="M150 0v96h97v-96h-97v0zM150 192l-0.00292969 8.99902c0 32.667 5.83301 63.167 17.5 91.5s29.167 53.833 52.5 76.5l19 20c30.667 29.333 53.667 59.666 69 90.999s23 63.333 23 96c0 22.667 -2.66699 42.334 -8 59.001s-13.333 30.334 -24 41.001
c-10.667 11.333 -24.334 19.666 -41.001 24.999s-35.667 8 -57 8c-18 0 -34.5 -2.5 -49.5 -7.5s-28.167 -12.5 -39.5 -22.5c-5.33301 -4.66699 -9.66602 -15 -12.999 -31s-5.66602 -37.667 -6.99902 -65l-1 -9h-48v134c30.667 10 60.667 17.667 90 23s58.333 8 87 8
c32.667 0 61.834 -3.5 87.501 -10.5s48.167 -17.833 67.5 -32.5s34 -31.667 44 -51s15 -41 15 -65c0 -26.667 -8.16699 -52.667 -24.5 -78s-40.5 -50.333 -72.5 -75c-8.66699 -6.66699 -16.167 -12.667 -22.5 -18s-11.166 -9.66602 -14.499 -12.999l-18 -15
c-12 -11.333 -20.833 -27.333 -26.5 -48s-8.5 -45.667 -8.5 -75v-66h-97v0z" />
    <glyph glyph-name="at" unicode="@" horiz-adv-x="873" 
d="M537 21c-28.667 -13.333 -57.002 -23.167 -85.002 -29.5s-55.667 -9.5 -83 -9.5c-47.333 0 -90.5 6.83301 -129.5 20.5s-73.833 34.5 -104.5 62.5c-30.667 28.667 -53.667 60.834 -69 96.501s-23 75.5 -23 119.5c0 54 10 106 30 156s50.333 98.333 91 145
c45.333 52 96.333 91.167 153 117.5s119.334 39.5 188.001 39.5c46 0 88.333 -7.16699 127 -21.5s73.334 -36.166 104.001 -65.499s53.667 -62.333 69 -99s23 -76.667 23 -120c0 -38.667 -6 -75 -18 -109s-30.333 -65.667 -55 -95
c-24.667 -28.667 -51.167 -50.167 -79.5 -64.5s-58.833 -21.5 -91.5 -21.5c-14 0 -26.333 1.33301 -37 4s-19.667 6.66699 -27 12c-6.66699 6 -11.834 13.167 -15.501 21.5s-5.5 18.166 -5.5 29.499c0 3.33301 1.33301 11.5 4 24.5s6.66699 30.833 12 53.5l5 22h-11
c-16 -28 -32 -52.5 -48 -73.5s-31.667 -38.167 -47 -51.5c-16 -14 -31.667 -24.5 -47 -31.5s-30.666 -10.5 -45.999 -10.5c-14.667 0 -27.834 2.33301 -39.501 7s-21.167 11.667 -28.5 21s-12.833 21.166 -16.5 35.499s-5.5 30.833 -5.5 49.5c0 39.333 6.83301 77 20.5 113
s33.834 70.333 60.501 103c27.333 33.333 55.5 58.166 84.5 74.499s59.167 24.5 90.5 24.5c7.33301 0 17.833 -1.33301 31.5 -4s30.167 -6.66699 49.5 -12c1.33301 -0.666992 3 -1.16699 5 -1.5s4.66699 -0.833008 8 -1.5l46 1l-56 -280c-2 -10 -3.5 -19 -4.5 -27
s-1.5 -15 -1.5 -21c0 -7.33301 1.16699 -14 3.5 -20s5.5 -10.667 9.5 -14c4 -4 9 -7 15 -9s13.333 -3 22 -3c22.667 0 44.5 6.83301 65.5 20.5s40.833 33.834 59.5 60.501c19.333 27.333 33.833 55.833 43.5 85.5s14.5 60.5 14.5 92.5c0 38.667 -7.16699 74 -21.5 106
s-35.833 61 -64.5 87s-60.667 45.5 -96 58.5s-74 19.5 -116 19.5c-54.667 0 -106.5 -10.833 -155.5 -32.5s-95.5 -54.167 -139.5 -97.5c-43.333 -43.333 -76 -89.333 -98 -138s-33 -100 -33 -154c0 -40.667 6.83301 -77.5 20.5 -110.5s34.5 -62.5 62.5 -88.5
c27.333 -25.333 58.666 -44.5 93.999 -57.5s74.333 -19.5 117 -19.5c25.333 0 51.333 3 78 9s53.334 15 80.001 27l11 -26v0zM523.998 398.999l20.002 103.001c-6.66699 3.33301 -13.334 6.33301 -20.001 9s-13.667 4.66699 -21 6c-7.33301 2 -15 3.33301 -23 4s-16 1 -24 1
c-22 0 -42.167 -5.66699 -60.5 -17s-34.833 -28.666 -49.5 -51.999c-14.667 -22.667 -25.667 -48.5 -33 -77.5s-11 -60.833 -11 -95.5c0 -12.667 1 -23.834 3 -33.501s4.66699 -17.834 8 -24.501c4 -6 8.83301 -10.667 14.5 -14s12.5 -5 20.5 -5
c11.333 0 23.666 4 36.999 12s27.333 20.333 42 37c15.333 16 31 36.167 47 60.5s32.667 52.833 50 85.5v1z" />
    <glyph glyph-name="A" unicode="A" horiz-adv-x="744" 
d="M182 222l-41.001 -96.001c-8.66699 -19.333 -15 -35.5 -19 -48.5s-6 -22.5 -6 -28.5c0 -6.66699 5.33301 -11.667 16 -15s26.334 -5 47.001 -5l8 1v-30h-187v30h10c14 0.666992 25.167 1.83398 33.5 3.50098s13.833 3.83398 16.5 6.50098s7.5 11.167 14.5 25.5
s15.833 34.166 26.5 59.499l254 606h34l254 -608c9.33301 -22.667 17.5 -40.5 24.5 -53.5s12.833 -21.5 17.5 -25.5c4 -4.66699 10 -8 18 -10s17.667 -3.66699 29 -5l12 1v-30h-268v30h8c23.333 -0.666992 40.666 0.5 51.999 3.5s17 7.83301 17 14.5
c0 9.33301 -1.66699 20.5 -5 33.5s-8.66602 27.5 -15.999 43.5l-40 97h-310v0zM197.999 261.999h276l-137 329l-139 -329v0z" />
    <glyph glyph-name="B" unicode="B" horiz-adv-x="609" 
d="M358 374c30.667 -5.33301 57.834 -13.501 81.501 -24.501s43.834 -25.167 60.501 -42.5c17.333 -16.667 30.166 -35.667 38.499 -57s12.5 -44.666 12.5 -69.999c0 -30.667 -5 -57.334 -15 -80.001s-25.333 -41.667 -46 -57c-20 -14.667 -45.667 -25.5 -77 -32.5
s-67.666 -10.5 -108.999 -10.5h-284v30h10c19.333 0.666992 35 2.33398 47 5.00098s19.667 6.33398 23 11.001s6 13.5 8 26.5s3 30.5 3 52.5v471c0 21.333 -1 38.5 -3 51.5s-4.66699 21.833 -8 26.5c-3.33301 4 -11 7.5 -23 10.5s-27.667 4.83301 -47 5.5l-10 2v30h297
c33.333 -0.666992 62.666 -4.5 87.999 -11.5s46.666 -17.167 63.999 -30.5s30.333 -30 39 -50s13 -43 13 -69c0 -20.667 -3.33301 -40.334 -10 -59.001s-16.667 -36 -30 -52c-13.333 -15.333 -30.333 -29.5 -51 -42.5s-44.667 -24.5 -72 -34.5v1zM212 357.999v-232
c0 -25.333 1 -44.833 3 -58.5s5.33301 -21.5 10 -23.5c8 -4.66699 17.833 -8 29.5 -10s25.5 -3 41.5 -3c22 0 42 3.5 60 10.5s34 16.833 48 29.5c13.333 13.333 23.5 28.833 30.5 46.5s10.5 37.167 10.5 58.5c0 60 -19.5 105.167 -58.5 135.5s-97.167 45.5 -174.5 45.5v1z
M212 390.999l29.999 0.000976562c29.333 -0.666992 54.833 2.5 76.5 9.5s39.834 16.833 54.501 29.5c14.667 13.333 25.5 30.166 32.5 50.499s10.5 43.833 10.5 70.5c0 25.333 -3.33301 46.833 -10 64.5s-16.667 31.5 -30 41.5c-13.333 10.667 -31.5 18.5 -54.5 23.5
s-51.167 7.5 -84.5 7.5l-25 1v-298v0z" />
    <glyph glyph-name="C" unicode="C" horiz-adv-x="695" 
d="M638 38c-32.667 -19.333 -68.1699 -33.498 -106.503 -42.498s-79.166 -13.5 -122.499 -13.5c-55.333 0 -104.833 8.16699 -148.5 24.5s-81.5 41.5 -113.5 75.5c-32 34.667 -56 75.167 -72 121.5s-24 98.833 -24 157.5c0 60 7.66699 113.333 23 160
s38.333 86.334 69 119.001c31.333 33.333 68.5 58.166 111.5 74.499s92.167 24.5 147.5 24.5c28 0 60.667 -3 98 -9s79 -15 125 -27v-137h-60l-1 10v5.5v7.5c-0.666992 2 -1 4.16699 -1 6.5v7.5c0 16 -3.5 30.5 -10.5 43.5s-18.167 23.833 -33.5 32.5
c-14.667 9.33301 -32.167 16.333 -52.5 21s-43.166 7 -68.499 7c-36.667 0 -69.667 -7.83301 -99 -23.5s-54.666 -39.167 -75.999 -70.5c-22 -31.333 -38.5 -67.833 -49.5 -109.5s-16.5 -88.834 -16.5 -141.501s6.5 -99.334 19.5 -140.001s32.167 -75.667 57.5 -105
s55.833 -51.333 91.5 -66s76.167 -22 121.5 -22c30 0 60.833 4.5 92.5 13.5s64.5 22.833 98.5 41.5v-46v0z" />
    <glyph glyph-name="D" unicode="D" horiz-adv-x="768" 
d="M20 0l-0.00292969 29.998h10c19.333 0.666992 35 2.33398 47 5.00098s19.667 6.33398 23 11.001s6 13.5 8 26.5s3 30.5 3 52.5v471c0 21.333 -1 38.5 -3 51.5s-4.66699 21.833 -8 26.5c-3.33301 4 -11 7.5 -23 10.5s-27.667 4.83301 -47 5.5l-10 2v30h232l76 2l35 1
c56.667 -0.666992 106.667 -8.5 150 -23.5s80.333 -37.5 111 -67.5c30 -30 52.5 -66.667 67.5 -110s22.5 -93 22.5 -149c0 -58 -7.66699 -110 -23 -156s-38.666 -85.667 -69.999 -119c-31.333 -34 -68.166 -59.167 -110.499 -75.5s-90.166 -24.5 -143.499 -24.5h-347v0z
M212.997 688.998v-563c0 -22.667 1.16699 -40.167 3.5 -52.5s5.83301 -20.166 10.5 -23.499c8.66699 -6 21.5 -10.5 38.5 -13.5s38.167 -4.5 63.5 -4.5c46 0 86.333 6.83301 121 20.5s63.334 34.167 86.001 61.5c23.333 28 40.666 62.667 51.999 104s17 89.666 17 144.999
c0 57.333 -6 106.833 -18 148.5s-30.667 75.167 -56 100.5c-24.667 25.333 -57 44.333 -97 57s-87.667 19 -143 19l-78 1v0z" />
    <glyph glyph-name="E" unicode="E" horiz-adv-x="566" 
d="M541 0l-520.998 -0.00195312v30h10c19.333 0.666992 35 2.33398 47 5.00098s19.667 6.33398 23 11.001s6 13.5 8 26.5s3 30.5 3 52.5v471c0 21.333 -1 38.5 -3 51.5s-4.66699 21.833 -8 26.5c-3.33301 4 -11 7.5 -23 10.5s-27.667 4.83301 -47 5.5l-10 2v30h495v-126h-55
l-1 9c-0.666992 22 -1.83398 39 -3.50098 51s-3.83398 19 -6.50098 21c-2 1.33301 -9.5 2.5 -22.5 3.5s-31.5 1.5 -55.5 1.5l-158 1v-289l133 1c14.667 -0.666992 26.5 -0.666992 35.5 0s15.167 1.66699 18.5 3s6 6 8 14s3.33301 18.667 4 32v10h39v-159h-39v9
c-0.666992 11.333 -2 20.666 -4 27.999s-4.66699 12.333 -8 15s-9.5 4.5 -18.5 5.5s-20.833 1.5 -35.5 1.5l-133 1v-229c0 -19.333 1.16699 -34.833 3.5 -46.5s5.83301 -20.167 10.5 -25.5c4.66699 -4.66699 12.667 -8.16699 24 -10.5s26.333 -3.5 45 -3.5l78 1
c28.667 -0.666992 51 -0.166992 67 1.5s26 3.83398 30 6.50098c4 3.33301 7.5 11 10.5 23s4.83301 28.667 5.5 50v10h54v-132v0z" />
    <glyph glyph-name="F" unicode="F" horiz-adv-x="548" 
d="M213 350l0.000976562 -224.003c0 -19.333 1 -35.5 3 -48.5s4.66699 -22.167 8 -27.5c3.33301 -6 8.83301 -10.5 16.5 -13.5s17.167 -4.5 28.5 -4.5l9.5 -0.5c6.33301 -0.333008 15.833 -1.16602 28.5 -2.49902l9 1v-30h-296v30h10c19.333 0.666992 35 2.33398 47 5.00098
s19.667 6.33398 23 11.001s6 13.5 8 26.5s3 30.5 3 52.5v471c0 21.333 -1 38.5 -3 51.5s-4.66699 21.833 -8 26.5c-3.33301 4 -11 7.5 -23 10.5s-27.667 4.83301 -47 5.5l-10 2v30h488v-126h-54v9c-1.33301 22 -2.83301 39 -4.5 51s-3.83398 19 -6.50098 21
c-2 1.33301 -9.5 2.5 -22.5 3.5s-31.5 1.5 -55.5 1.5l-152 1v-293h133c14.667 -0.666992 26.5 -0.666992 35.5 0s14.833 1.66699 17.5 3c3.33301 1.33301 6.16602 5.83301 8.49902 13.5s3.83301 18.5 4.5 32.5v10h39v-159h-39v9c-0.666992 12 -2.16699 21.5 -4.5 28.5
s-5.16602 11.833 -8.49902 14.5c-2.66699 2.66699 -8.5 4.5 -17.5 5.5s-20.833 1.5 -35.5 1.5l-133 1v0z" />
    <glyph glyph-name="G" unicode="G" horiz-adv-x="731" 
d="M637 17c-46.667 -11.333 -89.5039 -20 -128.504 -26s-74.5 -9 -106.5 -9c-53.333 0 -101.5 8.33301 -144.5 25s-80.167 42.334 -111.5 77.001s-55 75 -71 121s-24 98 -24 156c0 60 7.83301 113.333 23.5 160s38.834 86.334 69.501 119.001
c30.667 33.333 67.667 58.166 111 74.499s93.333 24.5 150 24.5c20 0 39.833 -0.666992 59.5 -2s38.834 -3.66602 57.501 -6.99902c19.333 -2.66699 38.333 -6.5 57 -11.5s37.334 -10.5 56.001 -16.5v-130h-54v10c-0.666992 3.33301 -1 7.33301 -1 12v14
c0 15.333 -3.66699 29 -11 41s-18.666 22.333 -33.999 31c-14.667 9.33301 -32.5 16.166 -53.5 20.499s-44.833 6.5 -71.5 6.5c-40 0 -75.5 -7.66699 -106.5 -23s-57.167 -38.333 -78.5 -69c-22 -30 -38.333 -66.667 -49 -110s-16 -93 -16 -149c0 -52 6 -98.5 18 -139.5
s30 -76.5 54 -106.5c24.667 -29.333 53.667 -51.5 87 -66.5s71.333 -22.5 114 -22.5c13.333 0 28.5 1.33301 45.5 4s35.833 7 56.5 13v143c0 21.333 -1 38.666 -3 51.999s-4.66699 22 -8 26s-11 7.5 -23 10.5s-28 5.16699 -48 6.5l-9 1v30h283v-30h-9
c-20 -2 -35.833 -4.5 -47.5 -7.5s-19.5 -6.5 -23.5 -10.5c-3.33301 -4 -5.83301 -12.667 -7.5 -26s-2.5 -31 -2.5 -53v-163v0z" />
    <glyph glyph-name="H" unicode="H" horiz-adv-x="771" 
d="M213 354v-228.002c0 -22.667 1 -40.5 3 -53.5s4.66699 -21.833 8 -26.5s11 -8.33398 23 -11.001s27.667 -4.66699 47 -6l10 1v-30h-284v30h10c19.333 0.666992 35 2.33398 47 5.00098s19.667 6.33398 23 11.001s6 13.5 8 26.5s3 30.5 3 52.5v471
c0 21.333 -1 38.5 -3 51.5s-4.66699 21.833 -8 26.5c-3.33301 4 -11 7.5 -23 10.5s-27.667 4.83301 -47 5.5l-10 2v30h284v-30l-10 -1c-19.333 -1.33301 -35 -3.5 -47 -6.5s-19.667 -6.5 -23 -10.5c-3.33301 -4.66699 -6 -13.5 -8 -26.5s-3 -30.5 -3 -52.5v-199h344v200
c0 21.333 -1 38.5 -3 51.5s-4.66699 21.833 -8 26.5c-3.33301 4 -11 7.5 -23 10.5s-27.667 4.83301 -47 5.5l-9 2v30h283v-30l-9 -1c-20 -1.33301 -35.833 -3.5 -47.5 -6.5s-19.5 -6.5 -23.5 -10.5c-3.33301 -4.66699 -5.83301 -13.5 -7.5 -26.5s-2.5 -30.5 -2.5 -52.5v-469
c0 -22.667 0.833008 -40.5 2.5 -53.5s4.16699 -21.833 7.5 -26.5c4 -4.66699 11.833 -8.33398 23.5 -11.001s27.5 -4.66699 47.5 -6l9 1v-30h-283v30h9c20 0.666992 35.833 2.33398 47.5 5.00098s19.167 6.33398 22.5 11.001c4 4 6.83301 12.667 8.5 26s2.5 31 2.5 53v229
h-344v0z" />
    <glyph glyph-name="I" unicode="I" horiz-adv-x="325" 
d="M304 30v-30.001h-284v30h10c19.333 0.666992 35 2.33398 47 5.00098s19.667 6.33398 23 11.001s6 13.5 8 26.5s3 30.5 3 52.5v471c0 21.333 -1 38.5 -3 51.5s-4.66699 21.833 -8 26.5c-3.33301 4 -11 7.5 -23 10.5s-27.667 4.83301 -47 5.5l-10 2v30h284v-30l-10 -1
c-19.333 -1.33301 -35 -3.5 -47 -6.5s-19.667 -6.5 -23 -10.5c-3.33301 -4.66699 -6 -13.5 -8 -26.5s-3 -30.5 -3 -52.5v-469c0 -22.667 1 -40.5 3 -53.5s4.66699 -21.833 8 -26.5s11 -8.33398 23 -11.001s27.667 -4.66699 47 -6l10 1v0z" />
    <glyph glyph-name="J" unicode="J" horiz-adv-x="421" 
d="M5 -134l-0.000976562 131.998h57l1 -12l2 -36c0 -19.333 5 -33.666 15 -42.999s25 -14 45 -14c13.333 0 25 2.5 35 7.5s19 12.833 27 23.5c8 10 14 21.667 18 35s6 27.333 6 42l-1 71v524c-0.666992 24 -1.83398 42.833 -3.50098 56.5s-4.16699 21.834 -7.5 24.501
c-2.66699 3.33301 -9.66699 6.16602 -21 8.49902s-27.666 3.83301 -48.999 4.5l-9 2v30h283v-30l-9 -1c-20 -1.33301 -35.833 -3.5 -47.5 -6.5s-19.167 -6.5 -22.5 -10.5c-3.33301 -4.66699 -6 -13.5 -8 -26.5s-3 -30.5 -3 -52.5v-464
c0 -50.667 -4.16699 -93.5 -12.5 -128.5s-21.166 -62.833 -38.499 -83.5c-16.667 -21.333 -39.5 -37.166 -68.5 -47.499s-63.833 -15.5 -104.5 -15.5c-12.667 0 -26 0.833008 -40 2.5s-28.667 4.16699 -44 7.5v0z" />
    <glyph glyph-name="K" unicode="K" horiz-adv-x="708" 
d="M213 365l-0.000976562 -239c0 -22.667 1 -40.5 3 -53.5s4.33301 -21.833 7 -26.5c3.33301 -4.66699 10 -8.33398 20 -11.001s23.333 -4.66699 40 -6l8 1v-30h-271v30h10c19.333 0.666992 35 2.33398 47 5.00098s19.667 6.33398 23 11.001s6 13.5 8 26.5s3 30.5 3 52.5
v471c0 21.333 -1 38.5 -3 51.5s-4.66699 21.833 -8 26.5c-3.33301 4 -11 7.5 -23 10.5s-27.667 4.83301 -47 5.5l-10 2v30h284v-30l-10 -1c-19.333 -1.33301 -35 -3.5 -47 -6.5s-19.667 -6.5 -23 -10.5c-3.33301 -4.66699 -6 -13.5 -8 -26.5s-3 -30.5 -3 -52.5v-227l219 228
c24 26 42 46.333 54 61s18 23.334 18 26.001s-6 4.66699 -18 6s-29.667 2 -53 2l-9 1v30h223v-30l-8 -1c-18.667 -1.33301 -34 -2.83301 -46 -4.5s-20 -3.83398 -24 -6.50098c-4.66699 -2.66699 -14.5 -11.167 -29.5 -25.5l-60.5 -60.5l-184 -187l253 -282
c21.333 -23.333 38.833 -41.833 52.5 -55.5s23.834 -22.167 30.501 -25.5c6 -4 14.5 -7.16699 25.5 -9.5s24.5 -4.16602 40.5 -5.49902l11 1v-30h-296v30h9c19.333 -0.666992 34 -0.166992 44 1.5s15.333 4.5 16 8.5c0 5.33301 -5 15.166 -15 29.499s-25 33.166 -45 56.499
l-208 239v0z" />
    <glyph glyph-name="L" unicode="L" horiz-adv-x="557" 
d="M539 0l-518.998 -0.00195312v30h10c19.333 0.666992 35 2.33398 47 5.00098s19.667 6.33398 23 11.001s6 13.5 8 26.5s3 30.5 3 52.5v471c0 21.333 -1 38.5 -3 51.5s-4.66699 21.833 -8 26.5c-3.33301 4 -11 7.5 -23 10.5s-27.667 4.83301 -47 5.5l-10 2v30h284v-30
l-10 -1c-19.333 -1.33301 -35 -3.5 -47 -6.5s-19.667 -6.5 -23 -10.5c-3.33301 -4.66699 -6 -13.5 -8 -26.5s-3 -30.5 -3 -52.5v-469c0 -22 1 -39.333 3 -52s4.33301 -20.667 7 -24c3.33301 -2.66699 11.166 -5 23.499 -7s29.166 -3 50.499 -3l74 1
c29.333 -0.666992 52.333 0 69 2s27 4.66699 31 8s7.5 11.833 10.5 25.5s4.83301 32.5 5.5 56.5v11h52v-144v0z" />
    <glyph glyph-name="M" unicode="M" horiz-adv-x="860" 
d="M20 692v29.998h208l216 -526l213 526h181v-30l-9 -1c-19.333 -1.33301 -35 -3.5 -47 -6.5s-19.667 -6.5 -23 -10.5c-3.33301 -4.66699 -6 -13.5 -8 -26.5s-3 -30.5 -3 -52.5v-469c0 -22.667 1 -40.5 3 -53.5s4.66699 -21.833 8 -26.5s11 -8.33398 23 -11.001
s27.667 -4.66699 47 -6l9 1v-30h-275v30h9c19.333 0.666992 34.833 2.33398 46.5 5.00098s19.5 6.33398 23.5 11.001c3.33301 4.66699 5.83301 13.5 7.5 26.5s2.5 30.5 2.5 52.5v498l-227 -566h-36l-224 573v-504c0 -22.667 0.833008 -40.5 2.5 -53.5s4.5 -21.833 8.5 -26.5
c3.33301 -4.66699 10.833 -8.33398 22.5 -11.001s27.5 -4.66699 47.5 -6l9 1v-30h-235v30h10c19.333 0.666992 35 2.33398 47 5.00098s19.667 6.33398 23 11.001s6 13.5 8 26.5s3 30.5 3 52.5v471c0 21.333 -1 38.5 -3 51.5s-4.66699 21.833 -8 26.5
c-3.33301 4 -11 7.5 -23 10.5s-27.667 4.83301 -47 5.5l-10 2v0z" />
    <glyph glyph-name="N" unicode="N" horiz-adv-x="751" 
d="M605 -9l-448 604.001v-469c0 -22.667 0.833008 -40.667 2.5 -54s4.16699 -22 7.5 -26c4 -4 11.833 -7.5 23.5 -10.5s27.5 -5.16699 47.5 -6.5l9 1v-30h-226v30h9c20 0.666992 35.833 2.5 47.5 5.5s19.5 6.5 23.5 10.5c3.33301 4 5.83301 12.667 7.5 26s2.5 31 2.5 53v471
c0 21.333 -0.833008 38.666 -2.5 51.999s-4.16699 22 -7.5 26c-4 4 -11.833 7.5 -23.5 10.5s-27.5 4.83301 -47.5 5.5l-10 2v30h163l412 -561v435c0 21.333 -0.833008 38.5 -2.5 51.5s-4.5 21.833 -8.5 26.5c-3.33301 4 -11 7.5 -23 10.5s-27.667 4.83301 -47 5.5l-9 2v30
h225v-30l-9 -1c-20 -1.33301 -35.833 -3.5 -47.5 -6.5s-19.5 -6.5 -23.5 -10.5c-3.33301 -4.66699 -5.83301 -13.5 -7.5 -26.5s-2.5 -30.5 -2.5 -52.5v-604h-35v0z" />
    <glyph glyph-name="O" unicode="O" horiz-adv-x="776" 
d="M388 -18c-52 0 -98.667 8.16699 -140 24.5s-77 41.5 -107 75.5s-52.5 74.167 -67.5 120.5s-22.5 98.833 -22.5 157.5s7.5 111.167 22.5 157.5s37.5 86.5 67.5 120.5c30 33.333 65.667 58.5 107 75.5s88 25.5 140 25.5c52.667 0 99.5 -8.5 140.5 -25.5
s76.5 -42.167 106.5 -75.5c30 -34 52.667 -74.167 68 -120.5s23 -98.833 23 -157.5s-7.66699 -111.167 -23 -157.5s-38 -86.5 -68 -120.5s-65.5 -59.167 -106.5 -75.5s-87.833 -24.5 -140.5 -24.5v0zM388 15c36 -0.666992 68 6.5 96 21.5s52 37.833 72 68.5
c20.667 31.333 36 68 46 110s15 90.333 15 145c0 54 -5 102.167 -15 144.5s-25.333 78.833 -46 109.5c-20 31.333 -44 54.666 -72 69.999s-60 23 -96 23c-35.333 0 -67.166 -7.66699 -95.499 -23s-52.5 -38.666 -72.5 -69.999c-20.667 -30.667 -36 -67.167 -46 -109.5
s-15 -90.5 -15 -144.5c0 -54.667 5 -103 15 -145s25.333 -78.667 46 -110c20 -30.667 44.167 -53.5 72.5 -68.5s60.166 -22.5 95.499 -22.5v1z" />
    <glyph glyph-name="P" unicode="P" horiz-adv-x="572" 
d="M212 301v-175c0 -22 1 -39.667 3 -53s5 -22.333 9 -27s11.833 -8.33398 23.5 -11.001s27.167 -4.66699 46.5 -6l21 1v-30h-295v30h10c19.333 0.666992 35 2.33398 47 5.00098s19.667 6.33398 23 11.001s6 13.5 8 26.5s3 30.5 3 52.5v471c0 21.333 -1 38.5 -3 51.5
s-4.66699 21.833 -8 26.5c-3.33301 4 -11 7.5 -23 10.5s-27.667 4.83301 -47 5.5l-10 2v30h215l72 3l33 1c70 -0.666992 122.667 -17 158 -49s53 -79.667 53 -143c0 -38.667 -6.33301 -72.834 -19 -102.501s-32 -54.167 -58 -73.5
c-25.333 -19.333 -57.333 -33.833 -96 -43.5s-83.667 -14.5 -135 -14.5l-31 1v0zM212 334l37 0.000976562c32.667 -0.666992 61 3.16602 85 11.499s44.333 20.833 61 37.5c16 16.667 28 37.5 36 62.5s12 53.833 12 86.5c0 28 -3 52 -9 72s-15.333 36 -28 48
s-29.167 21 -49.5 27s-44.833 9 -73.5 9l-71 1v-355v0z" />
    <glyph glyph-name="Q" unicode="Q" horiz-adv-x="777" 
d="M503 0c38.667 -22 88.001 -39.999 148.001 -53.999s130.667 -24 212 -30l-122 -61c-40.667 12.667 -84.5 30.167 -131.5 52.5s-97.167 49.5 -150.5 81.5c-12.667 -2 -24.834 -3.66699 -36.501 -5s-23.167 -2 -34.5 -2c-52 0 -98.5 8.16699 -139.5 24.5
s-76.833 41.5 -107.5 75.5c-30 34 -52.5 74.167 -67.5 120.5s-22.5 98.833 -22.5 157.5s7.5 111.167 22.5 157.5s37.5 86.5 67.5 120.5c30 33.333 65.667 58.5 107 75.5s88.333 25.5 141 25.5c52 0 98.5 -8.33301 139.5 -25s76.5 -42 106.5 -76
c30.667 -33.333 53.667 -72.833 69 -118.5s23 -97.167 23 -154.5c0 -48 -4.66699 -91.667 -14 -131s-23.333 -74.333 -42 -105s-42 -56.834 -70 -78.501s-60.667 -38.5 -98 -50.5v0zM618.001 361.001c0 54 -5.16699 102.167 -15.5 144.5s-25.5 78.833 -45.5 109.5
s-44 53.667 -72 69s-60 23 -96 23s-68 -7.66699 -96 -23s-52.333 -38.333 -73 -69c-20 -30.667 -35 -67.167 -45 -109.5s-15 -90.833 -15 -145.5s5 -103.167 15 -145.5s25 -78.833 45 -109.5s44 -53.5 72 -68.5s60.333 -22.5 97 -22.5c36 0 68 7.5 96 22.5
s52 37.833 72 68.5s35.167 67.167 45.5 109.5s15.5 90.833 15.5 145.5v1z" />
    <glyph glyph-name="R" unicode="R" horiz-adv-x="678" 
d="M212 317l0.000976562 -191.002c0 -22.667 1 -40.5 3 -53.5s4.33301 -21.833 7 -26.5c3.33301 -4.66699 10 -8.33398 20 -11.001s23.333 -4.66699 40 -6l9 1v-30h-271v30h10c19.333 0.666992 35 2.33398 47 5.00098s19.667 6.33398 23 11.001s6 13.5 8 26.5s3 30.5 3 52.5
v471c0 21.333 -1 38.5 -3 51.5s-4.66699 21.833 -8 26.5c-3.33301 4 -11 7.5 -23 10.5s-27.667 4.83301 -47 5.5l-10 2v30h174l88 3l39 1c74.667 -0.666992 130.667 -16.167 168 -46.5s56 -76.166 56 -137.499c0 -50.667 -12.5 -92.834 -37.5 -126.501
s-62.167 -59.167 -111.5 -76.5l142 -212c15.333 -23.333 28.166 -41.666 38.499 -54.999s17.833 -22.333 22.5 -27c4.66699 -4 10 -7.16699 16 -9.5s13 -3.83301 21 -4.5c2 -0.666992 5.66699 -1.16699 11 -1.5s12.333 -0.5 21 -0.5l10 1v-30h-184l-197 317h-85v0z
M213.001 350.998h37c63.333 -0.666992 111 14 143 44s48 75.333 48 136c0 28.667 -3 53.167 -9 73.5s-15 36.5 -27 48.5c-12 11.333 -28.167 20 -48.5 26s-44.833 9 -73.5 9l-70 1v-338v0z" />
    <glyph glyph-name="S" unicode="S" horiz-adv-x="541" 
d="M58 14l0.00195312 138.997h51v-8c0.666992 -9.33301 1.16699 -17 1.5 -23s0.5 -11 0.5 -15c0 -12.667 2.66699 -24 8 -34s13.333 -18 24 -24c17.333 -10.667 35.5 -18.667 54.5 -24s38.833 -8 59.5 -8c21.333 0 40.5 3 57.5 9s31.5 15 43.5 27
c12.667 12.667 22 27.5 28 44.5s9 36.167 9 57.5c0 18 -2 34.333 -6 49s-9.66699 27.334 -17 38.001c-8 10.667 -19.667 21.834 -35 33.501s-34.333 23.834 -57 36.501l-51 31c-55.333 30.667 -96.833 63 -124.5 97s-41.5 69.333 -41.5 106c0 28 5 53.5 15 76.5
s25 43.833 45 62.5c20 18 42.5 31.5 67.5 40.5s52.5 13.5 82.5 13.5c13.333 0 27 -0.5 41 -1.5s28.667 -2.83301 44 -5.5s31.166 -6 47.499 -10s33.166 -8.66699 50.499 -14v-127h-55v8c-0.666992 8.66699 -1.16699 16.167 -1.5 22.5s-0.5 11.5 -0.5 15.5
c0 13.333 -2.5 25 -7.5 35s-12.167 18.333 -21.5 25c-10 6.66699 -22.667 11.667 -38 15s-33.333 5 -54 5c-17.333 0 -33 -3 -47 -9s-26.667 -14.667 -38 -26c-10.667 -11.333 -18.667 -24.5 -24 -39.5s-8 -31.833 -8 -50.5c0 -16 1.83301 -30.667 5.5 -44
s9.16699 -25.333 16.5 -36c7.33301 -10 17.833 -20.333 31.5 -31s30.167 -21.667 49.5 -33l51 -28c35.333 -21.333 65 -40.666 89 -57.999s42.333 -33.666 55 -48.999c12 -14.667 21.167 -31.5 27.5 -50.5s9.5 -39.833 9.5 -62.5c0 -30 -5.5 -57.5 -16.5 -82.5
s-27.833 -47.5 -50.5 -67.5s-48 -34.667 -76 -44s-58.667 -14 -92 -14c-19.333 0 -38 0.666992 -56 2s-35.667 3.66602 -53 6.99902c-16.667 2.66699 -33 5.66699 -49 9s-31 7.66602 -45 12.999v1z" />
    <glyph glyph-name="T" unicode="T" horiz-adv-x="662" 
d="M279 683l-115 0.000976562c-13.333 -0.666992 -26 -1.33398 -38 -2.00098s-23 -1.66699 -33 -3c-6.66699 -0.666992 -11.667 -4 -15 -10s-5 -14.667 -5 -26v-12v-11c-0.666992 -4 -1 -7.5 -1 -10.5v-9.5v-9h-52v132h621v-132h-51l-1 10
c-0.666992 5.33301 -1 11.5 -1 18.5v23.5c0 11.333 -1.66699 20 -5 26s-8.33301 9.33301 -15 10c-10 1.33301 -20.833 2.33301 -32.5 3s-24.167 1 -37.5 1l-116 1v-557c0 -22 1 -39.667 3 -53s5 -22.333 9 -27c3.33301 -4.66699 11 -8.33398 23 -11.001
s27.333 -4.66699 46 -6l21 1v-30h-307v30h21c19.333 0.666992 34.833 2.33398 46.5 5.00098s19.5 6.33398 23.5 11.001c3.33301 4.66699 6 13.667 8 27s3 30.666 3 51.999v558v0z" />
    <glyph glyph-name="U" unicode="U" horiz-adv-x="718" 
d="M7 692v29.999h285v-30l-9 -1c-20 -1.33301 -35.833 -3.5 -47.5 -6.5s-19.5 -6.5 -23.5 -10.5c-3.33301 -4 -5.83301 -12.667 -7.5 -26s-2.5 -31 -2.5 -53v-308c0 -38 0.5 -69.333 1.5 -94s2.5 -42.667 4.5 -54c1.33301 -11.333 4.5 -22.333 9.5 -33
s11.5 -21.334 19.5 -32.001c15.333 -20.667 34.833 -36 58.5 -46s51.167 -15 82.5 -15c29.333 0 55.833 4.33301 79.5 13s44.5 22 62.5 40c10 10.667 18.333 21.5 25 32.5s11.334 22.5 14.001 34.5c3.33301 12.667 5.66602 29.834 6.99902 51.501s2 48.167 2 79.5v332
c0 21.333 -1 38.5 -3 51.5s-4.66699 21.833 -8 26.5c-3.33301 4 -11 7.5 -23 10.5s-28 4.83301 -48 5.5l-8 2v30h231v-30l-9 -1c-20 -1.33301 -36 -3.5 -48 -6.5s-19.667 -6.5 -23 -10.5s-5.83301 -12.667 -7.5 -26s-2.5 -31 -2.5 -53v-302c0 -34 -1 -63.333 -3 -88
s-5 -45 -9 -61c-3.33301 -15.333 -8.83301 -30.333 -16.5 -45s-17.167 -28.667 -28.5 -42c-20.667 -25.333 -47.5 -44.166 -80.5 -56.499s-71.5 -18.5 -115.5 -18.5c-89.333 0 -156.333 23.833 -201 71.5s-67 119.5 -67 215.5v327c0 21.333 -1 38.5 -3 51.5
s-4.66699 21.833 -8 26.5c-4 4 -11.833 7.5 -23.5 10.5s-27.167 4.83301 -46.5 5.5l-10 2v0z" />
    <glyph glyph-name="V" unicode="V" horiz-adv-x="698" 
d="M341 -9l-246.998 602.002c-10.667 24 -19.5 43 -26.5 57s-12.167 23 -15.5 27c-2.66699 4 -7.5 7 -14.5 9s-16.167 3.33301 -27.5 4l-10 2v30h262v-30h-11c-24.667 -0.666992 -43.334 -2.66699 -56.001 -6s-19 -8 -19 -14c0 -2.66699 2.33301 -10.667 7 -24
s12 -32 22 -56l187 -454l176 456c2 4 3.83301 8 5.5 12s3.16699 8 4.5 12c5.33301 13.333 9.16602 24.333 11.499 33s3.5 15 3.5 19c0 7.33301 -6 12.666 -18 15.999s-29.667 5 -53 5l-10 1v30h186v-30l-11 -1c-10.667 -1.33301 -19.5 -2.83301 -26.5 -4.5
s-11.833 -4.16699 -14.5 -7.5c-2.66699 -2.66699 -7.16699 -11.334 -13.5 -26.001s-14.5 -34.667 -24.5 -60l-233 -602h-34v0z" />
    <glyph glyph-name="W" unicode="W" horiz-adv-x="924" 
d="M246 -9l-154.999 602.001c-6.66699 26.667 -12.5 47.667 -17.5 63s-8.5 24.333 -10.5 27s-7.5 4.5 -16.5 5.5s-21.167 1.5 -36.5 1.5l-10 2v30h258v-30h-9c-16 -0.666992 -29 -1.33398 -39 -2.00098s-17 -2 -21 -4c-4.66699 -1.33301 -8 -3.83301 -10 -7.5
s-3 -8.5 -3 -14.5c0 -5.33301 1.16699 -14 3.5 -26s5.83301 -27.333 10.5 -46l107 -420l167 541h34l167 -556l125 435c7.33301 24 12.666 43 15.999 57s5 22.333 5 25c0 5.33301 -6.5 9.5 -19.5 12.5s-32.167 4.5 -57.5 4.5l-8 1v30h198v-30l-8 -1
c-17.333 -1.33301 -31 -2.83301 -41 -4.5s-15.667 -3.5 -17 -5.5c-2 -2 -5.5 -10.5 -10.5 -25.5l-20.5 -63.5l-177 -601h-33l-170 555l-168 -555h-33v0z" />
    <glyph glyph-name="X" unicode="X" horiz-adv-x="656" 
d="M276 355l-144.002 241l-39 61.5c-9.33301 14.333 -15 22.5 -17 24.5c-2.66699 2 -8.5 3.66699 -17.5 5s-21.5 2.33301 -37.5 3l-9 2v30h279v-30h-8c-24 -0.666992 -41.833 -2.16699 -53.5 -4.5s-17.5 -5.5 -17.5 -9.5s3.33301 -12.833 10 -26.5s17 -32.167 31 -55.5
l105 -177l122 178c15.333 22 27 40 35 54s12 23.333 12 28c0 4 -4.66699 7 -14 9s-23 3 -41 3l-9 1v30h181v-30l-11 -1c-10.667 -1.33301 -19.667 -2.83301 -27 -4.5s-12.666 -4.16699 -15.999 -7.5c-3.33301 -2.66699 -10.5 -11 -21.5 -25l-43.5 -58l-141 -199l158 -270
c16 -26.667 28.667 -47.167 38 -61.5s15.333 -22.833 18 -25.5s8 -4.83398 16 -6.50098s18.667 -3.16699 32 -4.5l10 1v-30h-271v30h8c23.333 -0.666992 41 0.333008 53 3s18.333 6.66699 19 12c0 3.33301 -3.33301 11.666 -10 24.999s-17 31.666 -31 54.999l-120 205
l-139 -203c-16 -23.333 -27.833 -41.666 -35.5 -54.999s-11.5 -22 -11.5 -26c0 -6 5.83301 -10.333 17.5 -13s28.834 -4 51.501 -4l11 1v-30h-198v30h6c15.333 0.666992 27.5 1.83398 36.5 3.50098s14.833 3.83398 17.5 6.50098c2.66699 2 9.16699 10.167 19.5 24.5
l42.5 61.5l154 229v0z" />
    <glyph glyph-name="Y" unicode="Y" horiz-adv-x="677" 
d="M283 320l-165.001 273.001l-41 64.5l-17 25.5c-2 2 -7.16699 3.5 -15.5 4.5s-20.166 1.83301 -35.499 2.5l-9 2v30h280v-30h-10c-22.667 -0.666992 -40 -2.33398 -52 -5.00098s-18 -6.66699 -18 -12v-0.5v-1.5c0 -5.33301 3.33301 -14.666 10 -27.999s16.667 -31 30 -53
l135 -227l141 227c14 22 24.5 40 31.5 54s10.5 23.667 10.5 29s-5.66699 9.33301 -17 12s-28.333 4 -51 4l-9 1v30h196v-30l-9 -1c-16 -1.33301 -28.5 -2.83301 -37.5 -4.5s-14.833 -3.5 -17.5 -5.5c-2.66699 -2.66699 -8.83398 -11.334 -18.501 -26.001l-40.5 -63
l-169 -272v-194c0 -22.667 1 -40.667 3 -54s4.66699 -22 8 -26s10.833 -7.5 22.5 -10.5s27.5 -5.16699 47.5 -6.5l10 1v-30h-284v30h9c20.667 0.666992 36.834 2.5 48.501 5.5s19.167 6.5 22.5 10.5s6 12.667 8 26s3 31 3 53v195v0z" />
    <glyph glyph-name="Z" unicode="Z" horiz-adv-x="632" 
d="M55 0v38.999l388 644h-220c-21.333 -0.666992 -38.5 -1.5 -51.5 -2.5s-22.167 -2.5 -27.5 -4.5s-9.33301 -5.66699 -12 -11s-4 -12.333 -4 -21v-11v-12c-0.666992 -4.66699 -1 -9.66699 -1 -15v-17l-1 -11h-54v144h486v-33l-386 -644h219
c30 -0.666992 53.5 -0.333984 70.5 0.999023s27.167 3.33301 30.5 6c4 2.66699 7.16699 10.334 9.5 23.001s3.83301 30.334 4.5 53.001l1 10h55v-138h-507v0z" />
    <glyph glyph-name="bracketleft" unicode="[" horiz-adv-x="316" 
d="M84 -144v914h193v-30h-109v-854h109v-30h-193v0z" />
    <glyph glyph-name="backslash" unicode="\" horiz-adv-x="512" 
d="M449 -144l-447 914h60l447 -914h-60v0z" />
    <glyph glyph-name="bracketright" unicode="]" horiz-adv-x="316" 
d="M231 770v-914h-192v30h108v854h-108v30h192v0z" />
    <glyph glyph-name="asciicircum" unicode="^" horiz-adv-x="608" 
d="M39 192l265 530l265 -530h-62l-203 405l-203 -405h-62v0z" />
    <glyph glyph-name="underscore" unicode="_" 
d="M48 -63v63h404v-63h-404v0z" />
    <glyph glyph-name="grave" unicode="`" horiz-adv-x="602" 
d="M179 770h111l105 -144h-44l-172 144v0z" />
    <glyph glyph-name="a" unicode="a" horiz-adv-x="542" 
d="M375 72c-28.667 -28.667 -56.998 -49.835 -84.998 -63.502s-56 -20.5 -84 -20.5c-22.667 0 -43.334 3.33301 -62.001 10s-35.667 17 -51 31c-14.667 14.667 -25.834 30.834 -33.501 48.501s-11.5 37.167 -11.5 58.5c0 25.333 4.83301 48 14.5 68s24.5 38 44.5 54
c22 18 52 31.5 90 40.5s83.333 13.5 136 13.5l21 1v66c0 40.667 -8 71.5 -24 92.5s-40 31.5 -72 31.5c-14.667 0 -28.5 -2.16699 -41.5 -6.5s-25.167 -11.166 -36.5 -20.499c-6.66699 -6 -12.167 -14.5 -16.5 -25.5s-7.5 -25.167 -9.5 -42.5v-8h-66v97
c34 14 66.833 24.667 98.5 32s61.834 11 90.501 11c57.333 0 100.5 -13.167 129.5 -39.5s43.5 -65.833 43.5 -118.5v-236c0 -21.333 0.833008 -39.5 2.5 -54.5s4.5 -26.833 8.5 -35.5c3.33301 -8.66699 8.33301 -15.167 15 -19.5s14.334 -6.5 23.001 -6.5
c3.33301 0 7.16602 0.333008 11.499 1s9.16602 2 14.499 4l3 -35c-12 -4 -23 -7 -33 -9s-19.667 -3 -29 -3c-24 0 -43.5 6.83301 -58.5 20.5s-25.833 34.5 -32.5 62.5v1zM354.002 82.999v199.999h-23c-28.667 -0.666992 -54 -4 -76 -10s-41 -14.667 -57 -26
c-16 -12 -28 -26 -36 -42s-12 -34.333 -12 -55c0 -15.333 2.5 -29.333 7.5 -42s12.5 -24 22.5 -34s21.167 -17.667 33.5 -23s25.833 -8 40.5 -8c14 0 29.333 3.33301 46 10s34.667 16.334 54 29.001v1z" />
    <glyph glyph-name="b" unicode="b" horiz-adv-x="611" 
d="M78 -5l0.00195312 649c0 21.333 -1 38.5 -3 51.5s-4.66699 21.833 -8 26.5c-4 4.66699 -11.667 8.33398 -23 11.001s-26.333 4.66699 -45 6l-11 1v30h186v-340c12 18 24.833 34 38.5 48s28.5 25.667 44.5 35c15.333 9.33301 31.666 16.166 48.999 20.499
s35.333 6.5 54 6.5c30 0 57 -5.83301 81 -17.5s44.667 -29.167 62 -52.5c18 -24 31.5 -51.833 40.5 -83.5s13.5 -67.5 13.5 -107.5c0 -44 -5.16699 -83.667 -15.5 -119s-25.5 -66.666 -45.5 -93.999c-20.667 -26.667 -44.5 -46.334 -71.5 -59.001s-57.5 -19 -91.5 -19
c-14.667 0 -29.334 1.5 -44.001 4.5s-28.667 6.83301 -42 11.5c-13.333 6 -26 13.5 -38 22.5s-23.667 19.833 -35 32.5l-6 1l-12 -65h-78v0zM174.002 98c13.333 -10 26.1689 -18.498 38.502 -25.498s24.5 -13.167 36.5 -18.5c12 -4.66699 24 -8.16699 36 -10.5
s24 -3.5 36 -3.5c22 0 41.5 4.5 58.5 13.5s30.833 22.167 41.5 39.5c11.333 18 19.666 40.333 24.999 67s8 57.667 8 93c0 37.333 -2.66699 70.166 -8 98.499s-13.333 51.833 -24 70.5c-10.667 19.333 -24.167 33.5 -40.5 42.5s-35.166 13.5 -56.499 13.5
c-14.667 0 -28.667 -1.5 -42 -4.5s-26.333 -8.16699 -39 -15.5c-12.667 -6.66699 -24.834 -15.334 -36.501 -26.001s-22.834 -23 -33.501 -37v-297v0z" />
    <glyph glyph-name="c" unicode="c" horiz-adv-x="508" 
d="M458 18c-26 -10.667 -51.333 -18.335 -76 -23.002s-49 -7 -73 -7c-38.667 0 -73.834 6.16699 -105.501 18.5s-59.5 31.5 -83.5 57.5s-42 55.833 -54 89.5s-18 71.167 -18 112.5s5.83301 78.833 17.5 112.5s28.834 62.834 51.501 87.501c23.333 25.333 50.5 44 81.5 56
s65.833 18 104.5 18c19.333 0 42 -2 68 -6s55 -9.66699 87 -17v-126h-61v9c0 35.333 -8 62.166 -24 80.499s-40 27.5 -72 27.5c-23.333 0 -44.333 -5.16699 -63 -15.5s-34.667 -26.166 -48 -47.499c-14 -21.333 -24.5 -46.333 -31.5 -75s-10.5 -61 -10.5 -97
c0 -36.667 4.16699 -69.667 12.5 -99s20.5 -54.666 36.5 -75.999c16.667 -21.333 36 -37.333 58 -48s47 -16 75 -16c24 0 46.667 2 68 6s41.333 10.333 60 19v-41v0z" />
    <glyph glyph-name="d" unicode="d" horiz-adv-x="641" 
d="M436 0l0.000976562 99.001c-11.333 -19.333 -24 -36 -38 -50s-28.667 -25.667 -44 -35c-15.333 -8.66699 -31.666 -15.167 -48.999 -19.5s-35.666 -6.5 -54.999 -6.5c-30 0 -57 5.66699 -81 17s-44.667 28.666 -62 51.999c-18 24 -31.333 51.833 -40 83.5
s-13 67.5 -13 107.5c0 44.667 5 84.667 15 120s25.333 66.333 46 93c20 26.667 43.5 46.5 70.5 59.5s57.5 19.5 91.5 19.5c15.333 0 30.166 -1.5 44.499 -4.5s28.166 -7.5 41.499 -13.5s26.166 -13.5 38.499 -22.5s23.833 -19.5 34.5 -31.5v176
c0 22 -0.833008 39.5 -2.5 52.5s-4.16699 21.5 -7.5 25.5c-3.33301 4.66699 -11 8.33398 -23 11.001s-28 4.66699 -48 6l-9 1v30h187v-644c0 -22.667 0.833008 -40.667 2.5 -54s4.16699 -22 7.5 -26c3.33301 -4.66699 11 -8.33398 23 -11.001s28 -4.66699 48 -6l9 1v-30
h-187v0zM436.001 432.001c-12.667 8.66699 -25.165 16.499 -37.498 23.499s-24.5 12.833 -36.5 17.5c-12.667 4.66699 -25 8.16699 -37 10.5s-23.667 3.5 -35 3.5c-22.667 0 -42.334 -4.5 -59.001 -13.5s-30.667 -22.167 -42 -39.5c-10.667 -18 -18.834 -40.333 -24.501 -67
s-8.5 -57.667 -8.5 -93c0 -37.333 2.66699 -70 8 -98s13.333 -51.667 24 -71c11.333 -18.667 25 -32.667 41 -42s35 -14 57 -14c14.667 0 28.667 1.83301 42 5.5s26.333 8.83398 39 15.501s24.667 15.167 36 25.5s22.333 22.5 33 36.5v300v0z" />
    <glyph glyph-name="e" unicode="e" horiz-adv-x="529" 
d="M478 23c-30.667 -12 -59.832 -20.833 -87.499 -26.5s-54.167 -8.5 -79.5 -8.5c-38.667 0 -73.834 6.16699 -105.501 18.5s-59.834 31.833 -84.501 58.5c-24.667 26 -43 56 -55 90s-18 72 -18 114c0 39.333 5.5 75.5 16.5 108.5s27.167 61.833 48.5 86.5
c22 25.333 47 44.333 75 57s59 19 93 19c31.333 0 59.333 -5.16699 84 -15.5s45.334 -26.166 62.001 -47.499c17.333 -21.333 30.166 -47.333 38.499 -78s12.5 -65.667 12.5 -105v-8h-324c0 -42 3.66699 -78.5 11 -109.5s18 -57.167 32 -78.5
c14.667 -20.667 32.667 -36.334 54 -47.001s46.333 -16 75 -16c29.333 0 56.833 3 82.5 9s48.834 15.333 69.501 28v-49v0zM156.002 316h220v21c0 30.667 -2 57 -6 79s-9.66699 40 -17 54c-8 13.333 -18.5 23.5 -31.5 30.5s-28.833 10.5 -47.5 10.5
c-18 0 -34 -4.5 -48 -13.5s-26.667 -22.5 -38 -40.5c-10.667 -17.333 -18.667 -38 -24 -62s-8 -50.667 -8 -80v1z" />
    <glyph glyph-name="f" unicode="f" horiz-adv-x="403" 
d="M120 487l-78.001 -0.00390625v43h78v25c0 40 3.33301 74.5 10 103.5s16.334 52.167 29.001 69.5c13.333 18 30.5 31.5 51.5 40.5s46.167 13.5 75.5 13.5c22.667 0 44.834 -3 66.501 -9s42.834 -15 63.501 -27v-114h-61l-1 9c-0.666992 8.66699 -1 16.834 -1 24.501v20.5
c0 21.333 -6 37.333 -18 48s-29.667 16 -53 16c-12.667 0 -23.334 -2.33301 -32.001 -7s-15.334 -11.667 -20.001 -21s-8.16699 -23.166 -10.5 -41.499s-3.5 -41.166 -3.5 -68.499v-82h133v-40h-133v-364c0 -22.667 1 -40.5 3 -53.5s5 -21.833 9 -26.5
s12.333 -8.33398 25 -11.001s29.667 -4.66699 51 -6l15 1v-30h-289v30h9c19.333 0.666992 35 2.33398 47 5.00098s19.667 6.33398 23 11.001s6 13.5 8 26.5s3 30.5 3 52.5v362v0z" />
    <glyph glyph-name="g" unicode="g" horiz-adv-x="570" 
d="M138 20c-18.667 7.33301 -32.501 16.8281 -41.501 28.4951s-13.5 24.834 -13.5 39.501c0 8.66699 1.83301 17 5.5 25s9.5 16 17.5 24c5.33301 6 11.333 11.5 18 16.5s14.334 10.167 23.001 15.5c4 2.66699 8.33301 5.33398 13 8.00098s9.66699 5.33398 15 8.00098
c-18 7.33301 -33.667 16.666 -47 27.999s-24.666 24 -33.999 38c-8.66699 14 -15.334 29.667 -20.001 47s-7 36 -7 56c0 28.667 4.66699 54.334 14 77.001s23 42.334 41 59.001c18 17.333 39.167 30 63.5 38s51.833 12 82.5 12c18 0 35.5 -1.66699 52.5 -5
s32.833 -8.33301 47.5 -15l186 16l-24 -59l-128 21c21.333 -21.333 37.166 -43.666 47.499 -66.999s15.5 -48.666 15.5 -75.999c0 -26.667 -4.5 -51.334 -13.5 -74.001s-22.833 -43 -41.5 -61c-18.667 -17.333 -39.5 -30.5 -62.5 -39.5s-48.833 -13.5 -77.5 -13.5
c-10.667 0 -21.667 0.833008 -33 2.5s-23 4.16699 -35 7.5c-6 -4.66699 -11 -9.16699 -15 -13.5s-7.66699 -9.16602 -11 -14.499c-2.66699 -4.66699 -4.83398 -9.66699 -6.50098 -15s-2.5 -10.666 -2.5 -15.999c0 -12 5 -20.833 15 -26.5s25.333 -8.5 46 -8.5l84 1
c40.667 -0.666992 75 -3.16699 103 -7.5s49.667 -10.833 65 -19.5s26.833 -20.667 34.5 -36s11.5 -34 11.5 -56c0 -25.333 -5.66699 -48.333 -17 -69s-28.666 -38.667 -51.999 -54s-50.333 -26.833 -81 -34.5s-65 -11.5 -103 -11.5c-36.667 0 -69.5 2.5 -98.5 7.5
s-54.5 12.833 -76.5 23.5c-22.667 10.667 -39.5 22.667 -50.5 36s-16.5 28.666 -16.5 45.999c0 10.667 2.33301 21.167 7 31.5s11.334 20.166 20.001 29.499c9.33301 9.33301 20.5 18 33.5 26s28.5 15.667 46.5 23v1zM162.999 11.9951c-6 -6.66699 -11.168 -13 -15.501 -19
s-8.16602 -12.667 -11.499 -20c-2.66699 -7.33301 -4.83398 -15 -6.50098 -23s-2.5 -16.333 -2.5 -25c0 -16.667 3 -31.167 9 -43.5s15.333 -22.833 28 -31.5s28.334 -15 47.001 -19s40.334 -6 65.001 -6c24 0 45.5 2.5 64.5 7.5s35.5 12.833 49.5 23.5s24.5 23 31.5 37
s10.5 29.667 10.5 47c0 12.667 -2 23.5 -6 32.5s-10.333 16.5 -19 22.5c-8.66699 4.66699 -19.334 8.5 -32.001 11.5s-27.667 4.5 -45 4.5l-167 1v0zM163.998 358.995c0 -27.333 2.00098 -51.001 6.00098 -71.001s10.333 -36.667 19 -50
c9.33301 -13.333 20.333 -23.5 33 -30.5s27.667 -10.5 45 -10.5s32.166 3.5 44.499 10.5s22.833 16.833 31.5 29.5c8.66699 13.333 15.167 30 19.5 50s6.5 43.333 6.5 70c0 51.333 -8.5 89.833 -25.5 115.5s-42.5 38.5 -76.5 38.5c-16.667 0 -31.5 -3.16699 -44.5 -9.5
s-24.167 -15.833 -33.5 -28.5c-8.66699 -12.667 -15 -28.667 -19 -48s-6 -41.666 -6 -66.999v1z" />
    <glyph glyph-name="h" unicode="h" horiz-adv-x="632" 
d="M204 430c12.667 18 25.9961 33.9961 39.9961 47.9961s29 25.667 45 35c15.333 9.33301 32 16.166 50 20.499s36.667 6.5 56 6.5c23.333 0 44 -3.66699 62 -11s33.333 -18.333 46 -33s22.167 -32.5 28.5 -53.5s9.5 -44.5 9.5 -70.5v-246
c1.33301 -25.333 3 -44.666 5 -57.999s4.33301 -21.666 7 -24.999c2.66699 -2.66699 9.83398 -5.33398 21.501 -8.00098s27.834 -4.66699 48.501 -6l9 1v-30h-277v30h9c20.667 0.666992 36.834 2.33398 48.501 5.00098s18.834 5.33398 21.501 8.00098
c2.66699 3.33301 5 11.666 7 24.999s3.33301 32.333 4 57v233c0 22 -1.5 41 -4.5 57s-7.5 28.333 -13.5 37c-5.33301 9.33301 -13.333 16 -24 20s-23.667 6 -39 6c-10.667 0 -22.167 -1.5 -34.5 -4.5s-25.166 -8.16699 -38.499 -15.5
c-12.667 -6.66699 -26.334 -15.167 -41.001 -25.5s-30 -22.166 -46 -35.499v-271c0 -22.667 1 -40.667 3 -54s4.66699 -22 8 -26c3.33301 -4.66699 11 -8.33398 23 -11.001s28 -4.66699 48 -6l9 1v-30h-277v30h9c19.333 0.666992 35 2.33398 47 5.00098
s19.667 6.33398 23 11.001s6 13.5 8 26.5s3 30.5 3 52.5v519c0 21.333 -1 38.5 -3 51.5s-4.66699 21.833 -8 26.5s-11 8.33398 -23 11.001s-27.667 4.66699 -47 6l-9 1v30h186v-340v0z" />
    <glyph glyph-name="i" unicode="i" horiz-adv-x="307" 
d="M204 530v-404.001c0 -22.667 1 -40.667 3 -54s4.66699 -22 8 -26c3.33301 -4.66699 11 -8.33398 23 -11.001s28 -4.66699 48 -6l9 1v-30h-277v30h9c19.333 0.666992 35 2.33398 47 5.00098s19.667 6.33398 23 11.001s6 13.5 8 26.5s3 30.5 3 52.5v278
c0 21.333 -1 38.5 -3 51.5s-4.66699 21.833 -8 26.5c-3.33301 4 -11 7.5 -23 10.5s-27.667 5.16699 -47 6.5l-9 2v30h186v0zM108 625.999v96h96v-96h-96v0z" />
    <glyph glyph-name="j" unicode="j" horiz-adv-x="346" 
d="M250 530l-0.00195312 -525c0 -34.667 -3.66699 -65 -11 -91s-18.666 -47.667 -33.999 -65c-14.667 -18 -33.167 -31.333 -55.5 -40s-48.166 -13 -77.499 -13c-16 0 -32.833 1.66699 -50.5 5s-36.5 8 -56.5 14l-1 119h54v-9c0 -18.667 1.16699 -34.5 3.5 -47.5
s5.5 -23.167 9.5 -30.5c4.66699 -7.33301 11.167 -12.666 19.5 -15.999s18.166 -5 29.499 -5c15.333 0 27.833 2 37.5 6s16.834 10.333 21.501 19c5.33301 8.66699 9 22.167 11 40.5s3 41.166 3 68.499v443c0 22 -0.833008 39.5 -2.5 52.5s-4.16699 21.5 -7.5 25.5
c-4 4 -11.833 7.5 -23.5 10.5s-27.5 5.16699 -47.5 6.5l-9 2v30h187v0zM152.998 626v96h97v-96h-97v0z" />
    <glyph glyph-name="k" unicode="k" horiz-adv-x="599" 
d="M204 260l-0.00195312 -134.002c0 -22.667 0.833008 -40.5 2.5 -53.5s4.16699 -21.833 7.5 -26.5s10 -8.33398 20 -11.001s23 -4.66699 39 -6l10 1v-30h-265v30h9c19.333 0.666992 35 2.33398 47 5.00098s19.667 6.33398 23 11.001s6 13.5 8 26.5s3 30.5 3 52.5v519
c0 21.333 -1 38.5 -3 51.5s-4.66699 21.833 -8 26.5s-11 8.33398 -23 11.001s-27.667 4.66699 -47 6l-9 1v30h186v-486h23l123 118l59 61.5c13.333 14.333 20 22.5 20 24.5c0 3.33301 -2.16699 5.66602 -6.5 6.99902s-11.166 2.33301 -20.499 3h-12.5
c-3.66699 0 -7.16699 0.333008 -10.5 1h-7.5h-6.5l-10 1v30h207v-30l-10 -1c-16.667 -1.33301 -30.5 -3 -41.5 -5s-19.167 -4.66699 -24.5 -8c-4.66699 -2.66699 -14.667 -11.334 -30 -26.001l-61 -60l-93 -90l159 -187c20 -23.333 36.5 -41.666 49.5 -54.999
s21.833 -21.666 26.5 -24.999c5.33301 -4 12.333 -7 21 -9s19.334 -3.66699 32.001 -5l10 1v-30h-149l-224 260h-23v0z" />
    <glyph glyph-name="l" unicode="l" horiz-adv-x="313" 
d="M204 770v-644.002c0 -22.667 1 -40.667 3 -54s4.66699 -22 8 -26c3.33301 -4.66699 11 -8.33398 23 -11.001s28 -4.66699 48 -6l9 1v-30h-277v30h9c19.333 0.666992 35 2.33398 47 5.00098s19.667 6.33398 23 11.001s6 13.5 8 26.5s3 30.5 3 52.5v519
c0 21.333 -1 38.5 -3 51.5s-4.66699 21.833 -8 26.5s-11 8.33398 -23 11.001s-27.667 4.66699 -47 6l-9 1v30h186v0z" />
    <glyph glyph-name="m" unicode="m" horiz-adv-x="945" 
d="M204 430c14 18 28.3301 33.9941 42.9971 47.9941s29.667 25.667 45 35s30.833 16.166 46.5 20.499s31.834 6.5 48.501 6.5c19.333 0 36.833 -2.16699 52.5 -6.5s28.834 -11.166 39.501 -20.499c11.333 -9.33301 20.833 -21 28.5 -35s12.834 -30.333 15.501 -49
c8 9.33301 15.833 18 23.5 26s15.5 15.667 23.5 23l23.5 19c7.66699 6 15.5 11.333 23.5 16s16 8.66699 24 12s16 6 24 8c7.33301 2.66699 15 4.5 23 5.5s16 1.5 24 1.5c47.333 0 83 -13 107 -39s36 -65 36 -117v-258c0 -22.667 0.833008 -40.667 2.5 -54
s4.16699 -22 7.5 -26s11 -7.5 23 -10.5s28 -5.16699 48 -6.5l9 1v-30h-277v30h9c20 0.666992 36 2.5 48 5.5s19.667 6.5 23 10.5s5.83301 12.667 7.5 26s2.5 31 2.5 53v243c0 20.667 -1.33301 38.167 -4 52.5s-6.66699 25.5 -12 33.5s-12.833 14 -22.5 18s-21.5 6 -35.5 6
c-12 0 -24 -1.66699 -36 -5s-24.667 -8.66602 -38 -15.999c-12.667 -6.66699 -25.667 -15.167 -39 -25.5s-27 -22.166 -41 -35.499v-270c0 -22.667 0.833008 -40.5 2.5 -53.5s4.5 -21.833 8.5 -26.5c3.33301 -4.66699 10.833 -8.33398 22.5 -11.001s27.5 -4.66699 47.5 -6
l9 1v-30h-277v30h9c20 0.666992 36 2.33398 48 5.00098s19.667 6.33398 23 11.001c3.33301 4 5.83301 12.667 7.5 26s2.5 31 2.5 53v243c0 20 -1.33301 37.167 -4 51.5s-6.66699 25.5 -12 33.5c-5.33301 8.66699 -12.833 15 -22.5 19s-21.167 6 -34.5 6
c-12.667 0 -25.334 -1.66699 -38.001 -5s-25.667 -8.66602 -39 -15.999c-12.667 -6.66699 -25.667 -15.167 -39 -25.5s-26.666 -22.166 -39.999 -35.499v-270c0 -22.667 1 -40.667 3 -54s4.66699 -22 8 -26c3.33301 -4.66699 11 -8.33398 23 -11.001s28 -4.66699 48 -6l9 1
v-30h-277v30h9c19.333 0.666992 35 2.33398 47 5.00098s19.667 6.33398 23 11.001s6 13.5 8 26.5s3 30.5 3 52.5v278c0 21.333 -1 38.5 -3 51.5s-4.66699 21.833 -8 26.5c-3.33301 4 -11 7.5 -23 10.5s-27.667 5.16699 -47 6.5l-9 2v30h186v-100v0z" />
    <glyph glyph-name="n" unicode="n" horiz-adv-x="632" 
d="M204 430c12.667 18 25.9961 33.9971 39.9961 47.9971s29 25.667 45 35c15.333 9.33301 32 16.166 50 20.499s36.667 6.5 56 6.5c23.333 0 44 -3.66699 62 -11s33.333 -18.333 46 -33s22.167 -32.5 28.5 -53.5s9.5 -44.5 9.5 -70.5v-246
c1.33301 -25.333 3 -44.666 5 -57.999s4.33301 -21.666 7 -24.999c2.66699 -2.66699 9.83398 -5.33398 21.501 -8.00098s27.834 -4.66699 48.501 -6l9 1v-30h-277v30h9c20.667 0.666992 36.834 2.33398 48.501 5.00098s18.834 5.33398 21.501 8.00098
c2.66699 3.33301 5 11.666 7 24.999s3.33301 32.333 4 57v233c0 22 -1.5 41 -4.5 57s-7.5 28.333 -13.5 37c-5.33301 9.33301 -13.333 16 -24 20s-23.667 6 -39 6c-10.667 0 -22.167 -1.5 -34.5 -4.5s-25.166 -8.16699 -38.499 -15.5
c-12.667 -6.66699 -26.334 -15.167 -41.001 -25.5s-30 -22.166 -46 -35.499v-271c0 -22.667 1 -40.667 3 -54s4.66699 -22 8 -26c3.33301 -4.66699 11 -8.33398 23 -11.001s28 -4.66699 48 -6l9 1v-30h-277v30h9c19.333 0.666992 35 2.33398 47 5.00098
s19.667 6.33398 23 11.001s6 13.5 8 26.5s3 30.5 3 52.5v278c0 21.333 -1 38.5 -3 51.5s-4.66699 21.833 -8 26.5c-3.33301 4 -11 7.5 -23 10.5s-27.667 5.16699 -47 6.5l-9 2v30h186v-100v0z" />
    <glyph glyph-name="o" unicode="o" horiz-adv-x="602" 
d="M301 -12c-38.667 0 -73.5 6 -104.5 18s-57.833 30.333 -80.5 55s-39.667 54 -51 88s-17 72.333 -17 115s5.66699 80.834 17 114.501s28.333 62.834 51 87.501c22.667 25.333 49.5 44 80.5 56s65.833 18 104.5 18c39.333 0 74.333 -6 105 -18s57.334 -30.667 80.001 -56
c22.667 -24.667 39.667 -53.834 51 -87.501s17 -71.834 17 -114.501s-5.66699 -81 -17 -115s-28.333 -63.333 -51 -88s-49.334 -43 -80.001 -55s-65.667 -18 -105 -18v0zM301 18c21.333 -0.666992 40.999 4.83301 58.999 16.5s34.333 29.167 49 52.5
c14 23.333 24.667 49.666 32 78.999s11 62 11 98c0 35.333 -3.66699 67.666 -11 96.999s-18 55.666 -32 78.999c-14.667 23.333 -31 41 -49 53s-37.667 18 -59 18s-41 -6 -59 -18s-34.333 -29.667 -49 -53c-14 -23.333 -24.667 -49.666 -32 -78.999s-11 -61.666 -11 -96.999
c0 -36 3.66699 -68.667 11 -98s18 -55.666 32 -78.999c14.667 -23.333 30.834 -40.833 48.501 -52.5s37.5 -17.5 59.5 -17.5v1z" />
    <glyph glyph-name="p" unicode="p" horiz-adv-x="641" 
d="M204 60l-0.00195312 -125.999c0 -22 1 -39.5 3 -52.5s4.66699 -21.833 8 -26.5c3.33301 -4 11 -7.5 23 -10.5s28 -5.16699 48 -6.5h9v-30h-277v30h9c19.333 1.33301 35 3.5 47 6.5s19.667 6.5 23 10.5c3.33301 4.66699 6 13.5 8 26.5s3 30.5 3 52.5v469
c0 21.333 -1 38.5 -3 51.5s-4.66699 21.833 -8 26.5c-3.33301 4 -11 7.5 -23 10.5s-27.667 5.16699 -47 6.5l-9 2v30h186v-100c12 18 25 34 39 48s28.667 25.667 44 35s31.833 16.166 49.5 20.499s35.834 6.5 54.501 6.5c30 0 56.833 -5.83301 80.5 -17.5
s44.5 -29.167 62.5 -52.5c17.333 -24 30.5 -51.833 39.5 -83.5s13.5 -67.5 13.5 -107.5c0 -44 -5 -83.667 -15 -119s-25.333 -66.666 -46 -93.999c-20.667 -26.667 -44.5 -46.334 -71.5 -59.001s-57.167 -19 -90.5 -19c-15.333 0 -30.333 1.5 -45 4.5
s-28.667 6.83301 -42 11.5c-12.667 6 -25.167 13.5 -37.5 22.5s-24.166 19.833 -35.499 32.5v1zM203.998 98.001c13.333 -10 26.1641 -18.498 38.4971 -25.498s24.5 -13.167 36.5 -18.5c12.667 -4.66699 25 -8.16699 37 -10.5s23.667 -3.5 35 -3.5
c22.667 0 42.334 4.5 59.001 13.5s30.334 22.167 41.001 39.5c11.333 18 19.666 40.333 24.999 67s8 57.667 8 93c0 37.333 -2.5 70.166 -7.5 98.499s-13.167 51.833 -24.5 70.5c-10.667 19.333 -24.167 33.5 -40.5 42.5s-35.166 13.5 -56.499 13.5
c-14.667 0 -28.667 -1.5 -42 -4.5s-26.333 -8.16699 -39 -15.5c-12.667 -6.66699 -24.667 -15.334 -36 -26.001s-22.666 -23 -33.999 -37v-297v0z" />
    <glyph glyph-name="q" unicode="q" horiz-adv-x="617" 
d="M436 99c-11.333 -19.333 -23.999 -35.999 -37.999 -49.999s-28.667 -25.667 -44 -35c-15.333 -8.66699 -31.666 -15.167 -48.999 -19.5s-35.666 -6.5 -54.999 -6.5c-30 0 -57 5.66699 -81 17s-44.667 28.666 -62 51.999c-18 24 -31.333 51.833 -40 83.5
s-13 67.5 -13 107.5c0 44.667 5 84.667 15 120s25.333 66.333 46 93c20 26.667 43.5 46.5 70.5 59.5s57.5 19.5 91.5 19.5c15.333 0 30.166 -1.5 44.499 -4.5s28.166 -7.5 41.499 -13.5s26.166 -13.5 38.499 -22.5s23.833 -19.5 34.5 -31.5v62h97v-596
c0 -22 0.833008 -39.5 2.5 -52.5s4.16699 -21.833 7.5 -26.5c3.33301 -4 11 -7.5 23 -10.5s28 -5.16699 48 -6.5h9v-30h-277v30h9c20 1.33301 36 3.5 48 6.5s19.667 6.5 23 10.5c3.33301 4.66699 5.83301 13.5 7.5 26.5s2.5 30.5 2.5 52.5v165v0zM436.001 432.001
c-12.667 8.66699 -25.167 16.499 -37.5 23.499s-24.5 12.833 -36.5 17.5c-12.667 4.66699 -25 8.16699 -37 10.5s-23.667 3.5 -35 3.5c-22.667 0 -42.334 -4.5 -59.001 -13.5s-30.667 -22.167 -42 -39.5c-10.667 -18 -18.834 -40.333 -24.501 -67s-8.5 -57.667 -8.5 -93
c0 -37.333 2.66699 -70 8 -98s13.333 -51.667 24 -71c11.333 -18.667 25 -32.667 41 -42s35 -14 57 -14c14.667 0 28.834 1.83301 42.501 5.5s26.834 8.83398 39.501 15.501s24.667 15.167 36 25.5s22 22.5 32 36.5v300v0z" />
    <glyph glyph-name="r" unicode="r" horiz-adv-x="439" 
d="M204 385l0.00195312 -259.001c0 -22.667 1 -40.5 3 -53.5s5 -21.833 9 -26.5c3.33301 -4.66699 11 -8.33398 23 -11.001s27.667 -4.66699 47 -6l21 1v-30h-289v30h9c19.333 0.666992 35 2.33398 47 5.00098s19.667 6.33398 23 11.001s6 13.5 8 26.5s3 30.5 3 52.5v278
c0 21.333 -1 38.5 -3 51.5s-4.66699 21.833 -8 26.5c-3.33301 4 -11 7.5 -23 10.5s-27.667 5.16699 -47 6.5l-9 2v30h186v-100c22 36.667 47.333 64.167 76 82.5s60.667 27.5 96 27.5c5.33301 0 10.666 -0.5 15.999 -1.5s11 -2.16699 17 -3.5v-144h-54l-1 9
c-1.33301 14.667 -2.83301 26.5 -4.5 35.5s-3.16699 14.833 -4.5 17.5c-1.33301 3.33301 -3.83301 5.5 -7.5 6.5s-8.5 1.5 -14.5 1.5c-24.667 0 -46.834 -6.5 -66.501 -19.5s-37.167 -32.167 -52.5 -57.5v1z" />
    <glyph glyph-name="s" unicode="s" horiz-adv-x="503" 
d="M67 27l0.000976562 134.999h55l1 -10c2 -24.667 3.83301 -43.834 5.5 -57.501s2.83398 -22.167 3.50098 -25.5c1.33301 -2.66699 4.16602 -6 8.49902 -10s10.166 -8.66699 17.499 -14c14.667 -9.33301 30.167 -16.333 46.5 -21s33.5 -7 51.5 -7
c14.667 0 28 2.16699 40 6.5s22.667 10.833 32 19.5c9.33301 9.33301 16.333 19.666 21 30.999s7 24 7 38c0 12 -1.66699 23 -5 33s-8 18.667 -14 26c-6.66699 7.33301 -15.5 14.166 -26.5 20.499s-24.5 12.833 -40.5 19.5l-49 20c-26.667 9.33301 -49.5 19.833 -68.5 31.5
s-34.5 23.834 -46.5 36.501s-21 26.667 -27 42s-9 32.333 -9 51c0 21.333 4.33301 41 13 59s21.667 34 39 48c17.333 13.333 36.833 23.5 58.5 30.5s45.834 10.5 72.501 10.5c26 0 52.333 -2.5 79 -7.5s54 -12.167 82 -21.5v-126h-55v9
c-0.666992 15.333 -1.66699 28.5 -3 39.5s-2.66602 19.5 -3.99902 25.5c-2 6 -4.33301 11.333 -7 16s-5.66699 8.33398 -9 11.001c-10.667 8 -22.334 14.167 -35.001 18.5s-26.667 6.5 -42 6.5c-14 0 -26.833 -2.16699 -38.5 -6.5s-22.167 -11.166 -31.5 -20.499
c-9.33301 -8.66699 -16.333 -18.834 -21 -30.501s-7 -24.5 -7 -38.5c0 -11.333 1.83301 -21.5 5.5 -30.5s9.5 -17.167 17.5 -24.5c7.33301 -6.66699 18.5 -14.167 33.5 -22.5s33.833 -17.166 56.5 -26.499l45 -17c24.667 -10.667 45.5 -21.167 62.5 -31.5
s30.5 -21.166 40.5 -32.499c9.33301 -10.667 16.5 -23 21.5 -37s7.5 -29.667 7.5 -47c0 -23.333 -4.66699 -44.5 -14 -63.5s-23.333 -36.167 -42 -51.5c-18.667 -14.667 -40.334 -25.5 -65.001 -32.5s-52 -10.5 -82 -10.5c-32 0 -63 3.16699 -93 9.5
s-59.333 15.833 -88 28.5v1z" />
    <glyph glyph-name="t" unicode="t" horiz-adv-x="391" 
d="M352 2c-12.667 -4.66699 -24.6699 -8.1709 -36.0029 -10.5039s-22.666 -3.5 -33.999 -3.5c-28.667 0 -53.167 3.16699 -73.5 9.5s-37.166 16.833 -50.499 31.5c-12.667 14 -22.167 32.333 -28.5 55s-9.5 49.334 -9.5 80.001v326h-79v40h79v96l96 24v-120h148v-40h-148
v-338c0 -23.333 1.5 -43.166 4.5 -59.499s7.5 -29.166 13.5 -38.499s14.167 -16.5 24.5 -21.5s22.833 -7.5 37.5 -7.5c7.33301 0 15.833 1.33301 25.5 4s19.834 6.33398 30.501 11.001v-38v0z" />
    <glyph glyph-name="u" unicode="u" horiz-adv-x="632" 
d="M427 0l0.00195312 99.001c-12 -19.333 -25 -36 -39 -50s-29 -25.667 -45 -35c-16 -8.66699 -32.833 -15.167 -50.5 -19.5s-36.5 -6.5 -56.5 -6.5c-22.667 0 -42.834 3.66699 -60.501 11s-33.167 18.333 -46.5 33c-12.667 15.333 -22.334 33.166 -29.001 53.499
s-10 43.5 -10 69.5v248c0 21.333 -1 38.5 -3 51.5s-4.66699 21.833 -8 26.5c-3.33301 4 -11 7.5 -23 10.5s-27.667 5.16699 -47 6.5l-9 2v30h186v-359c0 -20.667 1.83301 -38.667 5.5 -54s9.16699 -28 16.5 -38c7.33301 -10.667 16.333 -18.5 27 -23.5
s23.334 -7.5 38.001 -7.5c13.333 0 26.666 1.83301 39.999 5.5s26.333 8.83398 39 15.501s25.167 15.167 37.5 25.5s24.833 22.166 37.5 35.499v273c-0.666992 24 -2 42.833 -4 56.5s-4.33301 21.834 -7 24.501c-2.66699 3.33301 -9.83398 6.16602 -21.501 8.49902
s-27.834 4.16602 -48.501 5.49902l-9 2v30h186v-404c1.33301 -25.333 3 -44.666 5 -57.999s4.33301 -21.666 7 -24.999c2.66699 -2.66699 9.83398 -5.33398 21.501 -8.00098s27.834 -4.66699 48.501 -6l9 1v-30h-187v0z" />
    <glyph glyph-name="v" unicode="v" horiz-adv-x="545" 
d="M250 -5l-170.998 405c-8.66699 20.667 -16.334 37.667 -23.001 51s-12 23 -16 29c-4 5.33301 -8.66699 9.5 -14 12.5s-11.333 4.83301 -18 5.5l-8 2v30h229v-30h-9c-20.667 -0.666992 -36.5 -2.66699 -47.5 -6s-16.5 -8.66602 -16.5 -15.999v0v0v-1v0
c0 -4 2.5 -12.5 7.5 -25.5s12.5 -30.833 22.5 -53.5l119 -282l123 282c10 21.333 17.5 38.666 22.5 51.999s7.5 22.333 7.5 27c0 7.33301 -5 12.833 -15 16.5s-25 5.5 -45 5.5l-10 1v30h157v-30l-10 -1c-6 -1.33301 -11.333 -3 -16 -5s-8.66699 -4.66699 -12 -8
c-2.66699 -3.33301 -7.83398 -12.5 -15.501 -27.5s-17.167 -35.5 -28.5 -61.5l-183 -402h-30v0z" />
    <glyph glyph-name="w" unicode="w" horiz-adv-x="795" 
d="M205 -5l-130.998 408.003c-6.66699 20 -12.5 36.5 -17.5 49.5s-9.5 22.167 -13.5 27.5c-3.33301 5.33301 -7.83301 9.5 -13.5 12.5s-12.5 4.83301 -20.5 5.5l-9 2v30h238v-30h-10c-24.667 -0.666992 -43.334 -3 -56.001 -7s-19 -9.66699 -19 -17
c0 -6.66699 1.33301 -16.334 4 -29.001s6.66699 -27.667 12 -45l83 -264l154 389h29l157 -399l95 275c7.33301 18.667 12.666 34.167 15.999 46.5s5 21.166 5 26.499c0 7.33301 -6.33301 13 -19 17s-31.667 6 -57 6l-11 1v30h173v-30l-10 -1
c-11.333 -1.33301 -21 -6.33301 -29 -15s-14.667 -21.334 -20 -38.001c-2 -4.66699 -4.16699 -10.667 -6.5 -18l-8.5 -26l-144 -407h-27l-160 402l-155 -402h-29v0z" />
    <glyph glyph-name="x" unicode="x" horiz-adv-x="557" 
d="M1 0l-0.000976562 29.998h8c7.33301 0 14 1.33301 20 4s11.667 6.33398 17 11.001c5.33301 5.33301 14 14.5 26 27.5l46 51.5l111 132l-113 146l-45.5 54.5c-11.667 13.667 -19.834 22.834 -24.501 27.501c-4.66699 4 -10.167 7.16699 -16.5 9.5
s-13.833 3.83301 -22.5 4.5l-7 2v30h239v-30h-10c-17.333 -0.666992 -30.5 -2.16699 -39.5 -4.5s-13.5 -6.16602 -13.5 -11.499c-0.666992 -2.66699 3.5 -11 12.5 -25s22.833 -33.333 41.5 -58l76 -101l74 100c15.333 20.667 27 38.167 35 52.5s12 24.833 12 31.5
c0 5.33301 -3.66699 9.16602 -11 11.499s-18.666 3.5 -33.999 3.5l-11 1v30h169v-30l-10 -1c-9.33301 -1.33301 -18.666 -5.16602 -27.999 -11.499s-18.666 -15.5 -27.999 -27.5l-25 -31l-23 -28l-100 -126l115 -150c23.333 -31.333 44.166 -54.833 62.499 -70.5
s33.833 -24.167 46.5 -25.5l8 1v-30h-241v30h9c19.333 -0.666992 33.833 -0.166992 43.5 1.5s14.5 4.5 14.5 8.5c0 3.33301 -4.66699 12 -14 26s-23 33.333 -41 58l-83 108l-82 -107l-42.5 -58c-9.66699 -13.333 -14.5 -21 -14.5 -23
c0 -4.66699 4.66699 -8.33398 14 -11.001s23.333 -4 42 -4l11 1v-30h-173v0z" />
    <glyph glyph-name="y" unicode="y" horiz-adv-x="551" 
d="M81 -192l172.998 191.998l-167 401c-8.66699 20.667 -16.167 37.834 -22.5 51.501s-11.833 23.167 -16.5 28.5c-4 5.33301 -9.16699 9.33301 -15.5 12s-14.166 4.33398 -23.499 5.00098l-9 2v30h242v-30h-11c-22 -0.666992 -38.5 -2.5 -49.5 -5.5s-16.5 -7.5 -16.5 -13.5
c0 -2.66699 2.33301 -10.834 7 -24.501s11.667 -32.5 21 -56.5l119 -283l126 286c9.33301 20.667 16.333 37.167 21 49.5s7 20.833 7 25.5c0 7.33301 -5 12.666 -15 15.999s-24.667 5 -44 5l-13 1v30h157v-30l-10 -1c-10 -1.33301 -19.167 -6.66602 -27.5 -15.999
s-16.166 -22.666 -23.499 -39.999c-1.33301 -2.66699 -3.5 -7.5 -6.5 -14.5s-7.16699 -16.167 -12.5 -27.5l-269 -593h-121v0z" />
    <glyph glyph-name="z" unicode="z" horiz-adv-x="595" 
d="M66 0v30.001l336 470h-173c-24 -0.666992 -43 -1.5 -57 -2.5s-23 -2.5 -27 -4.5c-4.66699 -1.33301 -8 -5 -10 -11s-3 -14 -3 -24v-10v-9c-0.666992 -3.33301 -1 -6.33301 -1 -9v-7v-9h-51v116h434v-30l-332 -464h193c26 -0.666992 46.333 -0.333984 61 0.999023
s24 3.33301 28 6c3.33301 3.33301 6 10.5 8 21.5s3 25.833 3 44.5l1 13h51v-122h-461v0z" />
    <glyph glyph-name="braceleft" unicode="{" horiz-adv-x="343" 
d="M104 313c35.333 -16.667 62 -39 80 -67s27 -62.667 27 -104c0 -13.333 -0.666992 -27.333 -2 -42s-3.66602 -30 -6.99902 -46l-7 -33l-6.5 -34.5c-1.66699 -9 -2.5 -15.5 -2.5 -19.5c0 -27.333 7.83301 -47.666 23.5 -60.999s39.5 -20 71.5 -20h13v-30h-13
c-24.667 0 -47.5 3.5 -68.5 10.5s-39.5 17.833 -55.5 32.5c-16.667 14.667 -29 31 -37 49s-12 37.667 -12 59c0 10 0.833008 21.833 2.5 35.5s3.83398 28.834 6.50098 45.501l9 48c4 19.333 7 35.666 9 48.999s3 23 3 29c0 27.333 -7.5 48 -22.5 62s-37.167 21 -66.5 21
l-26 1v30h26c29.333 -0.666992 51.5 5.83301 66.5 19.5s22.5 34.167 22.5 61.5c0 6 -1 15.667 -3 29s-5 30 -9 50l-9 49c-2.66699 16 -4.83398 30.667 -6.50098 44s-2.5 25.333 -2.5 36c0 22 4 42.167 12 60.5s20.333 34.833 37 49.5c16 14 34.5 24.5 55.5 31.5
s43.833 10.5 68.5 10.5l13 1v-30h-13c-32 -0.666992 -55.833 -7.83398 -71.5 -21.501s-23.5 -34.167 -23.5 -61.5c0 -4 0.833008 -10.5 2.5 -19.5l6.5 -34.5l7 -33c3.33301 -16.667 5.66602 -32.334 6.99902 -47.001s2 -28.667 2 -42c0 -40.667 -9 -75.167 -27 -103.5
s-44.667 -50.166 -80 -65.499v1z" />
    <glyph glyph-name="bar" unicode="|" horiz-adv-x="240" 
d="M87 -144v914h66v-914h-66v0z" />
    <glyph glyph-name="braceright" unicode="}" horiz-adv-x="343" 
d="M239 313c-36 14.667 -63 36.168 -81 64.501s-27 62.833 -27 103.5c0 13.333 0.833008 27.333 2.5 42s4.16699 30 7.5 46l6 35c3.33301 13.333 5.83301 24.666 7.5 33.999s2.5 16 2.5 20c0 27.333 -8 47.666 -24 60.999s-40 20 -72 20l-13 1v30h13
c25.333 -0.666992 48.333 -4.5 69 -11.5s39.334 -17.5 56.001 -31.5c16 -14.667 28 -31.167 36 -49.5s12 -38.5 12 -60.5c0 -10.667 -0.666992 -22.667 -2 -36s-3.66602 -28.333 -6.99902 -45l-9 -47c-4 -20.667 -6.83301 -37.5 -8.5 -50.5s-2.5 -22.5 -2.5 -28.5
c0 -28 7.33301 -48.833 22 -62.5s36.667 -20.5 66 -20.5l26 1v-30h-26c-29.333 -0.666992 -51.333 -8 -66 -22s-22 -34.667 -22 -62c0 -6 0.833008 -15.667 2.5 -29s4.5 -30 8.5 -50l9 -46c3.33301 -17.333 5.66602 -33 6.99902 -47s2 -26 2 -36c0 -20.667 -4 -40 -12 -58
s-20 -34.333 -36 -49c-16.667 -14.667 -35.334 -25.5 -56.001 -32.5s-43.667 -10.5 -69 -10.5h-13v30h13c32 0 56 6.83301 72 20.5s24 34.167 24 61.5c0 4 -0.833008 10.333 -2.5 19s-4.16699 19.667 -7.5 33l-6 35c-3.33301 14.667 -5.83301 29.334 -7.5 44.001
s-2.5 29 -2.5 43c0 41.333 9 76 27 104s45 50 81 66v1z" />
    <glyph glyph-name="asciitilde" unicode="~" horiz-adv-x="608" 
d="M39 213c1.33301 25.333 5.16602 48.167 11.499 68.5s14.833 37.833 25.5 52.5c11.333 15.333 24.333 26.5 39 33.5s31 10.5 49 10.5c12.667 0 29.5 -3.83301 50.5 -11.5s46.5 -19.167 76.5 -34.5l61 -30c25.333 -13.333 47 -23.333 65 -30s33 -10 45 -10
c18 0 33.5 7.83301 46.5 23.5s23.167 39.5 30.5 71.5l30 1c-5.33301 -54 -18.666 -94.333 -39.999 -121s-50.666 -40 -87.999 -40c-15.333 0 -33.5 3.33301 -54.5 10s-44.5 16.667 -70.5 30l-60 32c-28 14 -51.167 24.667 -69.5 32s-32.166 11 -41.499 11
c-18.667 0 -34.334 -8.33301 -47.001 -25s-22.334 -41.667 -29.001 -75l-30 1v0z" />
    <glyph glyph-name="exclamdown" unicode="&#xa1;" horiz-adv-x="265" 
d="M147 337l33 -385v-144h-96v144l33 385h30v0zM180 530v-97h-96v97h96v0z" />
    <glyph glyph-name="cent" unicode="&#xa2;" horiz-adv-x="608" 
d="M313 0l0.000976562 85.001c-34.667 2.66699 -66 11.167 -94 25.5s-52.667 34.166 -74 59.499s-37.333 54.166 -48 86.499s-16 67.833 -16 106.5c0 80.667 19.333 143.834 58 189.501s96.667 73.834 174 84.501v85h30v-81c26 -3.33301 51.5 -7.5 76.5 -12.5
s48.833 -11.167 71.5 -18.5v-123h-54l-1 10c-0.666992 8.66699 -1.16699 15.667 -1.5 21s-0.5 9 -0.5 11c0 13.333 -1.5 24.666 -4.5 33.999s-7.83301 16.666 -14.5 21.999s-16 9.66602 -28 12.999s-26.667 5.66602 -44 6.99902v-472
c5.33301 -1.33301 9.83301 -2.16602 13.5 -2.49902s6.83398 -0.5 9.50098 -0.5c15.333 0 33.5 2.5 54.5 7.5s44.5 12.5 70.5 22.5v-46c-22.667 -9.33301 -46.334 -16.666 -71.001 -21.999s-50.334 -8.66602 -77.001 -9.99902v-82h-30v0zM313.001 136.001v470
c-42.667 -10 -74.834 -36 -96.501 -78s-32.5 -100.667 -32.5 -176c0 -62 10.833 -111 32.5 -147s53.834 -59.333 96.501 -70v1z" />
    <glyph glyph-name="sterling" unicode="&#xa3;" horiz-adv-x="608" 
d="M123 0v72.002c20 4.66699 37 11.667 51 21s24.333 20.666 31 33.999c7.33301 13.333 12.666 31.666 15.999 54.999s5 51.333 5 84v95h-85v30h85v109c0 38.667 3.83301 72.667 11.5 102s18.834 53.666 33.501 72.999c15.333 19.333 34.166 33.833 56.499 43.5
s48.5 14.5 78.5 14.5c22.667 0 45 -2.83301 67 -8.5s44 -14.167 66 -25.5v-103h-48l-1 9c-1.33301 20.667 -3.33301 37.834 -6 51.501s-6.66699 23.5 -12 29.5c-4.66699 6 -12.167 10.5 -22.5 13.5s-23.166 4.5 -38.499 4.5c-16.667 0 -31 -2.66699 -43 -8
s-21 -13.333 -27 -24c-6.66699 -10.667 -11.5 -25.667 -14.5 -45s-4.5 -43.666 -4.5 -72.999v-163h115v-30h-115v-75c0 -46.667 -11.5 -87.834 -34.5 -123.501s-57.5 -66.167 -103.5 -91.5l355 1v-72h-416v0z" />
    <glyph glyph-name="currency" unicode="&#xa4;" horiz-adv-x="608" 
d="M161 197l-93.999 -93.002l-21 21l94 93c-18 22.667 -31.5 45.834 -40.5 69.501s-13.5 47.834 -13.5 72.501s4.5 48.834 13.5 72.501s22.5 46.834 40.5 69.501l-94 96l21 21l94 -94c11.333 8 22.666 15.333 33.999 22s23 12 35 16c12 4.66699 24 8.16699 36 10.5
s24.333 3.5 37 3.5c25.333 0 49.833 -4.5 73.5 -13.5s46.834 -22.167 69.501 -39.5l94 95l21 -21l-94 -95c17.333 -23.333 30.5 -46.833 39.5 -70.5s13.5 -47.834 13.5 -72.501s-4.5 -48.834 -13.5 -72.501s-22.167 -47.167 -39.5 -70.5l94 -92l-21 -21l-94 93
c-10.667 -9.33301 -21.834 -17.333 -33.501 -24s-23.5 -12 -35.5 -16c-12 -4.66699 -24 -8 -36 -10s-24.667 -3 -38 -3c-24.667 0 -49 4.33301 -73 13s-47 21.667 -69 39v1zM303.001 194.998c23.333 -0.666992 44.666 3 63.999 11s37 20.333 53 37
c16.667 16 29 33.833 37 53.5s12 40.834 12 63.501c0 23.333 -4 44.666 -12 63.999s-20.333 37 -37 53c-16 16 -33.667 28 -53 36s-40.666 12 -63.999 12c-22.667 0 -43.667 -4 -63 -12s-37.333 -20 -54 -36c-16 -16 -28 -33.667 -36 -53s-12 -40.666 -12 -63.999
c0 -22.667 4 -43.834 12 -63.501s20 -37.5 36 -53.5c16.667 -16.667 34.667 -29 54 -37s40.333 -12 63 -12v1z" />
    <glyph glyph-name="yen" unicode="&#xa5;" horiz-adv-x="608" 
d="M264 192l-149.999 0.00195312v30h150v103h-150v30h150l-145 222l-49 69.5c-12 17 -20 27.167 -24 30.5c-3.33301 4 -9.33301 7 -18 9s-19 3.33301 -31 4l-12 2v30h273v-30h-9c-20.667 -0.666992 -36.167 -2.5 -46.5 -5.5s-15.5 -7.16699 -15.5 -12.5
c0 -4.66699 1.66699 -10.834 5 -18.501s8.33301 -16.5 15 -26.5l136 -213l146 224c6 8.66699 10.667 16.167 14 22.5s5 10.833 5 13.5c0 5.33301 -5 9.16602 -15 11.499s-25 3.5 -45 3.5l-12 1v30h208v-30l-9 -1c-15.333 -1.33301 -27.5 -2.83301 -36.5 -4.5
s-14.833 -3.83398 -17.5 -6.50098s-10.334 -12.667 -23.001 -30s-30 -42.666 -52 -75.999l-145 -219h150v-30h-150v-103h150v-30h-150v-66c0 -22.667 0.833008 -40.667 2.5 -54s4.16699 -22 7.5 -26s11 -7.5 23 -10.5s28 -5.16699 48 -6.5l9 1v-30h-277v30h9
c20 0.666992 36 2.5 48 5.5s19.667 6.5 23 10.5s5.83301 12.667 7.5 26s2.5 31 2.5 53v67v0z" />
    <glyph glyph-name="brokenbar" unicode="&#xa6;" 
 />
    <glyph glyph-name="section" unicode="&#xa7;" horiz-adv-x="608" 
d="M84 -125v107.001h48l1 -9c0.666992 -13.333 1.5 -24 2.5 -32s1.83301 -13.333 2.5 -16c1.33301 -2.66699 3.83301 -5.5 7.5 -8.5s8.83398 -6.5 15.501 -10.5c19.333 -10.667 40 -18.667 62 -24s46 -8 72 -8c21.333 0 40.833 2.5 58.5 7.5s32.834 13.167 45.501 24.5
c13.333 10.667 23.166 23.167 29.499 37.5s9.5 30.5 9.5 48.5c0 10.667 -1.83301 20.667 -5.5 30s-9.16699 17.333 -16.5 24c-6.66699 6.66699 -17.667 14 -33 22s-34.666 17 -57.999 27l-53 23c-33.333 13.333 -61.5 26.666 -84.5 39.999s-41.167 26.333 -54.5 39
c-12.667 12.667 -22.167 26.834 -28.5 42.501s-9.5 32.834 -9.5 51.501c0 25.333 7 49.666 21 72.999s35 46.333 63 69c-27.333 14 -47.833 31.5 -61.5 52.5s-20.5 45.5 -20.5 73.5c0 27.333 5.33301 52 16 74s26.334 41.333 47.001 58c21.333 16 46.166 28 74.499 36
s60.5 12 96.5 12c14 0 28 -0.5 42 -1.5s28.333 -2.83301 43 -5.5c14 -2 28 -4.66699 42 -8s28 -7.33301 42 -12v-110h-48l-1 9c-0.666992 18 -2.83398 32.5 -6.50098 43.5s-8.16699 18.5 -13.5 22.5c-16 10.667 -33.333 18.667 -52 24s-39 8 -61 8
c-20 0 -38 -2.83301 -54 -8.5s-30.667 -14.167 -44 -25.5c-12.667 -11.333 -22.167 -24.333 -28.5 -39s-9.5 -31 -9.5 -49c0 -24 8.33301 -45 25 -63s41.667 -33 75 -45l52 -18c60 -23.333 105 -50 135 -80s45 -64 45 -102c0 -23.333 -6.66699 -46.5 -20 -69.5
s-33 -45.833 -59 -68.5c29.333 -16 51.333 -35.333 66 -58s22 -49 22 -79c0 -24 -5.16699 -45.833 -15.5 -65.5s-25.833 -36.834 -46.5 -51.501s-45.334 -25.5 -74.001 -32.5s-61 -10.5 -97 -10.5c-32.667 0 -66.167 2.66699 -100.5 8s-69.5 13 -105.5 23v0zM409 160.001
c9.33301 12.667 16.5 26.501 21.5 41.501s7.5 30.833 7.5 47.5c0 11.333 -1.83301 21.833 -5.5 31.5s-9.16699 18.5 -16.5 26.5c-8 7.33301 -24 17.5 -48 30.5s-56.667 28.833 -98 47.5l-68 31c-8.66699 -15.333 -15.167 -30 -19.5 -44s-6.5 -27.667 -6.5 -41
c0 -15.333 3 -29.333 9 -42s15 -24.334 27 -35.001c11.333 -10.667 27.5 -21.667 48.5 -33s46.833 -23 77.5 -35l71 -26v0z" />
    <glyph glyph-name="dieresis" unicode="&#xa8;" horiz-adv-x="602" 
d="M162 626v84h85v-84h-85v0zM355 626v84h84v-84h-84v0z" />
    <glyph glyph-name="copyright" unicode="&#xa9;" horiz-adv-x="855" 
d="M427 -18c-52 0 -100.333 9.16699 -145 27.5s-85.667 45.833 -123 82.5c-36.667 37.333 -64.334 78.166 -83.001 122.499s-28 92.833 -28 145.5s9.33301 101.334 28 146.001s46.334 85.334 83.001 122.001c37.333 37.333 78.333 65.166 123 83.499s93 27.5 145 27.5
c52.667 0 101.5 -9.16699 146.5 -27.5s85.833 -46.166 122.5 -83.499c37.333 -36.667 65.166 -77.334 83.499 -122.001s27.5 -93.334 27.5 -146.001s-9.16699 -101.167 -27.5 -145.5s-46.166 -85.166 -83.499 -122.499c-36.667 -36.667 -77.5 -64.167 -122.5 -82.5
s-93.833 -27.5 -146.5 -27.5v0zM427 12c48.667 -0.666992 93.5 7.5 134.5 24.5s78.5 42.5 112.5 76.5c34.667 34.667 60.5 72.5 77.5 113.5s25.5 85.5 25.5 133.5s-8.5 92.667 -25.5 134s-42.833 79 -77.5 113c-34 34 -71.5 59.5 -112.5 76.5s-85.833 25.5 -134.5 25.5
c-48 0 -92.5 -8.5 -133.5 -25.5s-78.5 -42.5 -112.5 -76.5c-34.667 -34 -60.5 -71.667 -77.5 -113s-25.5 -86 -25.5 -134s8.5 -92.5 25.5 -133.5s42.833 -78.833 77.5 -113.5c34 -34 71.5 -59.5 112.5 -76.5s85.5 -25.5 133.5 -25.5v1zM572 168
c-24 -8.66699 -46.5 -15 -67.5 -19s-41.167 -6 -60.5 -6c-30 0 -57.333 5 -82 15s-46.667 25.333 -66 46s-33.833 44 -43.5 70s-14.5 54.667 -14.5 86c0 32 4.83301 61 14.5 87s23.834 48.667 42.501 68c19.333 19.333 41.666 34 66.999 44s53.666 15 84.999 15
c8 0 17 -0.5 27 -1.5s20.333 -2.16699 31 -3.5c11.333 -1.33301 23 -3 35 -5s24.667 -4.66699 38 -8l-6 -89l-37 6l-5 52l-21.5 8c-7 2.66699 -13.833 5 -20.5 7c-6.66699 1.33301 -13.5 2.33301 -20.5 3s-13.833 1 -20.5 1c-20.667 0 -39.167 -4 -55.5 -12
s-31.166 -20.333 -44.499 -37c-12.667 -16.667 -22 -35.667 -28 -57s-9 -45.333 -9 -72s3.5 -51.167 10.5 -73.5s17.5 -42.166 31.5 -59.499c14 -16.667 30 -29.334 48 -38.001s38 -13 60 -13c14 0 30.5 2.33301 49.5 7s39.833 12 62.5 22v-43v0z" />
    <glyph glyph-name="ordfeminine" unicode="&#xaa;" horiz-adv-x="427" 
d="M273 403c-9.33301 -9.33301 -19.002 -17.5 -29.002 -24.5s-20.667 -12.5 -32 -16.5c-10.667 -4.66699 -21.667 -8.16699 -33 -10.5s-22.666 -3.5 -33.999 -3.5c-16 0 -30.667 2.5 -44 7.5s-25.333 12.167 -36 21.5s-18.667 20 -24 32s-8 25.333 -8 40
c0 20 4.33301 37.667 13 53s21.667 28 39 38c17.333 10.667 38.833 18.5 64.5 23.5s55.834 7.5 90.501 7.5l33 1v35c0 16.667 -1.5 31.5 -4.5 44.5s-8.16699 23.833 -15.5 32.5c-6.66699 8.66699 -15.334 15 -26.001 19s-23 6 -37 6c-18.667 0 -34 -1 -46 -3
s-20.667 -5.66699 -26 -11c-4.66699 -4.66699 -8.5 -12.5 -11.5 -23.5s-5.16699 -25.167 -6.5 -42.5l-1 -9h-42v88c22.667 10.667 45.834 18.667 69.501 24s47.834 8 72.501 8c29.333 0 54.333 -2.5 75 -7.5s37 -12.5 49 -22.5c11.333 -10 20 -23.5 26 -40.5
s9 -38.167 9 -63.5v-147c0 -21.333 2.66699 -37.166 8 -47.499s13.333 -15.5 24 -15.5c4 0 8.33301 0.5 13 1.5s9.66699 2.5 15 4.5v-30c-16.667 -8.66699 -31.5 -14.834 -44.5 -18.501s-23.833 -5.5 -32.5 -5.5c-14.667 0 -27.834 4.5 -39.501 13.5
s-21.167 22.5 -28.5 40.5v1zM272.998 439l0.000976562 104.001h-26c-21.333 -0.666992 -40.166 -2.66699 -56.499 -6s-29.833 -8.66602 -40.5 -15.999c-10.667 -6.66699 -18.834 -15.167 -24.501 -25.5s-8.5 -22.5 -8.5 -36.5c0 -10.667 1.5 -19.834 4.5 -27.501
s7.16699 -14.167 12.5 -19.5s12.166 -9.33301 20.499 -12s18.166 -4 29.499 -4c7.33301 0 14.833 1 22.5 3s15.167 4.66699 22.5 8s14.833 7.66602 22.5 12.999s14.834 11.333 21.501 18v1z" />
    <glyph glyph-name="guillemotleft" unicode="&#xab;" horiz-adv-x="530" 
d="M279 457l-134 -192l134 -192l-25 -19l-206 211l206 211l25 -19v0zM470 457l-134 -192l134 -192l-25 -19l-206 211l206 211l25 -19v0z" />
    <glyph glyph-name="logicalnot" unicode="&#xac;" horiz-adv-x="608" 
d="M39 346v54h530v-232h-64v178h-466v0z" />
    <glyph glyph-name="sfthyphen" unicode="&#xad;" 
 />
    <glyph glyph-name="registered" unicode="&#xae;" horiz-adv-x="608" 
d="M301 307c-30 -0.666992 -57.833 4.33301 -83.5 15s-49.167 26.334 -70.5 47.001c-20.667 21.333 -36.334 44.833 -47.001 70.5s-16 53.167 -16 82.5c0 30.667 5.33301 58.834 16 84.501s26.334 48.834 47.001 69.501c21.333 21.333 44.833 37.166 70.5 47.499
s53.5 15.5 83.5 15.5s57.833 -5.16699 83.5 -15.5s48.834 -26.166 69.501 -47.499c21.333 -20.667 37.333 -43.834 48 -69.501s16 -53.834 16 -84.501c0 -29.333 -5.33301 -56.833 -16 -82.5s-26.667 -49.167 -48 -70.5c-20.667 -20.667 -43.834 -36.334 -69.501 -47.001
s-53.5 -16 -83.5 -16v1zM301 334c26 -0.666992 50.167 3.66699 72.5 13s42.833 23.333 61.5 42s32.667 39.167 42 61.5s14 46.166 14 71.499c0 26.667 -4.66699 51 -14 73s-23.333 42.333 -42 61c-18.667 19.333 -39.167 33.5 -61.5 42.5s-46.5 13.5 -72.5 13.5
s-50.167 -4.5 -72.5 -13.5s-42.833 -23.167 -61.5 -42.5c-18.667 -18.667 -32.667 -39.167 -42 -61.5s-14 -46.5 -14 -72.5c0 -25.333 4.66699 -49.166 14 -71.499s23.333 -42.833 42 -61.5s39.167 -32.667 61.5 -42s46.5 -14 72.5 -14v1zM267 502.001v-101h-74v29h37v189
h-35v30h88c38.667 -0.666992 67.667 -6.66699 87 -18s29 -28 29 -50c0 -18.667 -4.5 -34.167 -13.5 -46.5s-22.167 -21.5 -39.5 -27.5l39 -78h42v-28h-66l-53 101h-41v0zM266 531.001h24c24 -0.666992 42.167 2.83301 54.5 10.5s18.5 19.5 18.5 35.5
c0 13.333 -5.66699 23.5 -17 30.5s-28.333 10.5 -51 10.5l-29 1v-88v0z" />
    <glyph glyph-name="overstore" unicode="&#xaf;" 
 />
    <glyph glyph-name="degree" unicode="&#xb0;" 
 />
    <glyph glyph-name="plusminus" unicode="&#xb1;" horiz-adv-x="608" 
d="M39 0v54h530v-54h-530v0zM276 144v190h-237v54h237v190h55v-190h238v-54h-238v-190h-55v0z" />
    <glyph glyph-name="twosuperior" unicode="&#xb2;" 
 />
    <glyph glyph-name="threesuperior" unicode="&#xb3;" 
 />
    <glyph glyph-name="acute" unicode="&#xb4;" horiz-adv-x="602" 
d="M312 770h111l-172 -144h-45l106 144v0z" />
    <glyph glyph-name="mu" unicode="&#xb5;" horiz-adv-x="626" 
d="M427 0l0.00390625 98.998c-10.667 -19.333 -22.334 -36 -35.001 -50s-26.667 -25.667 -42 -35c-14.667 -8.66699 -30.334 -15.167 -47.001 -19.5s-34.334 -6.5 -53.001 -6.5c-6.66699 0 -12.834 0.333008 -18.501 1s-11.167 1.66699 -16.5 3s-10.5 3 -15.5 5
s-9.5 3.66699 -13.5 5v-146h-96v547c0 21.333 -1 38.5 -3 51.5s-4.66699 21.833 -8 26.5c-3.33301 4 -11 7.5 -23 10.5s-27.667 5.16699 -47 6.5l-9 2v30h186v-359c0 -23.333 1.66699 -42.666 5 -57.999s8.33301 -27.666 15 -36.999s15.5 -16.333 26.5 -21s24.5 -7 40.5 -7
c14 0 27.667 1.83301 41 5.5s26.333 8.83398 39 15.501c13.333 6.66699 26 15.167 38 25.5s24 22.166 36 35.499v273c-0.666992 24 -2 42.833 -4 56.5s-4.33301 21.834 -7 24.501c-2.66699 3.33301 -9.83398 6.16602 -21.501 8.49902s-27.834 4.16602 -48.501 5.49902l-9 2
v30h186v-404c1.33301 -25.333 3 -44.666 5 -57.999s4.33301 -21.666 7 -24.999c2.66699 -2.66699 9.83398 -5.33398 21.501 -8.00098s27.834 -4.66699 48.501 -6l9 1v-30h-187v0z" />
    <glyph glyph-name="paragraph" unicode="&#xb6;" horiz-adv-x="608" 
d="M270 -144l-0.000976562 505c-34 -0.666992 -64.667 3.66602 -92 12.999s-51.666 23.333 -72.999 42c-20.667 18.667 -36.5 40.334 -47.5 65.001s-16.5 52 -16.5 82c0 54 14 94.5 42 121.5s70 40.5 126 40.5l87 -2l57 -1h110v-866h-36v818h-120v-818h-37v0z" />
    <glyph glyph-name="middot" unicode="&#xb7;" 
 />
    <glyph glyph-name="cedilla" unicode="&#xb8;" horiz-adv-x="602" 
d="M242 -184v31.9971c6 -1.33301 11.667 -2.5 17 -3.5s10.333 -1.5 15 -1.5c8.66699 0 16 0.833008 22 2.5s11 4.16699 15 7.5s7 7.5 9 12.5s3 10.833 3 17.5c0 12.667 -5 23 -15 31s-25 13.667 -45 17l43 69h37l-33 -52c27.333 -5.33301 48 -14.166 62 -26.499
s21 -27.833 21 -46.5c0 -11.333 -1.83301 -21.166 -5.5 -29.499s-9.16699 -15.166 -16.5 -20.499c-7.33301 -6 -16.5 -10.333 -27.5 -13s-24.167 -4 -39.5 -4c-10 0 -20 0.666992 -30 2s-20.667 3.33301 -32 6v0z" />
    <glyph glyph-name="onesuperior" unicode="&#xb9;" 
 />
    <glyph glyph-name="ordmasculine" unicode="&#xba;" horiz-adv-x="427" 
d="M213 349c-27.333 -0.666992 -52 3.5 -74 12.5s-41 22.167 -57 39.5c-16.667 17.333 -29 38 -37 62s-12 51 -12 81c0 29.333 4 56 12 80s20.333 44.667 37 62c16 18 35 31.333 57 40s46.667 13 74 13c28 0 53 -4.33301 75 -13s41 -22 57 -40c16.667 -17.333 29 -38 37 -62
s12 -50.667 12 -80c0 -30 -4 -57 -12 -81s-20.333 -44.667 -37 -62s-36 -30.5 -58 -39.5s-46.667 -13.5 -74 -13.5v1zM213 379c15.333 -0.666992 28.666 2.5 39.999 9.5s20.666 17.167 27.999 30.5s13 30.333 17 51s6 44.667 6 72c0 28 -2 52.5 -6 73.5
s-9.66699 38.5 -17 52.5s-16.666 24.333 -27.999 31s-24.666 10 -39.999 10c-14.667 0 -27.667 -3.33301 -39 -10s-20.666 -17 -27.999 -31s-13 -31.5 -17 -52.5s-6 -45.5 -6 -73.5c0 -27.333 2 -51.333 6 -72s9.66699 -37.667 17 -51s16.666 -23.5 27.999 -30.5
s24.333 -10.5 39 -10.5v1z" />
    <glyph glyph-name="guillemotright" unicode="&#xbb;" horiz-adv-x="530" 
d="M60 72l133 193l-133 191l24 20l207 -211l-207 -211l-24 18v0zM250 72l134 193l-134 191l25 20l206 -211l-206 -211l-25 18v0z" />
    <glyph glyph-name="onequarter" unicode="&#xbc;" 
 />
    <glyph glyph-name="onehalf" unicode="&#xbd;" 
 />
    <glyph glyph-name="threequarters" unicode="&#xbe;" 
 />
    <glyph glyph-name="questiondown" unicode="&#xbf;" horiz-adv-x="480" 
d="M330 337l0.00390625 -9.00195c0 -34 -5.83301 -65 -17.5 -93s-29.167 -53.667 -52.5 -77l-20 -18c-30.667 -31.333 -53.5 -62.5 -68.5 -93.5s-22.5 -62.167 -22.5 -93.5c0 -22 2.66699 -41.333 8 -58s13.333 -30.667 24 -42
c11.333 -11.333 25.166 -19.666 41.499 -24.999s35.166 -8 56.499 -8c18 0 34.333 2.5 49 7.5s28 12.5 40 22.5c5.33301 4.66699 9.66602 14.834 12.999 30.501s5.66602 37.167 6.99902 64.5l1 11h48v-134c-30.667 -10.667 -61 -18.667 -91 -24s-59 -8 -87 -8
c-32 0 -60.833 3.5 -86.5 10.5s-48.167 17.833 -67.5 32.5s-34 31.667 -44 51s-15 41.333 -15 66c0 25.333 8 50.5 24 75.5s40.333 49.833 73 74.5l23 18.5c6 5 10.667 9.16699 14 12.5l18 17c11.333 10.667 20 26 26 46s9 45 9 75v68h97v0zM330.004 529.998v-97h-97v97h97
v0z" />
    <glyph glyph-name="Agrave" unicode="&#xc0;" horiz-adv-x="744" 
d="M182 222l-41.001 -96.001c-8.66699 -19.333 -15 -35.5 -19 -48.5s-6 -22.5 -6 -28.5c0 -6.66699 5.33301 -11.667 16 -15s26.334 -5 47.001 -5l8 1v-30h-187v30h10c14 0.666992 25.167 1.83398 33.5 3.50098s13.833 3.83398 16.5 6.50098s7.5 11.167 14.5 25.5
s15.833 34.166 26.5 59.499l254 606h34l254 -608c9.33301 -22.667 17.5 -40.5 24.5 -53.5s12.833 -21.5 17.5 -25.5c4 -4.66699 10 -8 18 -10s17.667 -3.66699 29 -5l12 1v-30h-268v30h8c23.333 -0.666992 40.666 0.5 51.999 3.5s17 7.83301 17 14.5
c0 9.33301 -1.66699 20.5 -5 33.5s-8.66602 27.5 -15.999 43.5l-40 97h-310v0zM197.999 261.999h276l-137 329l-139 -329v0zM249.999 926.999h111l105 -144h-45l-171 144v0z" />
    <glyph glyph-name="Aacute" unicode="&#xc1;" horiz-adv-x="744" 
d="M182 222l-41.001 -96.001c-8.66699 -19.333 -15 -35.5 -19 -48.5s-6 -22.5 -6 -28.5c0 -6.66699 5.33301 -11.667 16 -15s26.334 -5 47.001 -5l8 1v-30h-187v30h10c14 0.666992 25.167 1.83398 33.5 3.50098s13.833 3.83398 16.5 6.50098s7.5 11.167 14.5 25.5
s15.833 34.166 26.5 59.499l254 606h34l254 -608c9.33301 -22.667 17.5 -40.5 24.5 -53.5s12.833 -21.5 17.5 -25.5c4 -4.66699 10 -8 18 -10s17.667 -3.66699 29 -5l12 1v-30h-268v30h8c23.333 -0.666992 40.666 0.5 51.999 3.5s17 7.83301 17 14.5
c0 9.33301 -1.66699 20.5 -5 33.5s-8.66602 27.5 -15.999 43.5l-40 97h-310v0zM197.999 261.999h276l-137 329l-139 -329v0zM394.999 926.999h111l-172 -144h-45l106 144v0z" />
    <glyph glyph-name="Acircumflex" unicode="&#xc2;" horiz-adv-x="744" 
d="M182 222l-41.001 -96.001c-8.66699 -19.333 -15 -35.5 -19 -48.5s-6 -22.5 -6 -28.5c0 -6.66699 5.33301 -11.667 16 -15s26.334 -5 47.001 -5l8 1v-30h-187v30h10c14 0.666992 25.167 1.83398 33.5 3.50098s13.833 3.83398 16.5 6.50098s7.5 11.167 14.5 25.5
s15.833 34.166 26.5 59.499l254 606h34l254 -608c9.33301 -22.667 17.5 -40.5 24.5 -53.5s12.833 -21.5 17.5 -25.5c4 -4.66699 10 -8 18 -10s17.667 -3.66699 29 -5l12 1v-30h-268v30h8c23.333 -0.666992 40.666 0.5 51.999 3.5s17 7.83301 17 14.5
c0 9.33301 -1.66699 20.5 -5 33.5s-8.66602 27.5 -15.999 43.5l-40 97h-310v0zM197.999 261.999h276l-137 329l-139 -329v0zM208.999 782.999l108 144h109l108 -144h-42l-120 96l-121 -96h-42v0z" />
    <glyph glyph-name="Atilde" unicode="&#xc3;" horiz-adv-x="744" 
d="M182 222l-41.001 -96.001c-8.66699 -19.333 -15 -35.5 -19 -48.5s-6 -22.5 -6 -28.5c0 -6.66699 5.33301 -11.667 16 -15s26.334 -5 47.001 -5l8 1v-30h-187v30h10c14 0.666992 25.167 1.83398 33.5 3.50098s13.833 3.83398 16.5 6.50098s7.5 11.167 14.5 25.5
s15.833 34.166 26.5 59.499l254 606h34l254 -608c9.33301 -22.667 17.5 -40.5 24.5 -53.5s12.833 -21.5 17.5 -25.5c4 -4.66699 10 -8 18 -10s17.667 -3.66699 29 -5l12 1v-30h-268v30h8c23.333 -0.666992 40.666 0.5 51.999 3.5s17 7.83301 17 14.5
c0 9.33301 -1.66699 20.5 -5 33.5s-8.66602 27.5 -15.999 43.5l-40 97h-310v0zM197.999 261.999h276l-137 329l-139 -329v0zM211.999 782.999c6 37.333 18.4971 65.499 37.4971 84.499s43.833 28.5 74.5 28.5c8.66699 0 17.667 -1.5 27 -4.5s19 -7.5 29 -13.5l17 -10
c8.66699 -6 17.334 -10.333 26.001 -13s17.334 -4 26.001 -4c16 0 28.833 3.83301 38.5 11.5s15.834 18.834 18.501 33.501l30 1c-6.66699 -38.667 -19.167 -67.5 -37.5 -86.5s-43.166 -28.5 -74.499 -28.5c-8.66699 0 -17.667 1.5 -27 4.5s-19 7.5 -29 13.5l-17 12
c-8.66699 4.66699 -17.5 8.5 -26.5 11.5s-17.5 4.5 -25.5 4.5c-14.667 0 -26.834 -3.83301 -36.501 -11.5s-16.5 -19.167 -20.5 -34.5l-30 1v0z" />
    <glyph glyph-name="Adieresis" unicode="&#xc4;" horiz-adv-x="744" 
d="M182 222l-41.001 -96.001c-8.66699 -19.333 -15 -35.5 -19 -48.5s-6 -22.5 -6 -28.5c0 -6.66699 5.33301 -11.667 16 -15s26.334 -5 47.001 -5l8 1v-30h-187v30h10c14 0.666992 25.167 1.83398 33.5 3.50098s13.833 3.83398 16.5 6.50098s7.5 11.167 14.5 25.5
s15.833 34.166 26.5 59.499l254 606h34l254 -608c9.33301 -22.667 17.5 -40.5 24.5 -53.5s12.833 -21.5 17.5 -25.5c4 -4.66699 10 -8 18 -10s17.667 -3.66699 29 -5l12 1v-30h-268v30h8c23.333 -0.666992 40.666 0.5 51.999 3.5s17 7.83301 17 14.5
c0 9.33301 -1.66699 20.5 -5 33.5s-8.66602 27.5 -15.999 43.5l-40 97h-310v0zM197.999 261.999h276l-137 329l-139 -329v0zM232.999 782.999v84h84v-84h-84v0zM425.999 782.999v84h84v-84h-84v0z" />
    <glyph glyph-name="Aring" unicode="&#xc5;" horiz-adv-x="744" 
d="M744 30l-0.00390625 -29.999h-268v30h9c22.667 -0.666992 39.667 0.666016 51 3.99902s17 8.33301 17 15c0 10 -1.66699 21.5 -5 34.5s-8 26.833 -14 41.5l-41 97h-312l-41 -96c-8.66699 -19.333 -15 -35.5 -19 -48.5s-6 -22.5 -6 -28.5
c0 -6.66699 5.33301 -11.667 16 -15s26.334 -5 47.001 -5l8 1v-30h-186v30h9c14 0.666992 25.167 1.66699 33.5 3s13.833 3.33301 16.5 6c2.66699 3.33301 7.33398 12 14.001 26s15.667 34 27 60l256 606c-8.66699 1.33301 -16.667 4.33301 -24 9
s-13.666 10.334 -18.999 17.001s-9.5 14.167 -12.5 22.5s-4.5 17.166 -4.5 26.499c0 11.333 2 21.5 6 30.5s9.66699 17.167 17 24.5c7.33301 8 15.833 13.833 25.5 17.5s19.834 5.5 30.501 5.5s20.5 -1.83301 29.5 -5.5s17.5 -9.5 25.5 -17.5
c7.33301 -7.33301 13 -15.5 17 -24.5s6 -19.167 6 -30.5c0 -9.33301 -1.5 -18.166 -4.5 -26.499s-7.16699 -15.833 -12.5 -22.5s-11.833 -12.334 -19.5 -17.001s-16.167 -8 -25.5 -10l253 -607c10 -22.667 18.5 -40.5 25.5 -53.5s12.5 -21.5 16.5 -25.5
c4 -4.66699 10 -8 18 -10s18 -3.66699 30 -5l10 1v0zM197.996 262.001h274l-138 332l-136 -332v0zM374.996 759.001c6.66699 -0.666992 12.667 0.166992 18 2.5s10.333 5.83301 15 10.5c5.33301 4.66699 9 9.83398 11 15.501s3 11.834 3 18.501s-1 12.834 -3 18.501
s-5.66699 10.834 -11 15.501c-4.66699 4.66699 -9.66699 8.16699 -15 10.5s-11.333 3.5 -18 3.5s-12.834 -1.16699 -18.501 -3.5s-11.167 -5.83301 -16.5 -10.5c-4.66699 -4.66699 -8.16699 -9.83398 -10.5 -15.501s-3.5 -11.834 -3.5 -18.501s1.16699 -12.834 3.5 -18.501
s5.83301 -10.834 10.5 -15.501c5.33301 -4.66699 10.833 -8.16699 16.5 -10.5s11.834 -3.5 18.501 -3.5v1z" />
    <glyph glyph-name="AE" unicode="&#xc6;" horiz-adv-x="918" 
d="M892 0h-521.002v30h9c21.333 0.666992 37.666 2.33398 48.999 5.00098s18.333 5.33398 21 8.00098c2.66699 3.33301 5 11.666 7 24.999s3.33301 32.333 4 57v97h-262l-60 -97c-4.66699 -7.33301 -8.83398 -14.333 -12.501 -21s-7.16699 -12.667 -10.5 -18
c-6.66699 -12 -11.667 -21.333 -15 -28s-5 -11 -5 -13c-0.666992 -4.66699 2 -8.16699 8 -10.5s15 -3.5 27 -3.5h5h6c2.66699 -0.666992 5.66699 -1 9 -1h11l11 1v-31h-173v31h10c7.33301 0 13.833 1 19.5 3s10.167 5 13.5 9c3.33301 3.33301 9.5 12 18.5 26l35.5 55
l362 598h406v-126h-54l-1 9c-1.33301 21.333 -2.83301 38 -4.5 50s-3.5 19 -5.5 21c-2.66699 2 -10.5 3.5 -23.5 4.5s-31.167 1.5 -54.5 1.5l-158 1v-289l138 1c15.333 -0.666992 27.666 -0.666992 36.999 0s15.333 1.66699 18 3c3.33301 1.33301 5.83301 5.83301 7.5 13.5
s2.83398 18.5 3.50098 32.5l1 10h45v-159h-45l-1 9c-0.666992 11.333 -1.83398 20.666 -3.50098 27.999s-4.16699 12.333 -7.5 15c-2.66699 2.66699 -8.66699 4.5 -18 5.5s-21.666 1.5 -36.999 1.5l-138 1v-229c0 -19.333 1 -34.833 3 -46.5s5.33301 -20.167 10 -25.5
c4.66699 -4.66699 12.834 -8.16699 24.501 -10.5s26.834 -3.5 45.501 -3.5l77 1c28 -0.666992 50 -0.166992 66 1.5s26.333 3.83398 31 6.50098c4.66699 3.33301 8.33398 10.166 11.001 20.499s4.33398 24.833 5.00098 43.5l1 10h54v-123v0zM223.998 262h237v391l-237 -391
v0z" />
    <glyph glyph-name="Ccedilla" unicode="&#xc7;" horiz-adv-x="695" 
d="M638 38c-31.333 -19.333 -67.335 -33.8311 -108.002 -43.498s-85.667 -14.5 -135 -14.5l-19 -33c34 -6 59.667 -15.167 77 -27.5s26 -27.833 26 -46.5c0 -11.333 -2.16699 -21 -6.5 -29s-10.833 -14.667 -19.5 -20s-19.5 -9.33301 -32.5 -12s-28.167 -4 -45.5 -4
c-12.667 0 -26 0.833008 -40 2.5s-28 4.16699 -42 7.5v33c2.66699 0 6.5 -0.333008 11.5 -1s10.833 -1.66699 17.5 -3c3.33301 -0.666992 7.33301 -1.16699 12 -1.5s10 -0.5 16 -0.5c10 0 18.667 0.666992 26 2s13.333 3.33301 18 6c5.33301 2.66699 9.16602 6 11.499 10
s3.5 8.66699 3.5 14c0 12 -7 22.167 -21 30.5s-34.667 15.166 -62 20.499l34 54c-49.333 6 -93 18.167 -131 36.5s-70.667 43.833 -98 76.5c-26.667 33.333 -46.667 71.5 -60 114.5s-20 91.5 -20 145.5c0 61.333 7.5 115.833 22.5 163.5s37.833 87.834 68.5 120.501
c30.667 33.333 67.667 58.333 111 75s93 25 149 25c14 0 29.167 -0.666992 45.5 -2s33.833 -3.66602 52.5 -6.99902c19.333 -2.66699 39.333 -6.33398 60 -11.001s42.334 -10 65.001 -16v-137h-60l-1 10c-0.666992 4 -1 8.33301 -1 13v14c0 16 -3.5 30.5 -10.5 43.5
s-18.167 23.833 -33.5 32.5c-14.667 9.33301 -32.167 16.333 -52.5 21s-43.166 7 -68.499 7c-36.667 0 -69.667 -7.83301 -99 -23.5s-54.666 -39.167 -75.999 -70.5c-22 -31.333 -38.5 -67.833 -49.5 -109.5s-16.5 -88.834 -16.5 -141.501s6.5 -99.334 19.5 -140.001
s32.167 -75.667 57.5 -105s55.833 -51.333 91.5 -66s76.167 -22 121.5 -22c30 0 60.833 4.5 92.5 13.5s64.5 22.833 98.5 41.5v-46v0z" />
    <glyph glyph-name="Egrave" unicode="&#xc8;" horiz-adv-x="566" 
d="M541 0l-520.998 -0.00195312v30h10c19.333 0.666992 35 2.33398 47 5.00098s19.667 6.33398 23 11.001s6 13.5 8 26.5s3 30.5 3 52.5v471c0 21.333 -1 38.5 -3 51.5s-4.66699 21.833 -8 26.5c-3.33301 4 -11 7.5 -23 10.5s-27.667 4.83301 -47 5.5l-10 2v30h495v-126h-55
l-1 9c-0.666992 22 -1.83398 39 -3.50098 51s-3.83398 19 -6.50098 21c-2 1.33301 -9.5 2.5 -22.5 3.5s-31.5 1.5 -55.5 1.5l-158 1v-289l133 1c14.667 -0.666992 26.5 -0.666992 35.5 0s15.167 1.66699 18.5 3s6 6 8 14s3.33301 18.667 4 32v10h39v-159h-39v9
c-0.666992 11.333 -2 20.666 -4 27.999s-4.66699 12.333 -8 15s-9.5 4.5 -18.5 5.5s-20.833 1.5 -35.5 1.5l-133 1v-229c0 -19.333 1.16699 -34.833 3.5 -46.5s5.83301 -20.167 10.5 -25.5c4.66699 -4.66699 12.667 -8.16699 24 -10.5s26.333 -3.5 45 -3.5l78 1
c28.667 -0.666992 51 -0.166992 67 1.5s26 3.83398 30 6.50098c4 3.33301 7.5 11 10.5 23s4.83301 28.667 5.5 50v10h54v-132v0zM169.002 926.998h112l105 -144h-45l-172 144v0z" />
    <glyph glyph-name="Eacute" unicode="&#xc9;" horiz-adv-x="566" 
d="M541 0l-520.998 -0.00195312v30h10c19.333 0.666992 35 2.33398 47 5.00098s19.667 6.33398 23 11.001s6 13.5 8 26.5s3 30.5 3 52.5v471c0 21.333 -1 38.5 -3 51.5s-4.66699 21.833 -8 26.5c-3.33301 4 -11 7.5 -23 10.5s-27.667 4.83301 -47 5.5l-10 2v30h495v-126h-55
l-1 9c-0.666992 22 -1.83398 39 -3.50098 51s-3.83398 19 -6.50098 21c-2 1.33301 -9.5 2.5 -22.5 3.5s-31.5 1.5 -55.5 1.5l-158 1v-289l133 1c14.667 -0.666992 26.5 -0.666992 35.5 0s15.167 1.66699 18.5 3s6 6 8 14s3.33301 18.667 4 32v10h39v-159h-39v9
c-0.666992 11.333 -2 20.666 -4 27.999s-4.66699 12.333 -8 15s-9.5 4.5 -18.5 5.5s-20.833 1.5 -35.5 1.5l-133 1v-229c0 -19.333 1.16699 -34.833 3.5 -46.5s5.83301 -20.167 10.5 -25.5c4.66699 -4.66699 12.667 -8.16699 24 -10.5s26.333 -3.5 45 -3.5l78 1
c28.667 -0.666992 51 -0.166992 67 1.5s26 3.83398 30 6.50098c4 3.33301 7.5 11 10.5 23s4.83301 28.667 5.5 50v10h54v-132v0zM308.002 926.998h111l-171 -144h-45l105 144v0z" />
    <glyph glyph-name="Ecircumflex" unicode="&#xca;" horiz-adv-x="566" 
d="M541 0l-520.998 -0.00195312v30h10c19.333 0.666992 35 2.33398 47 5.00098s19.667 6.33398 23 11.001s6 13.5 8 26.5s3 30.5 3 52.5v471c0 21.333 -1 38.5 -3 51.5s-4.66699 21.833 -8 26.5c-3.33301 4 -11 7.5 -23 10.5s-27.667 4.83301 -47 5.5l-10 2v30h495v-126h-55
l-1 9c-0.666992 22 -1.83398 39 -3.50098 51s-3.83398 19 -6.50098 21c-2 1.33301 -9.5 2.5 -22.5 3.5s-31.5 1.5 -55.5 1.5l-158 1v-289l133 1c14.667 -0.666992 26.5 -0.666992 35.5 0s15.167 1.66699 18.5 3s6 6 8 14s3.33301 18.667 4 32v10h39v-159h-39v9
c-0.666992 11.333 -2 20.666 -4 27.999s-4.66699 12.333 -8 15s-9.5 4.5 -18.5 5.5s-20.833 1.5 -35.5 1.5l-133 1v-229c0 -19.333 1.16699 -34.833 3.5 -46.5s5.83301 -20.167 10.5 -25.5c4.66699 -4.66699 12.667 -8.16699 24 -10.5s26.333 -3.5 45 -3.5l78 1
c28.667 -0.666992 51 -0.166992 67 1.5s26 3.83398 30 6.50098c4 3.33301 7.5 11 10.5 23s4.83301 28.667 5.5 50v10h54v-132v0zM129.002 782.998l108 144h109l108 -144h-42l-121 96l-120 -96h-42v0z" />
    <glyph glyph-name="Edieresis" unicode="&#xcb;" horiz-adv-x="566" 
d="M541 0l-520.998 -0.00195312v30h10c19.333 0.666992 35 2.33398 47 5.00098s19.667 6.33398 23 11.001s6 13.5 8 26.5s3 30.5 3 52.5v471c0 21.333 -1 38.5 -3 51.5s-4.66699 21.833 -8 26.5c-3.33301 4 -11 7.5 -23 10.5s-27.667 4.83301 -47 5.5l-10 2v30h495v-126h-55
l-1 9c-0.666992 22 -1.83398 39 -3.50098 51s-3.83398 19 -6.50098 21c-2 1.33301 -9.5 2.5 -22.5 3.5s-31.5 1.5 -55.5 1.5l-158 1v-289l133 1c14.667 -0.666992 26.5 -0.666992 35.5 0s15.167 1.66699 18.5 3s6 6 8 14s3.33301 18.667 4 32v10h39v-159h-39v9
c-0.666992 11.333 -2 20.666 -4 27.999s-4.66699 12.333 -8 15s-9.5 4.5 -18.5 5.5s-20.833 1.5 -35.5 1.5l-133 1v-229c0 -19.333 1.16699 -34.833 3.5 -46.5s5.83301 -20.167 10.5 -25.5c4.66699 -4.66699 12.667 -8.16699 24 -10.5s26.333 -3.5 45 -3.5l78 1
c28.667 -0.666992 51 -0.166992 67 1.5s26 3.83398 30 6.50098c4 3.33301 7.5 11 10.5 23s4.83301 28.667 5.5 50v10h54v-132v0zM159.002 782.998v84h84v-84h-84v0zM352.002 782.998v84h84v-84h-84v0z" />
    <glyph glyph-name="Igrave" unicode="&#xcc;" horiz-adv-x="325" 
d="M304 30v-30.001h-284v30h10c19.333 0.666992 35 2.33398 47 5.00098s19.667 6.33398 23 11.001s6 13.5 8 26.5s3 30.5 3 52.5v471c0 21.333 -1 38.5 -3 51.5s-4.66699 21.833 -8 26.5c-3.33301 4 -11 7.5 -23 10.5s-27.667 4.83301 -47 5.5l-10 2v30h284v-30l-10 -1
c-19.333 -1.33301 -35 -3.5 -47 -6.5s-19.667 -6.5 -23 -10.5c-3.33301 -4.66699 -6 -13.5 -8 -26.5s-3 -30.5 -3 -52.5v-469c0 -22.667 1 -40.5 3 -53.5s4.66699 -21.833 8 -26.5s11 -8.33398 23 -11.001s27.667 -4.66699 47 -6l10 1v0zM40 926.999h111l106 -144h-45
l-172 144v0z" />
    <glyph glyph-name="Iacute" unicode="&#xcd;" horiz-adv-x="325" 
d="M304 30v-30.001h-284v30h10c19.333 0.666992 35 2.33398 47 5.00098s19.667 6.33398 23 11.001s6 13.5 8 26.5s3 30.5 3 52.5v471c0 21.333 -1 38.5 -3 51.5s-4.66699 21.833 -8 26.5c-3.33301 4 -11 7.5 -23 10.5s-27.667 4.83301 -47 5.5l-10 2v30h284v-30l-10 -1
c-19.333 -1.33301 -35 -3.5 -47 -6.5s-19.667 -6.5 -23 -10.5c-3.33301 -4.66699 -6 -13.5 -8 -26.5s-3 -30.5 -3 -52.5v-469c0 -22.667 1 -40.5 3 -53.5s4.66699 -21.833 8 -26.5s11 -8.33398 23 -11.001s27.667 -4.66699 47 -6l10 1v0zM185 926.999h111l-171 -144h-45
l105 144v0z" />
    <glyph glyph-name="Icircumflex" unicode="&#xce;" horiz-adv-x="325" 
d="M304 30v-30.001h-284v30h10c19.333 0.666992 35 2.33398 47 5.00098s19.667 6.33398 23 11.001s6 13.5 8 26.5s3 30.5 3 52.5v471c0 21.333 -1 38.5 -3 51.5s-4.66699 21.833 -8 26.5c-3.33301 4 -11 7.5 -23 10.5s-27.667 4.83301 -47 5.5l-10 2v30h284v-30l-10 -1
c-19.333 -1.33301 -35 -3.5 -47 -6.5s-19.667 -6.5 -23 -10.5c-3.33301 -4.66699 -6 -13.5 -8 -26.5s-3 -30.5 -3 -52.5v-469c0 -22.667 1 -40.5 3 -53.5s4.66699 -21.833 8 -26.5s11 -8.33398 23 -11.001s27.667 -4.66699 47 -6l10 1v0zM0 782.999l108 144h108l109 -144
h-42l-121 96l-121 -96h-41v0z" />
    <glyph glyph-name="Idieresis" unicode="&#xcf;" horiz-adv-x="325" 
d="M304 30v-30.001h-284v30h10c19.333 0.666992 35 2.33398 47 5.00098s19.667 6.33398 23 11.001s6 13.5 8 26.5s3 30.5 3 52.5v471c0 21.333 -1 38.5 -3 51.5s-4.66699 21.833 -8 26.5c-3.33301 4 -11 7.5 -23 10.5s-27.667 4.83301 -47 5.5l-10 2v30h284v-30l-10 -1
c-19.333 -1.33301 -35 -3.5 -47 -6.5s-19.667 -6.5 -23 -10.5c-3.33301 -4.66699 -6 -13.5 -8 -26.5s-3 -30.5 -3 -52.5v-469c0 -22.667 1 -40.5 3 -53.5s4.66699 -21.833 8 -26.5s11 -8.33398 23 -11.001s27.667 -4.66699 47 -6l10 1v0zM23 782.999v84h85v-84h-85v0z
M216 782.999v84h85v-84h-85v0z" />
    <glyph glyph-name="Eth" unicode="&#xd0;" 
 />
    <glyph glyph-name="Ntilde" unicode="&#xd1;" horiz-adv-x="751" 
d="M605 -9l-448 604.001v-469c0 -22.667 0.833008 -40.667 2.5 -54s4.16699 -22 7.5 -26c4 -4 11.833 -7.5 23.5 -10.5s27.5 -5.16699 47.5 -6.5l9 1v-30h-226v30h9c20 0.666992 35.833 2.5 47.5 5.5s19.5 6.5 23.5 10.5c3.33301 4 5.83301 12.667 7.5 26s2.5 31 2.5 53v471
c0 21.333 -0.833008 38.666 -2.5 51.999s-4.16699 22 -7.5 26c-4 4 -11.833 7.5 -23.5 10.5s-27.5 4.83301 -47.5 5.5l-10 2v30h163l412 -561v435c0 21.333 -0.833008 38.5 -2.5 51.5s-4.5 21.833 -8.5 26.5c-3.33301 4 -11 7.5 -23 10.5s-27.667 4.83301 -47 5.5l-9 2v30
h225v-30l-9 -1c-20 -1.33301 -35.833 -3.5 -47.5 -6.5s-19.5 -6.5 -23.5 -10.5c-3.33301 -4.66699 -5.83301 -13.5 -7.5 -26.5s-2.5 -30.5 -2.5 -52.5v-604h-35v0zM216 783.001c6 37.333 18.501 65.499 37.501 84.499s43.833 28.5 74.5 28.5c8.66699 0 17.667 -1.5 27 -4.5
s19 -7.5 29 -13.5l17 -10c8.66699 -6 17.334 -10.333 26.001 -13s17.334 -4 26.001 -4c15.333 0 27.833 3.83301 37.5 11.5s16.167 18.834 19.5 33.501l30 1c-6.66699 -38.667 -19.334 -67.5 -38.001 -86.5s-43.334 -28.5 -74.001 -28.5c-8.66699 0 -17.667 1.5 -27 4.5
s-19 7.5 -29 13.5l-17 12c-8.66699 4.66699 -17.5 8.5 -26.5 11.5s-17.5 4.5 -25.5 4.5c-14.667 0 -26.834 -3.83301 -36.501 -11.5s-16.5 -19.167 -20.5 -34.5l-30 1v0z" />
    <glyph glyph-name="Ograve" unicode="&#xd2;" horiz-adv-x="776" 
d="M388 -18c-52 0 -98.667 8.16699 -140 24.5s-77 41.5 -107 75.5s-52.5 74.167 -67.5 120.5s-22.5 98.833 -22.5 157.5s7.5 111.167 22.5 157.5s37.5 86.5 67.5 120.5c30 33.333 65.667 58.5 107 75.5s88 25.5 140 25.5c52.667 0 99.5 -8.5 140.5 -25.5
s76.5 -42.167 106.5 -75.5c30 -34 52.667 -74.167 68 -120.5s23 -98.833 23 -157.5s-7.66699 -111.167 -23 -157.5s-38 -86.5 -68 -120.5s-65.5 -59.167 -106.5 -75.5s-87.833 -24.5 -140.5 -24.5v0zM388 15c36 -0.666992 68 6.5 96 21.5s52 37.833 72 68.5
c20.667 31.333 36 68 46 110s15 90.333 15 145c0 54 -5 102.167 -15 144.5s-25.333 78.833 -46 109.5c-20 31.333 -44 54.666 -72 69.999s-60 23 -96 23c-35.333 0 -67.166 -7.66699 -95.499 -23s-52.5 -38.666 -72.5 -69.999c-20.667 -30.667 -36 -67.167 -46 -109.5
s-15 -90.5 -15 -144.5c0 -54.667 5 -103 15 -145s25.333 -78.667 46 -110c20 -30.667 44.167 -53.5 72.5 -68.5s60.166 -22.5 95.499 -22.5v1zM266 927h111l106 -144h-45l-172 144v0z" />
    <glyph glyph-name="Oacute" unicode="&#xd3;" horiz-adv-x="776" 
d="M388 -18c-52 0 -98.667 8.16699 -140 24.5s-77 41.5 -107 75.5s-52.5 74.167 -67.5 120.5s-22.5 98.833 -22.5 157.5s7.5 111.167 22.5 157.5s37.5 86.5 67.5 120.5c30 33.333 65.667 58.5 107 75.5s88 25.5 140 25.5c52.667 0 99.5 -8.5 140.5 -25.5
s76.5 -42.167 106.5 -75.5c30 -34 52.667 -74.167 68 -120.5s23 -98.833 23 -157.5s-7.66699 -111.167 -23 -157.5s-38 -86.5 -68 -120.5s-65.5 -59.167 -106.5 -75.5s-87.833 -24.5 -140.5 -24.5v0zM388 15c36 -0.666992 68 6.5 96 21.5s52 37.833 72 68.5
c20.667 31.333 36 68 46 110s15 90.333 15 145c0 54 -5 102.167 -15 144.5s-25.333 78.833 -46 109.5c-20 31.333 -44 54.666 -72 69.999s-60 23 -96 23c-35.333 0 -67.166 -7.66699 -95.499 -23s-52.5 -38.666 -72.5 -69.999c-20.667 -30.667 -36 -67.167 -46 -109.5
s-15 -90.5 -15 -144.5c0 -54.667 5 -103 15 -145s25.333 -78.667 46 -110c20 -30.667 44.167 -53.5 72.5 -68.5s60.166 -22.5 95.499 -22.5v1zM417 927h111l-171 -144h-45l105 144v0z" />
    <glyph glyph-name="Ocircumflex" unicode="&#xd4;" horiz-adv-x="776" 
d="M388 -18c-52 0 -98.667 8.16699 -140 24.5s-77 41.5 -107 75.5s-52.5 74.167 -67.5 120.5s-22.5 98.833 -22.5 157.5s7.5 111.167 22.5 157.5s37.5 86.5 67.5 120.5c30 33.333 65.667 58.5 107 75.5s88 25.5 140 25.5c52.667 0 99.5 -8.5 140.5 -25.5
s76.5 -42.167 106.5 -75.5c30 -34 52.667 -74.167 68 -120.5s23 -98.833 23 -157.5s-7.66699 -111.167 -23 -157.5s-38 -86.5 -68 -120.5s-65.5 -59.167 -106.5 -75.5s-87.833 -24.5 -140.5 -24.5v0zM388 15c36 -0.666992 68 6.5 96 21.5s52 37.833 72 68.5
c20.667 31.333 36 68 46 110s15 90.333 15 145c0 54 -5 102.167 -15 144.5s-25.333 78.833 -46 109.5c-20 31.333 -44 54.666 -72 69.999s-60 23 -96 23c-35.333 0 -67.166 -7.66699 -95.499 -23s-52.5 -38.666 -72.5 -69.999c-20.667 -30.667 -36 -67.167 -46 -109.5
s-15 -90.5 -15 -144.5c0 -54.667 5 -103 15 -145s25.333 -78.667 46 -110c20 -30.667 44.167 -53.5 72.5 -68.5s60.166 -22.5 95.499 -22.5v1zM226 783l108 144h108l109 -144h-42l-121 96l-120 -96h-42v0z" />
    <glyph glyph-name="Otilde" unicode="&#xd5;" horiz-adv-x="776" 
d="M388 -18c-52 0 -98.667 8.16699 -140 24.5s-77 41.5 -107 75.5s-52.5 74.167 -67.5 120.5s-22.5 98.833 -22.5 157.5s7.5 111.167 22.5 157.5s37.5 86.5 67.5 120.5c30 33.333 65.667 58.5 107 75.5s88 25.5 140 25.5c52.667 0 99.5 -8.5 140.5 -25.5
s76.5 -42.167 106.5 -75.5c30 -34 52.667 -74.167 68 -120.5s23 -98.833 23 -157.5s-7.66699 -111.167 -23 -157.5s-38 -86.5 -68 -120.5s-65.5 -59.167 -106.5 -75.5s-87.833 -24.5 -140.5 -24.5v0zM388 15c36 -0.666992 68 6.5 96 21.5s52 37.833 72 68.5
c20.667 31.333 36 68 46 110s15 90.333 15 145c0 54 -5 102.167 -15 144.5s-25.333 78.833 -46 109.5c-20 31.333 -44 54.666 -72 69.999s-60 23 -96 23c-35.333 0 -67.166 -7.66699 -95.499 -23s-52.5 -38.666 -72.5 -69.999c-20.667 -30.667 -36 -67.167 -46 -109.5
s-15 -90.5 -15 -144.5c0 -54.667 5 -103 15 -145s25.333 -78.667 46 -110c20 -30.667 44.167 -53.5 72.5 -68.5s60.166 -22.5 95.499 -22.5v1zM229 783c6 37.333 18.333 65.499 37 84.499s43.334 28.5 74.001 28.5c8.66699 0 17.667 -1.5 27 -4.5s19 -7.5 29 -13.5l18 -10
c8.66699 -6 17.167 -10.333 25.5 -13s16.833 -4 25.5 -4c16 0 28.833 3.83301 38.5 11.5s15.834 18.834 18.501 33.501l31 1c-6.66699 -38.667 -19.334 -67.5 -38.001 -86.5s-43.667 -28.5 -75 -28.5c-8.66699 0 -17.5 1.5 -26.5 4.5s-18.5 7.5 -28.5 13.5l-17 12
c-8.66699 4.66699 -17.5 8.5 -26.5 11.5s-17.5 4.5 -25.5 4.5c-14.667 0 -26.834 -3.83301 -36.501 -11.5s-16.5 -19.167 -20.5 -34.5l-30 1v0z" />
    <glyph glyph-name="Odieresis" unicode="&#xd6;" horiz-adv-x="776" 
d="M388 -18c-52 0 -98.667 8.16699 -140 24.5s-77 41.5 -107 75.5s-52.5 74.167 -67.5 120.5s-22.5 98.833 -22.5 157.5s7.5 111.167 22.5 157.5s37.5 86.5 67.5 120.5c30 33.333 65.667 58.5 107 75.5s88 25.5 140 25.5c52.667 0 99.5 -8.5 140.5 -25.5
s76.5 -42.167 106.5 -75.5c30 -34 52.667 -74.167 68 -120.5s23 -98.833 23 -157.5s-7.66699 -111.167 -23 -157.5s-38 -86.5 -68 -120.5s-65.5 -59.167 -106.5 -75.5s-87.833 -24.5 -140.5 -24.5v0zM388 15c36 -0.666992 68 6.5 96 21.5s52 37.833 72 68.5
c20.667 31.333 36 68 46 110s15 90.333 15 145c0 54 -5 102.167 -15 144.5s-25.333 78.833 -46 109.5c-20 31.333 -44 54.666 -72 69.999s-60 23 -96 23c-35.333 0 -67.166 -7.66699 -95.499 -23s-52.5 -38.666 -72.5 -69.999c-20.667 -30.667 -36 -67.167 -46 -109.5
s-15 -90.5 -15 -144.5c0 -54.667 5 -103 15 -145s25.333 -78.667 46 -110c20 -30.667 44.167 -53.5 72.5 -68.5s60.166 -22.5 95.499 -22.5v1zM250 783v84h84v-84h-84v0zM442 783v84h85v-84h-85v0z" />
    <glyph glyph-name="multiply" unicode="&#xd7;" 
 />
    <glyph glyph-name="Oslash" unicode="&#xd8;" horiz-adv-x="776" 
d="M166 60l-67.001 -78.002h-48l89 104c-30 34.667 -52.333 75.5 -67 122.5s-22 100.5 -22 160.5c0 55.333 7.66699 105.5 23 150.5s38.333 84.5 69 118.5c30.667 33.333 66.167 58.5 106.5 75.5s85.5 25.5 135.5 25.5c43.333 0 84.333 -6.83301 123 -20.5
s74.667 -34.167 108 -61.5l66 83h44l-84 -109c28 -35.333 49 -76.333 63 -123s21 -98.667 21 -156c0 -56.667 -7.66699 -107.667 -23 -153s-38.666 -84.666 -69.999 -117.999c-30.667 -33.333 -66.667 -58.166 -108 -74.499s-88 -24.5 -140 -24.5
c-41.333 0 -80.333 6.33301 -117 19s-70.667 32 -102 58v1zM214.999 116.998c19.333 -34.667 43.167 -60.5 71.5 -77.5s61.833 -25.5 100.5 -25.5c36 0 68 7.5 96 22.5s52.333 37.833 73 68.5s36 67 46 109s15 90 15 144c0 38.667 -2.66699 75 -8 109s-13 65.667 -23 95
l-371 -445v0zM196 153.998l371.001 445.998c-20.667 35.333 -45.834 62 -75.501 80s-64.167 27 -103.5 27c-35.333 0 -67 -7.66699 -95 -23s-52.333 -38.666 -73 -69.999c-20 -30.667 -35.167 -66.667 -45.5 -108s-15.5 -88.666 -15.5 -141.999c0 -42 3 -80.5 9 -115.5
s15.333 -66.833 28 -95.5v1z" />
    <glyph glyph-name="Ugrave" unicode="&#xd9;" horiz-adv-x="718" 
d="M7 692v29.999h285v-30l-9 -1c-20 -1.33301 -35.833 -3.5 -47.5 -6.5s-19.5 -6.5 -23.5 -10.5c-3.33301 -4 -5.83301 -12.667 -7.5 -26s-2.5 -31 -2.5 -53v-308c0 -38 0.5 -69.333 1.5 -94s2.5 -42.667 4.5 -54c1.33301 -11.333 4.5 -22.333 9.5 -33
s11.5 -21.334 19.5 -32.001c15.333 -20.667 34.833 -36 58.5 -46s51.167 -15 82.5 -15c29.333 0 55.833 4.33301 79.5 13s44.5 22 62.5 40c10 10.667 18.333 21.5 25 32.5s11.334 22.5 14.001 34.5c3.33301 12.667 5.66602 29.834 6.99902 51.501s2 48.167 2 79.5v332
c0 21.333 -1 38.5 -3 51.5s-4.66699 21.833 -8 26.5c-3.33301 4 -11 7.5 -23 10.5s-28 4.83301 -48 5.5l-8 2v30h231v-30l-9 -1c-20 -1.33301 -36 -3.5 -48 -6.5s-19.667 -6.5 -23 -10.5s-5.83301 -12.667 -7.5 -26s-2.5 -31 -2.5 -53v-302c0 -34 -1 -63.333 -3 -88
s-5 -45 -9 -61c-3.33301 -15.333 -8.83301 -30.333 -16.5 -45s-17.167 -28.667 -28.5 -42c-20.667 -25.333 -47.5 -44.166 -80.5 -56.499s-71.5 -18.5 -115.5 -18.5c-89.333 0 -156.333 23.833 -201 71.5s-67 119.5 -67 215.5v327c0 21.333 -1 38.5 -3 51.5
s-4.66699 21.833 -8 26.5c-4 4 -11.833 7.5 -23.5 10.5s-27.167 4.83301 -46.5 5.5l-10 2v0zM236 926.999h112l105 -144h-45l-172 144v0z" />
    <glyph glyph-name="Uacute" unicode="&#xda;" horiz-adv-x="718" 
d="M7 692v29.999h285v-30l-9 -1c-20 -1.33301 -35.833 -3.5 -47.5 -6.5s-19.5 -6.5 -23.5 -10.5c-3.33301 -4 -5.83301 -12.667 -7.5 -26s-2.5 -31 -2.5 -53v-308c0 -38 0.5 -69.333 1.5 -94s2.5 -42.667 4.5 -54c1.33301 -11.333 4.5 -22.333 9.5 -33
s11.5 -21.334 19.5 -32.001c15.333 -20.667 34.833 -36 58.5 -46s51.167 -15 82.5 -15c29.333 0 55.833 4.33301 79.5 13s44.5 22 62.5 40c10 10.667 18.333 21.5 25 32.5s11.334 22.5 14.001 34.5c3.33301 12.667 5.66602 29.834 6.99902 51.501s2 48.167 2 79.5v332
c0 21.333 -1 38.5 -3 51.5s-4.66699 21.833 -8 26.5c-3.33301 4 -11 7.5 -23 10.5s-28 4.83301 -48 5.5l-8 2v30h231v-30l-9 -1c-20 -1.33301 -36 -3.5 -48 -6.5s-19.667 -6.5 -23 -10.5s-5.83301 -12.667 -7.5 -26s-2.5 -31 -2.5 -53v-302c0 -34 -1 -63.333 -3 -88
s-5 -45 -9 -61c-3.33301 -15.333 -8.83301 -30.333 -16.5 -45s-17.167 -28.667 -28.5 -42c-20.667 -25.333 -47.5 -44.166 -80.5 -56.499s-71.5 -18.5 -115.5 -18.5c-89.333 0 -156.333 23.833 -201 71.5s-67 119.5 -67 215.5v327c0 21.333 -1 38.5 -3 51.5
s-4.66699 21.833 -8 26.5c-4 4 -11.833 7.5 -23.5 10.5s-27.167 4.83301 -46.5 5.5l-10 2v0zM393 926.999h111l-171 -144h-45l105 144v0z" />
    <glyph glyph-name="Ucircumflex" unicode="&#xdb;" horiz-adv-x="718" 
d="M7 692v29.999h285v-30l-9 -1c-20 -1.33301 -35.833 -3.5 -47.5 -6.5s-19.5 -6.5 -23.5 -10.5c-3.33301 -4 -5.83301 -12.667 -7.5 -26s-2.5 -31 -2.5 -53v-308c0 -38 0.5 -69.333 1.5 -94s2.5 -42.667 4.5 -54c1.33301 -11.333 4.5 -22.333 9.5 -33
s11.5 -21.334 19.5 -32.001c15.333 -20.667 34.833 -36 58.5 -46s51.167 -15 82.5 -15c29.333 0 55.833 4.33301 79.5 13s44.5 22 62.5 40c10 10.667 18.333 21.5 25 32.5s11.334 22.5 14.001 34.5c3.33301 12.667 5.66602 29.834 6.99902 51.501s2 48.167 2 79.5v332
c0 21.333 -1 38.5 -3 51.5s-4.66699 21.833 -8 26.5c-3.33301 4 -11 7.5 -23 10.5s-28 4.83301 -48 5.5l-8 2v30h231v-30l-9 -1c-20 -1.33301 -36 -3.5 -48 -6.5s-19.667 -6.5 -23 -10.5s-5.83301 -12.667 -7.5 -26s-2.5 -31 -2.5 -53v-302c0 -34 -1 -63.333 -3 -88
s-5 -45 -9 -61c-3.33301 -15.333 -8.83301 -30.333 -16.5 -45s-17.167 -28.667 -28.5 -42c-20.667 -25.333 -47.5 -44.166 -80.5 -56.499s-71.5 -18.5 -115.5 -18.5c-89.333 0 -156.333 23.833 -201 71.5s-67 119.5 -67 215.5v327c0 21.333 -1 38.5 -3 51.5
s-4.66699 21.833 -8 26.5c-4 4 -11.833 7.5 -23.5 10.5s-27.167 4.83301 -46.5 5.5l-10 2v0zM220 782.999l108 144h109l108 -144h-42l-121 96l-120 -96h-42v0z" />
    <glyph glyph-name="Udieresis" unicode="&#xdc;" horiz-adv-x="718" 
d="M7 692v29.999h285v-30l-9 -1c-20 -1.33301 -35.833 -3.5 -47.5 -6.5s-19.5 -6.5 -23.5 -10.5c-3.33301 -4 -5.83301 -12.667 -7.5 -26s-2.5 -31 -2.5 -53v-308c0 -38 0.5 -69.333 1.5 -94s2.5 -42.667 4.5 -54c1.33301 -11.333 4.5 -22.333 9.5 -33
s11.5 -21.334 19.5 -32.001c15.333 -20.667 34.833 -36 58.5 -46s51.167 -15 82.5 -15c29.333 0 55.833 4.33301 79.5 13s44.5 22 62.5 40c10 10.667 18.333 21.5 25 32.5s11.334 22.5 14.001 34.5c3.33301 12.667 5.66602 29.834 6.99902 51.501s2 48.167 2 79.5v332
c0 21.333 -1 38.5 -3 51.5s-4.66699 21.833 -8 26.5c-3.33301 4 -11 7.5 -23 10.5s-28 4.83301 -48 5.5l-8 2v30h231v-30l-9 -1c-20 -1.33301 -36 -3.5 -48 -6.5s-19.667 -6.5 -23 -10.5s-5.83301 -12.667 -7.5 -26s-2.5 -31 -2.5 -53v-302c0 -34 -1 -63.333 -3 -88
s-5 -45 -9 -61c-3.33301 -15.333 -8.83301 -30.333 -16.5 -45s-17.167 -28.667 -28.5 -42c-20.667 -25.333 -47.5 -44.166 -80.5 -56.499s-71.5 -18.5 -115.5 -18.5c-89.333 0 -156.333 23.833 -201 71.5s-67 119.5 -67 215.5v327c0 21.333 -1 38.5 -3 51.5
s-4.66699 21.833 -8 26.5c-4 4 -11.833 7.5 -23.5 10.5s-27.167 4.83301 -46.5 5.5l-10 2v0zM238 782.999v84h84v-84h-84v0zM431 782.999v84h84v-84h-84v0z" />
    <glyph glyph-name="Yacute" unicode="&#xdd;" horiz-adv-x="677" 
d="M283 320l-165.001 273.001l-41 64.5l-17 25.5c-2 2 -7.16699 3.5 -15.5 4.5s-20.166 1.83301 -35.499 2.5l-9 2v30h280v-30h-10c-22.667 -0.666992 -40 -2.33398 -52 -5.00098s-18 -6.66699 -18 -12v-0.5v-1.5c0 -5.33301 3.33301 -14.666 10 -27.999s16.667 -31 30 -53
l135 -227l141 227c14 22 24.5 40 31.5 54s10.5 23.667 10.5 29s-5.66699 9.33301 -17 12s-28.333 4 -51 4l-9 1v30h196v-30l-9 -1c-16 -1.33301 -28.5 -2.83301 -37.5 -4.5s-14.833 -3.5 -17.5 -5.5c-2.66699 -2.66699 -8.83398 -11.334 -18.501 -26.001l-40.5 -63
l-169 -272v-194c0 -22.667 1 -40.667 3 -54s4.66699 -22 8 -26s10.833 -7.5 22.5 -10.5s27.5 -5.16699 47.5 -6.5l10 1v-30h-284v30h9c20.667 0.666992 36.834 2.5 48.501 5.5s19.167 6.5 22.5 10.5s6 12.667 8 26s3 31 3 53v195v0zM382.999 927.001h111l-171 -144h-46
l106 144v0z" />
    <glyph glyph-name="Thorn" unicode="&#xde;" 
 />
    <glyph glyph-name="germandbls" unicode="&#xdf;" horiz-adv-x="614" 
d="M304 1l-0.00195312 109.998h48l1 -9c1.33301 -19.333 3 -35 5 -47s4.66699 -20.333 8 -25s8.83301 -8 16.5 -10s17.834 -3 30.501 -3c13.333 0 25.166 2 35.499 6s19.5 10 27.5 18c8 8.66699 14 18.5 18 29.5s6 23.167 6 36.5c0 18 -5 35.667 -15 53
s-24.667 34.333 -44 51l-92 82c-22 18.667 -38.5 37.834 -49.5 57.501s-16.5 39.5 -16.5 59.5c0 12 3.16699 25 9.5 39s15.833 29.333 28.5 46l13 18c13.333 16 23.166 33.667 29.499 53s9.5 40.333 9.5 63c0 20.667 -1.66699 38.667 -5 54s-8.66602 28 -15.999 38
c-6.66699 10 -15.334 17.5 -26.001 22.5s-23 7.5 -37 7.5c-15.333 0 -28.5 -2.83301 -39.5 -8.5s-19.833 -14.5 -26.5 -26.5s-11.5 -28.333 -14.5 -49s-4.5 -45.667 -4.5 -75v-466c0 -21.333 0.833008 -38.5 2.5 -51.5s3.83398 -22.167 6.50098 -27.5
c2.66699 -4.66699 7.66699 -8.5 15 -11.5s16.333 -5.16699 27 -6.5l10 1v-30h-247v30h9c19.333 0.666992 35 2.33398 47 5.00098s19.667 6.33398 23 11.001s6 13.5 8 26.5s3 30.5 3 52.5v417c0 44.667 3.33301 82.5 10 113.5s16.667 55.5 30 73.5
c13.333 17.333 31.5 30.5 54.5 39.5s51.5 13.5 85.5 13.5c26 0 49.5 -3 70.5 -9s39.5 -15 55.5 -27c16.667 -12.667 29 -26.667 37 -42s12 -32.666 12 -51.999c0 -14.667 -5.5 -31.334 -16.5 -50.001s-27.167 -39.334 -48.5 -62.001l-18 -19
c-12.667 -13.333 -22 -25.666 -28 -36.999s-9 -21.666 -9 -30.999c0 -10.667 4.83301 -22.834 14.5 -36.501s23.834 -28.5 42.501 -44.5l86 -72c30.667 -26.667 53.667 -53.167 69 -79.5s23 -52.833 23 -79.5c0 -22 -4 -42.167 -12 -60.5s-19.667 -35.166 -35 -50.499
c-16 -14.667 -33.833 -25.334 -53.5 -32.001s-41.167 -10 -64.5 -10c-16.667 0 -34.167 1.16699 -52.5 3.5s-37.166 5.16602 -56.499 8.49902v1z" />
    <glyph glyph-name="agrave" unicode="&#xe0;" horiz-adv-x="542" 
d="M375 72c-28.667 -28.667 -56.998 -49.835 -84.998 -63.502s-56 -20.5 -84 -20.5c-22.667 0 -43.334 3.33301 -62.001 10s-35.667 17 -51 31c-14.667 14.667 -25.834 30.834 -33.501 48.501s-11.5 37.167 -11.5 58.5c0 25.333 4.83301 48 14.5 68s24.5 38 44.5 54
c22 18 52 31.5 90 40.5s83.333 13.5 136 13.5l21 1v66c0 40.667 -8 71.5 -24 92.5s-40 31.5 -72 31.5c-14.667 0 -28.5 -2.16699 -41.5 -6.5s-25.167 -11.166 -36.5 -20.499c-6.66699 -6 -12.167 -14.5 -16.5 -25.5s-7.5 -25.167 -9.5 -42.5v-8h-66v97
c34 14 66.833 24.667 98.5 32s61.834 11 90.501 11c57.333 0 100.5 -13.167 129.5 -39.5s43.5 -65.833 43.5 -118.5v-236c0 -21.333 0.833008 -39.5 2.5 -54.5s4.5 -26.833 8.5 -35.5c3.33301 -8.66699 8.33301 -15.167 15 -19.5s14.334 -6.5 23.001 -6.5
c3.33301 0 7.16602 0.333008 11.499 1s9.16602 2 14.499 4l3 -35c-12 -4 -23 -7 -33 -9s-19.667 -3 -29 -3c-24 0 -43.5 6.83301 -58.5 20.5s-25.833 34.5 -32.5 62.5v1zM354.002 82.999v199.999h-23c-28.667 -0.666992 -54 -4 -76 -10s-41 -14.667 -57 -26
c-16 -12 -28 -26 -36 -42s-12 -34.333 -12 -55c0 -15.333 2.5 -29.333 7.5 -42s12.5 -24 22.5 -34s21.167 -17.667 33.5 -23s25.833 -8 40.5 -8c14 0 29.333 3.33301 46 10s34.667 16.334 54 29.001v1zM152.002 769.998h111l106 -144h-45l-172 144v0z" />
    <glyph glyph-name="aacute" unicode="&#xe1;" horiz-adv-x="542" 
d="M375 72c-28.667 -28.667 -56.998 -49.835 -84.998 -63.502s-56 -20.5 -84 -20.5c-22.667 0 -43.334 3.33301 -62.001 10s-35.667 17 -51 31c-14.667 14.667 -25.834 30.834 -33.501 48.501s-11.5 37.167 -11.5 58.5c0 25.333 4.83301 48 14.5 68s24.5 38 44.5 54
c22 18 52 31.5 90 40.5s83.333 13.5 136 13.5l21 1v66c0 40.667 -8 71.5 -24 92.5s-40 31.5 -72 31.5c-14.667 0 -28.5 -2.16699 -41.5 -6.5s-25.167 -11.166 -36.5 -20.499c-6.66699 -6 -12.167 -14.5 -16.5 -25.5s-7.5 -25.167 -9.5 -42.5v-8h-66v97
c34 14 66.833 24.667 98.5 32s61.834 11 90.501 11c57.333 0 100.5 -13.167 129.5 -39.5s43.5 -65.833 43.5 -118.5v-236c0 -21.333 0.833008 -39.5 2.5 -54.5s4.5 -26.833 8.5 -35.5c3.33301 -8.66699 8.33301 -15.167 15 -19.5s14.334 -6.5 23.001 -6.5
c3.33301 0 7.16602 0.333008 11.499 1s9.16602 2 14.499 4l3 -35c-12 -4 -23 -7 -33 -9s-19.667 -3 -29 -3c-24 0 -43.5 6.83301 -58.5 20.5s-25.833 34.5 -32.5 62.5v1zM354.002 82.999v199.999h-23c-28.667 -0.666992 -54 -4 -76 -10s-41 -14.667 -57 -26
c-16 -12 -28 -26 -36 -42s-12 -34.333 -12 -55c0 -15.333 2.5 -29.333 7.5 -42s12.5 -24 22.5 -34s21.167 -17.667 33.5 -23s25.833 -8 40.5 -8c14 0 29.333 3.33301 46 10s34.667 16.334 54 29.001v1zM285.002 769.998h111l-171 -144h-46l106 144v0z" />
    <glyph glyph-name="acircumflex" unicode="&#xe2;" horiz-adv-x="542" 
d="M375 72c-28.667 -28.667 -56.998 -49.835 -84.998 -63.502s-56 -20.5 -84 -20.5c-22.667 0 -43.334 3.33301 -62.001 10s-35.667 17 -51 31c-14.667 14.667 -25.834 30.834 -33.501 48.501s-11.5 37.167 -11.5 58.5c0 25.333 4.83301 48 14.5 68s24.5 38 44.5 54
c22 18 52 31.5 90 40.5s83.333 13.5 136 13.5l21 1v66c0 40.667 -8 71.5 -24 92.5s-40 31.5 -72 31.5c-14.667 0 -28.5 -2.16699 -41.5 -6.5s-25.167 -11.166 -36.5 -20.499c-6.66699 -6 -12.167 -14.5 -16.5 -25.5s-7.5 -25.167 -9.5 -42.5v-8h-66v97
c34 14 66.833 24.667 98.5 32s61.834 11 90.501 11c57.333 0 100.5 -13.167 129.5 -39.5s43.5 -65.833 43.5 -118.5v-236c0 -21.333 0.833008 -39.5 2.5 -54.5s4.5 -26.833 8.5 -35.5c3.33301 -8.66699 8.33301 -15.167 15 -19.5s14.334 -6.5 23.001 -6.5
c3.33301 0 7.16602 0.333008 11.499 1s9.16602 2 14.499 4l3 -35c-12 -4 -23 -7 -33 -9s-19.667 -3 -29 -3c-24 0 -43.5 6.83301 -58.5 20.5s-25.833 34.5 -32.5 62.5v1zM354.002 82.999v199.999h-23c-28.667 -0.666992 -54 -4 -76 -10s-41 -14.667 -57 -26
c-16 -12 -28 -26 -36 -42s-12 -34.333 -12 -55c0 -15.333 2.5 -29.333 7.5 -42s12.5 -24 22.5 -34s21.167 -17.667 33.5 -23s25.833 -8 40.5 -8c14 0 29.333 3.33301 46 10s34.667 16.334 54 29.001v1zM112.002 625.998l108 144h109l108 -144h-42l-121 96l-120 -96h-42v0z
" />
    <glyph glyph-name="atilde" unicode="&#xe3;" horiz-adv-x="542" 
d="M375 72c-28.667 -28.667 -56.998 -49.835 -84.998 -63.502s-56 -20.5 -84 -20.5c-22.667 0 -43.334 3.33301 -62.001 10s-35.667 17 -51 31c-14.667 14.667 -25.834 30.834 -33.501 48.501s-11.5 37.167 -11.5 58.5c0 25.333 4.83301 48 14.5 68s24.5 38 44.5 54
c22 18 52 31.5 90 40.5s83.333 13.5 136 13.5l21 1v66c0 40.667 -8 71.5 -24 92.5s-40 31.5 -72 31.5c-14.667 0 -28.5 -2.16699 -41.5 -6.5s-25.167 -11.166 -36.5 -20.499c-6.66699 -6 -12.167 -14.5 -16.5 -25.5s-7.5 -25.167 -9.5 -42.5v-8h-66v97
c34 14 66.833 24.667 98.5 32s61.834 11 90.501 11c57.333 0 100.5 -13.167 129.5 -39.5s43.5 -65.833 43.5 -118.5v-236c0 -21.333 0.833008 -39.5 2.5 -54.5s4.5 -26.833 8.5 -35.5c3.33301 -8.66699 8.33301 -15.167 15 -19.5s14.334 -6.5 23.001 -6.5
c3.33301 0 7.16602 0.333008 11.499 1s9.16602 2 14.499 4l3 -35c-12 -4 -23 -7 -33 -9s-19.667 -3 -29 -3c-24 0 -43.5 6.83301 -58.5 20.5s-25.833 34.5 -32.5 62.5v1zM354.002 82.999v199.999h-23c-28.667 -0.666992 -54 -4 -76 -10s-41 -14.667 -57 -26
c-16 -12 -28 -26 -36 -42s-12 -34.333 -12 -55c0 -15.333 2.5 -29.333 7.5 -42s12.5 -24 22.5 -34s21.167 -17.667 33.5 -23s25.833 -8 40.5 -8c14 0 29.333 3.33301 46 10s34.667 16.334 54 29.001v1zM114.002 625.998c6.66699 37.333 19.333 65.666 38 84.999
s43.334 29 74.001 29c8.66699 0 17.667 -1.66699 27 -5s19 -8 29 -14l17 -10c9.33301 -6 18.166 -10.333 26.499 -13s16.833 -4 25.5 -4c16 0 28.833 3.83301 38.5 11.5s15.834 18.834 18.501 33.501l30 1c-6.66699 -38.667 -19.167 -67.5 -37.5 -86.5
s-43.166 -28.5 -74.499 -28.5c-8.66699 0 -17.667 1.5 -27 4.5s-19 7.83301 -29 14.5l-17 11c-8.66699 4.66699 -17.334 8.5 -26.001 11.5s-17 4.5 -25 4.5c-14.667 0 -26.834 -3.83301 -36.501 -11.5s-16.5 -19.167 -20.5 -34.5l-31 1v0z" />
    <glyph glyph-name="adieresis" unicode="&#xe4;" horiz-adv-x="542" 
d="M375 72c-28.667 -28.667 -56.998 -49.835 -84.998 -63.502s-56 -20.5 -84 -20.5c-22.667 0 -43.334 3.33301 -62.001 10s-35.667 17 -51 31c-14.667 14.667 -25.834 30.834 -33.501 48.501s-11.5 37.167 -11.5 58.5c0 25.333 4.83301 48 14.5 68s24.5 38 44.5 54
c22 18 52 31.5 90 40.5s83.333 13.5 136 13.5l21 1v66c0 40.667 -8 71.5 -24 92.5s-40 31.5 -72 31.5c-14.667 0 -28.5 -2.16699 -41.5 -6.5s-25.167 -11.166 -36.5 -20.499c-6.66699 -6 -12.167 -14.5 -16.5 -25.5s-7.5 -25.167 -9.5 -42.5v-8h-66v97
c34 14 66.833 24.667 98.5 32s61.834 11 90.501 11c57.333 0 100.5 -13.167 129.5 -39.5s43.5 -65.833 43.5 -118.5v-236c0 -21.333 0.833008 -39.5 2.5 -54.5s4.5 -26.833 8.5 -35.5c3.33301 -8.66699 8.33301 -15.167 15 -19.5s14.334 -6.5 23.001 -6.5
c3.33301 0 7.16602 0.333008 11.499 1s9.16602 2 14.499 4l3 -35c-12 -4 -23 -7 -33 -9s-19.667 -3 -29 -3c-24 0 -43.5 6.83301 -58.5 20.5s-25.833 34.5 -32.5 62.5v1zM354.002 82.999v199.999h-23c-28.667 -0.666992 -54 -4 -76 -10s-41 -14.667 -57 -26
c-16 -12 -28 -26 -36 -42s-12 -34.333 -12 -55c0 -15.333 2.5 -29.333 7.5 -42s12.5 -24 22.5 -34s21.167 -17.667 33.5 -23s25.833 -8 40.5 -8c14 0 29.333 3.33301 46 10s34.667 16.334 54 29.001v1zM135.002 625.998v84h85v-84h-85v0zM328.002 625.998v84h85v-84h-85v0z
" />
    <glyph glyph-name="aring" unicode="&#xe5;" horiz-adv-x="542" 
d="M375 72c-28.667 -28.667 -56.998 -49.835 -84.998 -63.502s-56 -20.5 -84 -20.5c-22.667 0 -43.334 3.33301 -62.001 10s-35.667 17 -51 31c-14.667 14.667 -25.834 30.834 -33.501 48.501s-11.5 37.167 -11.5 58.5c0 25.333 4.83301 48 14.5 68s24.5 38 44.5 54
c22 18 52 31.5 90 40.5s83.333 13.5 136 13.5l21 1v66c0 40.667 -8 71.5 -24 92.5s-40 31.5 -72 31.5c-14.667 0 -28.5 -2.16699 -41.5 -6.5s-25.167 -11.166 -36.5 -20.499c-6.66699 -6 -12.167 -14.5 -16.5 -25.5s-7.5 -25.167 -9.5 -42.5v-8h-66v97
c34 14 66.833 24.667 98.5 32s61.834 11 90.501 11c57.333 0 100.5 -13.167 129.5 -39.5s43.5 -65.833 43.5 -118.5v-236c0 -21.333 0.833008 -39.5 2.5 -54.5s4.5 -26.833 8.5 -35.5c3.33301 -8.66699 8.33301 -15.167 15 -19.5s14.334 -6.5 23.001 -6.5
c3.33301 0 7.16602 0.333008 11.499 1s9.16602 2 14.499 4l3 -35c-12 -4 -23 -7 -33 -9s-19.667 -3 -29 -3c-24 0 -43.5 6.83301 -58.5 20.5s-25.833 34.5 -32.5 62.5v1zM354.002 82.999v199.999h-23c-28.667 -0.666992 -54 -4 -76 -10s-41 -14.667 -57 -26
c-16 -12 -28 -26 -36 -42s-12 -34.333 -12 -55c0 -15.333 2.5 -29.333 7.5 -42s12.5 -24 22.5 -34s21.167 -17.667 33.5 -23s25.833 -8 40.5 -8c14 0 29.333 3.33301 46 10s34.667 16.334 54 29.001v1zM256.002 625.998c-10.667 -0.666992 -20.667 1 -30 5
s-17.666 9.66699 -24.999 17s-13 15.666 -17 24.999s-6 19.333 -6 30c0 11.333 2 21.5 6 30.5s9.66699 17.5 17 25.5c7.33301 7.33301 15.666 13 24.999 17s19.333 6 30 6c11.333 0 21.666 -2 30.999 -6s17.666 -9.66699 24.999 -17c7.33301 -8 13 -16.5 17 -25.5
s6 -19.167 6 -30.5c0 -10.667 -2 -20.667 -6 -30s-9.66699 -17.666 -17 -24.999s-15.666 -13 -24.999 -17s-19.666 -6 -30.999 -6v1zM256.002 655.998c7.33301 -0.666992 13.833 0.167969 19.5 2.50098s10.834 5.83301 15.501 10.5s8.16699 9.83398 10.5 15.501
s3.5 11.834 3.5 18.501c0 7.33301 -1.16699 13.833 -3.5 19.5s-5.83301 10.834 -10.5 15.501s-9.83398 8 -15.501 10s-12.167 3 -19.5 3c-6.66699 0 -12.667 -1 -18 -3s-10.666 -5.66699 -15.999 -11c-4.66699 -4.66699 -8.16699 -9.83398 -10.5 -15.501
s-3.5 -11.834 -3.5 -18.501s1.16699 -12.834 3.5 -18.501s5.83301 -10.834 10.5 -15.501c5.33301 -4.66699 10.666 -8.16699 15.999 -10.5s11.333 -3.5 18 -3.5v1z" />
    <glyph glyph-name="ae" unicode="&#xe6;" horiz-adv-x="828" 
d="M777 21c-34.667 -11.333 -65.9961 -19.6689 -93.9961 -25.002s-52.667 -8 -74 -8c-46 0 -87 8.83301 -123 26.5s-67.333 44.834 -94 81.501c-32.667 -36.667 -64.334 -63.834 -95.001 -81.501s-60.667 -26.5 -90 -26.5c-22.667 0 -43.5 3.33301 -62.5 10
s-36.167 17 -51.5 31c-14.667 14.667 -25.834 30.834 -33.501 48.501s-11.5 37.167 -11.5 58.5c0 58.667 23.833 102.667 71.5 132s118.834 44 213.501 44l21 1v66c0 40.667 -8 71.5 -24 92.5s-40 31.5 -72 31.5c-31.333 0 -55.666 -8 -72.999 -24
s-27.666 -39.667 -30.999 -71v-8h-66v97c32 14.667 62.333 25.667 91 33s56 11 82 11c37.333 0 69.666 -5.16699 96.999 -15.5s49.666 -26.166 66.999 -47.499c21.333 20.667 44.666 36.167 69.999 46.5s52.666 15.5 81.999 15.5c32 0 60.167 -5.33301 84.5 -16
s44.833 -26.667 61.5 -48c17.333 -21.333 30.166 -47.5 38.499 -78.5s12.5 -66.833 12.5 -107.5v-8h-323c0 -83.333 14.5 -145.833 43.5 -187.5s72.833 -62.5 131.5 -62.5c23.333 0 47.333 3 72 9s50 15 76 27l3 -47v0zM354.004 96.9971v186h-23
c-60.667 -0.666992 -106 -12 -136 -34s-45 -55 -45 -99c0 -15.333 2.5 -29.333 7.5 -42s12.5 -24 22.5 -34s21.167 -17.667 33.5 -23s25.833 -8 40.5 -8c14 0 29.5 4.33301 46.5 13s34.833 22 53.5 40v1zM453.004 311.997h219l1 22c0 57.333 -8.5 100.5 -25.5 129.5
s-42.5 43.5 -76.5 43.5c-18 0 -34.167 -4.33301 -48.5 -13s-26.833 -22 -37.5 -40c-10.667 -17.333 -18.667 -38 -24 -62s-8 -51 -8 -81v1z" />
    <glyph glyph-name="ccedilla" unicode="&#xe7;" horiz-adv-x="508" 
d="M458 18c-24.667 -11.333 -49.167 -19.501 -73.5 -24.501s-48.5 -7.5 -72.5 -7.5l-25 -41c27.333 -5.33301 48 -14 62 -26s21 -27.333 21 -46c0 -11.333 -2 -21 -6 -29s-9.66699 -14.667 -17 -20c-8 -5.33301 -17.833 -9.33301 -29.5 -12s-25.167 -4 -40.5 -4
c-8.66699 0 -18 0.666992 -28 2s-20.333 3 -31 5v31c5.33301 -1.33301 10.666 -2.5 15.999 -3.5s11 -1.5 17 -1.5c8.66699 0 16 1 22 3s11 4.66699 15 8c4 2.66699 7 6.66699 9 12s3 11.333 3 18c0 12.667 -5 22.834 -15 30.501s-25 13.167 -45 16.5l36 59
c-35.333 4.66699 -67 14 -95 28s-52.333 33 -73 57c-20 24.667 -35 52.5 -45 83.5s-15 65.833 -15 104.5c0 43.333 5.83301 82 17.5 116s28.834 63.333 51.501 88c23.333 25.333 50.5 44.166 81.5 56.499s65.833 18.5 104.5 18.5c19.333 0 42 -2 68 -6s55 -9.66699 87 -17
v-126h-61v9c0 35.333 -8 62.166 -24 80.499s-40 27.5 -72 27.5c-23.333 0 -44.333 -5.16699 -63 -15.5s-34.667 -26.166 -48 -47.499c-14 -21.333 -24.5 -46.333 -31.5 -75s-10.5 -61 -10.5 -97c0 -36.667 4.16699 -69.667 12.5 -99s20.5 -54.666 36.5 -75.999
c16.667 -21.333 36 -37.333 58 -48s47 -16 75 -16c24 0 46.667 2 68 6s41.333 10.333 60 19v-41v0z" />
    <glyph glyph-name="egrave" unicode="&#xe8;" horiz-adv-x="529" 
d="M478 23c-30.667 -12 -59.832 -20.833 -87.499 -26.5s-54.167 -8.5 -79.5 -8.5c-38.667 0 -73.834 6.16699 -105.501 18.5s-59.834 31.833 -84.501 58.5c-24.667 26 -43 56 -55 90s-18 72 -18 114c0 39.333 5.5 75.5 16.5 108.5s27.167 61.833 48.5 86.5
c22 25.333 47 44.333 75 57s59 19 93 19c31.333 0 59.333 -5.16699 84 -15.5s45.334 -26.166 62.001 -47.499c17.333 -21.333 30.166 -47.333 38.499 -78s12.5 -65.667 12.5 -105v-8h-324c0 -42 3.66699 -78.5 11 -109.5s18 -57.167 32 -78.5
c14.667 -20.667 32.667 -36.334 54 -47.001s46.333 -16 75 -16c29.333 0 56.833 3 82.5 9s48.834 15.333 69.501 28v-49v0zM156.002 316h220v21c0 30.667 -2 57 -6 79s-9.66699 40 -17 54c-8 13.333 -18.5 23.5 -31.5 30.5s-28.833 10.5 -47.5 10.5
c-18 0 -34 -4.5 -48 -13.5s-26.667 -22.5 -38 -40.5c-10.667 -17.333 -18.667 -38 -24 -62s-8 -50.667 -8 -80v1zM147.002 770h111l106 -144h-45l-172 144v0z" />
    <glyph glyph-name="eacute" unicode="&#xe9;" horiz-adv-x="529" 
d="M478 23c-30.667 -12 -59.832 -20.833 -87.499 -26.5s-54.167 -8.5 -79.5 -8.5c-38.667 0 -73.834 6.16699 -105.501 18.5s-59.834 31.833 -84.501 58.5c-24.667 26 -43 56 -55 90s-18 72 -18 114c0 39.333 5.5 75.5 16.5 108.5s27.167 61.833 48.5 86.5
c22 25.333 47 44.333 75 57s59 19 93 19c31.333 0 59.333 -5.16699 84 -15.5s45.334 -26.166 62.001 -47.499c17.333 -21.333 30.166 -47.333 38.499 -78s12.5 -65.667 12.5 -105v-8h-324c0 -42 3.66699 -78.5 11 -109.5s18 -57.167 32 -78.5
c14.667 -20.667 32.667 -36.334 54 -47.001s46.333 -16 75 -16c29.333 0 56.833 3 82.5 9s48.834 15.333 69.501 28v-49v0zM156.002 316h220v21c0 30.667 -2 57 -6 79s-9.66699 40 -17 54c-8 13.333 -18.5 23.5 -31.5 30.5s-28.833 10.5 -47.5 10.5
c-18 0 -34 -4.5 -48 -13.5s-26.667 -22.5 -38 -40.5c-10.667 -17.333 -18.667 -38 -24 -62s-8 -50.667 -8 -80v1zM298.002 770h111l-171 -144h-46l106 144v0z" />
    <glyph glyph-name="ecircumflex" unicode="&#xea;" horiz-adv-x="529" 
d="M478 23c-30.667 -12 -59.832 -20.833 -87.499 -26.5s-54.167 -8.5 -79.5 -8.5c-38.667 0 -73.834 6.16699 -105.501 18.5s-59.834 31.833 -84.501 58.5c-24.667 26 -43 56 -55 90s-18 72 -18 114c0 39.333 5.5 75.5 16.5 108.5s27.167 61.833 48.5 86.5
c22 25.333 47 44.333 75 57s59 19 93 19c31.333 0 59.333 -5.16699 84 -15.5s45.334 -26.166 62.001 -47.499c17.333 -21.333 30.166 -47.333 38.499 -78s12.5 -65.667 12.5 -105v-8h-324c0 -42 3.66699 -78.5 11 -109.5s18 -57.167 32 -78.5
c14.667 -20.667 32.667 -36.334 54 -47.001s46.333 -16 75 -16c29.333 0 56.833 3 82.5 9s48.834 15.333 69.501 28v-49v0zM156.002 316h220v21c0 30.667 -2 57 -6 79s-9.66699 40 -17 54c-8 13.333 -18.5 23.5 -31.5 30.5s-28.833 10.5 -47.5 10.5
c-18 0 -34 -4.5 -48 -13.5s-26.667 -22.5 -38 -40.5c-10.667 -17.333 -18.667 -38 -24 -62s-8 -50.667 -8 -80v1zM106.002 626l109 144h108l109 -144h-42l-121 96l-121 -96h-42v0z" />
    <glyph glyph-name="edieresis" unicode="&#xeb;" horiz-adv-x="529" 
d="M478 23c-30.667 -12 -59.832 -20.833 -87.499 -26.5s-54.167 -8.5 -79.5 -8.5c-38.667 0 -73.834 6.16699 -105.501 18.5s-59.834 31.833 -84.501 58.5c-24.667 26 -43 56 -55 90s-18 72 -18 114c0 39.333 5.5 75.5 16.5 108.5s27.167 61.833 48.5 86.5
c22 25.333 47 44.333 75 57s59 19 93 19c31.333 0 59.333 -5.16699 84 -15.5s45.334 -26.166 62.001 -47.499c17.333 -21.333 30.166 -47.333 38.499 -78s12.5 -65.667 12.5 -105v-8h-324c0 -42 3.66699 -78.5 11 -109.5s18 -57.167 32 -78.5
c14.667 -20.667 32.667 -36.334 54 -47.001s46.333 -16 75 -16c29.333 0 56.833 3 82.5 9s48.834 15.333 69.501 28v-49v0zM156.002 316h220v21c0 30.667 -2 57 -6 79s-9.66699 40 -17 54c-8 13.333 -18.5 23.5 -31.5 30.5s-28.833 10.5 -47.5 10.5
c-18 0 -34 -4.5 -48 -13.5s-26.667 -22.5 -38 -40.5c-10.667 -17.333 -18.667 -38 -24 -62s-8 -50.667 -8 -80v1zM148.002 626v84h85v-84h-85v0zM341.002 626v84h85v-84h-85v0z" />
    <glyph glyph-name="igrave" unicode="&#xec;" horiz-adv-x="307" 
d="M204 530v-404.001c0 -22.667 1 -40.667 3 -54s4.66699 -22 8 -26c3.33301 -4.66699 11 -8.33398 23 -11.001s28 -4.66699 48 -6l9 1v-30h-277v30h9c19.333 0.666992 35 2.33398 47 5.00098s19.667 6.33398 23 11.001s6 13.5 8 26.5s3 30.5 3 52.5v278
c0 21.333 -1 38.5 -3 51.5s-4.66699 21.833 -8 26.5c-3.33301 4 -11 7.5 -23 10.5s-27.667 5.16699 -47 6.5l-9 2v30h186v0zM16 769.999h111l106 -144h-45l-172 144v0z" />
    <glyph glyph-name="iacute" unicode="&#xed;" horiz-adv-x="307" 
d="M204 530v-404.001c0 -22.667 1 -40.667 3 -54s4.66699 -22 8 -26c3.33301 -4.66699 11 -8.33398 23 -11.001s28 -4.66699 48 -6l9 1v-30h-277v30h9c19.333 0.666992 35 2.33398 47 5.00098s19.667 6.33398 23 11.001s6 13.5 8 26.5s3 30.5 3 52.5v278
c0 21.333 -1 38.5 -3 51.5s-4.66699 21.833 -8 26.5c-3.33301 4 -11 7.5 -23 10.5s-27.667 5.16699 -47 6.5l-9 2v30h186v0zM179 769.999h112l-172 -144h-45l105 144v0z" />
    <glyph glyph-name="icircumflex" unicode="&#xee;" horiz-adv-x="307" 
d="M204 530v-404.001c0 -22.667 1 -40.667 3 -54s4.66699 -22 8 -26c3.33301 -4.66699 11 -8.33398 23 -11.001s28 -4.66699 48 -6l9 1v-30h-277v30h9c19.333 0.666992 35 2.33398 47 5.00098s19.667 6.33398 23 11.001s6 13.5 8 26.5s3 30.5 3 52.5v278
c0 21.333 -1 38.5 -3 51.5s-4.66699 21.833 -8 26.5c-3.33301 4 -11 7.5 -23 10.5s-27.667 5.16699 -47 6.5l-9 2v30h186v0zM-18 625.999l108 144h108l109 -144h-42l-121 96l-121 -96h-41v0z" />
    <glyph glyph-name="idieresis" unicode="&#xef;" horiz-adv-x="307" 
d="M204 530v-404.001c0 -22.667 1 -40.667 3 -54s4.66699 -22 8 -26c3.33301 -4.66699 11 -8.33398 23 -11.001s28 -4.66699 48 -6l9 1v-30h-277v30h9c19.333 0.666992 35 2.33398 47 5.00098s19.667 6.33398 23 11.001s6 13.5 8 26.5s3 30.5 3 52.5v278
c0 21.333 -1 38.5 -3 51.5s-4.66699 21.833 -8 26.5c-3.33301 4 -11 7.5 -23 10.5s-27.667 5.16699 -47 6.5l-9 2v30h186v0zM5 625.999v84h85v-84h-85v0zM198 625.999v84h85v-84h-85v0z" />
    <glyph glyph-name="eth" unicode="&#xf0;" 
 />
    <glyph glyph-name="ntilde" unicode="&#xf1;" horiz-adv-x="632" 
d="M204 430c12.667 18 25.9961 33.9971 39.9961 47.9971s29 25.667 45 35c15.333 9.33301 32 16.166 50 20.499s36.667 6.5 56 6.5c23.333 0 44 -3.66699 62 -11s33.333 -18.333 46 -33s22.167 -32.5 28.5 -53.5s9.5 -44.5 9.5 -70.5v-246
c1.33301 -25.333 3 -44.666 5 -57.999s4.33301 -21.666 7 -24.999c2.66699 -2.66699 9.83398 -5.33398 21.501 -8.00098s27.834 -4.66699 48.501 -6l9 1v-30h-277v30h9c20.667 0.666992 36.834 2.33398 48.501 5.00098s18.834 5.33398 21.501 8.00098
c2.66699 3.33301 5 11.666 7 24.999s3.33301 32.333 4 57v233c0 22 -1.5 41 -4.5 57s-7.5 28.333 -13.5 37c-5.33301 9.33301 -13.333 16 -24 20s-23.667 6 -39 6c-10.667 0 -22.167 -1.5 -34.5 -4.5s-25.166 -8.16699 -38.499 -15.5
c-12.667 -6.66699 -26.334 -15.167 -41.001 -25.5s-30 -22.166 -46 -35.499v-271c0 -22.667 1 -40.667 3 -54s4.66699 -22 8 -26c3.33301 -4.66699 11 -8.33398 23 -11.001s28 -4.66699 48 -6l9 1v-30h-277v30h9c19.333 0.666992 35 2.33398 47 5.00098
s19.667 6.33398 23 11.001s6 13.5 8 26.5s3 30.5 3 52.5v278c0 21.333 -1 38.5 -3 51.5s-4.66699 21.833 -8 26.5c-3.33301 4 -11 7.5 -23 10.5s-27.667 5.16699 -47 6.5l-9 2v30h186v-100v0zM155.996 625.997c6.66699 37.333 19.333 65.666 38 84.999s43.334 29 74.001 29
c8.66699 0 17.667 -1.66699 27 -5s19 -8 29 -14l17 -10c9.33301 -6 18.166 -10.333 26.499 -13s16.833 -4 25.5 -4c16 0 28.833 3.83301 38.5 11.5s15.834 18.834 18.501 33.501l30 1c-6.66699 -38.667 -19.167 -67.5 -37.5 -86.5s-43.166 -28.5 -74.499 -28.5
c-8.66699 0 -17.667 1.5 -27 4.5s-19 7.83301 -29 14.5l-17 11c-8.66699 4.66699 -17.334 8.5 -26.001 11.5s-17 4.5 -25 4.5c-14.667 0 -26.834 -3.83301 -36.501 -11.5s-16.5 -19.167 -20.5 -34.5l-31 1v0z" />
    <glyph glyph-name="ograve" unicode="&#xf2;" horiz-adv-x="602" 
d="M301 -12c-38.667 0 -73.5 6 -104.5 18s-57.833 30.333 -80.5 55s-39.667 54 -51 88s-17 72.333 -17 115s5.66699 80.834 17 114.501s28.333 62.834 51 87.501c22.667 25.333 49.5 44 80.5 56s65.833 18 104.5 18c39.333 0 74.333 -6 105 -18s57.334 -30.667 80.001 -56
c22.667 -24.667 39.667 -53.834 51 -87.501s17 -71.834 17 -114.501s-5.66699 -81 -17 -115s-28.333 -63.333 -51 -88s-49.334 -43 -80.001 -55s-65.667 -18 -105 -18v0zM301 18c21.333 -0.666992 40.999 4.83301 58.999 16.5s34.333 29.167 49 52.5
c14 23.333 24.667 49.666 32 78.999s11 62 11 98c0 35.333 -3.66699 67.666 -11 96.999s-18 55.666 -32 78.999c-14.667 23.333 -31 41 -49 53s-37.667 18 -59 18s-41 -6 -59 -18s-34.333 -29.667 -49 -53c-14 -23.333 -24.667 -49.666 -32 -78.999s-11 -61.666 -11 -96.999
c0 -36 3.66699 -68.667 11 -98s18 -55.666 32 -78.999c14.667 -23.333 30.834 -40.833 48.501 -52.5s37.5 -17.5 59.5 -17.5v1zM178.999 770h111l105 -144h-44l-172 144v0z" />
    <glyph glyph-name="oacute" unicode="&#xf3;" horiz-adv-x="602" 
d="M301 -12c-38.667 0 -73.5 6 -104.5 18s-57.833 30.333 -80.5 55s-39.667 54 -51 88s-17 72.333 -17 115s5.66699 80.834 17 114.501s28.333 62.834 51 87.501c22.667 25.333 49.5 44 80.5 56s65.833 18 104.5 18c39.333 0 74.333 -6 105 -18s57.334 -30.667 80.001 -56
c22.667 -24.667 39.667 -53.834 51 -87.501s17 -71.834 17 -114.501s-5.66699 -81 -17 -115s-28.333 -63.333 -51 -88s-49.334 -43 -80.001 -55s-65.667 -18 -105 -18v0zM301 18c21.333 -0.666992 40.999 4.83301 58.999 16.5s34.333 29.167 49 52.5
c14 23.333 24.667 49.666 32 78.999s11 62 11 98c0 35.333 -3.66699 67.666 -11 96.999s-18 55.666 -32 78.999c-14.667 23.333 -31 41 -49 53s-37.667 18 -59 18s-41 -6 -59 -18s-34.333 -29.667 -49 -53c-14 -23.333 -24.667 -49.666 -32 -78.999s-11 -61.666 -11 -96.999
c0 -36 3.66699 -68.667 11 -98s18 -55.666 32 -78.999c14.667 -23.333 30.834 -40.833 48.501 -52.5s37.5 -17.5 59.5 -17.5v1zM311.999 770h111l-172 -144h-45l106 144v0z" />
    <glyph glyph-name="ocircumflex" unicode="&#xf4;" horiz-adv-x="602" 
d="M301 -12c-38.667 0 -73.5 6 -104.5 18s-57.833 30.333 -80.5 55s-39.667 54 -51 88s-17 72.333 -17 115s5.66699 80.834 17 114.501s28.333 62.834 51 87.501c22.667 25.333 49.5 44 80.5 56s65.833 18 104.5 18c39.333 0 74.333 -6 105 -18s57.334 -30.667 80.001 -56
c22.667 -24.667 39.667 -53.834 51 -87.501s17 -71.834 17 -114.501s-5.66699 -81 -17 -115s-28.333 -63.333 -51 -88s-49.334 -43 -80.001 -55s-65.667 -18 -105 -18v0zM301 18c21.333 -0.666992 40.999 4.83301 58.999 16.5s34.333 29.167 49 52.5
c14 23.333 24.667 49.666 32 78.999s11 62 11 98c0 35.333 -3.66699 67.666 -11 96.999s-18 55.666 -32 78.999c-14.667 23.333 -31 41 -49 53s-37.667 18 -59 18s-41 -6 -59 -18s-34.333 -29.667 -49 -53c-14 -23.333 -24.667 -49.666 -32 -78.999s-11 -61.666 -11 -96.999
c0 -36 3.66699 -68.667 11 -98s18 -55.666 32 -78.999c14.667 -23.333 30.834 -40.833 48.501 -52.5s37.5 -17.5 59.5 -17.5v1zM137.999 626l109 144h108l108 -144h-42l-120 96l-121 -96h-42v0z" />
    <glyph glyph-name="otilde" unicode="&#xf5;" horiz-adv-x="602" 
d="M301 -12c-38.667 0 -73.5 6 -104.5 18s-57.833 30.333 -80.5 55s-39.667 54 -51 88s-17 72.333 -17 115s5.66699 80.834 17 114.501s28.333 62.834 51 87.501c22.667 25.333 49.5 44 80.5 56s65.833 18 104.5 18c39.333 0 74.333 -6 105 -18s57.334 -30.667 80.001 -56
c22.667 -24.667 39.667 -53.834 51 -87.501s17 -71.834 17 -114.501s-5.66699 -81 -17 -115s-28.333 -63.333 -51 -88s-49.334 -43 -80.001 -55s-65.667 -18 -105 -18v0zM301 18c21.333 -0.666992 40.999 4.83301 58.999 16.5s34.333 29.167 49 52.5
c14 23.333 24.667 49.666 32 78.999s11 62 11 98c0 35.333 -3.66699 67.666 -11 96.999s-18 55.666 -32 78.999c-14.667 23.333 -31 41 -49 53s-37.667 18 -59 18s-41 -6 -59 -18s-34.333 -29.667 -49 -53c-14 -23.333 -24.667 -49.666 -32 -78.999s-11 -61.666 -11 -96.999
c0 -36 3.66699 -68.667 11 -98s18 -55.666 32 -78.999c14.667 -23.333 30.834 -40.833 48.501 -52.5s37.5 -17.5 59.5 -17.5v1zM140.999 626c6.66699 37.333 19.332 65.666 37.999 84.999s43.334 29 74.001 29c8.66699 0 17.667 -1.66699 27 -5s19 -8 29 -14l17 -10
c9.33301 -6 18.166 -10.333 26.499 -13s16.833 -4 25.5 -4c16 0 28.833 3.83301 38.5 11.5s15.834 18.834 18.501 33.501l30 1c-6.66699 -38.667 -19.167 -67.5 -37.5 -86.5s-43.166 -28.5 -74.499 -28.5c-8.66699 0 -17.667 1.5 -27 4.5s-19 7.83301 -29 14.5l-17 11
c-8.66699 4.66699 -17.334 8.5 -26.001 11.5s-17 4.5 -25 4.5c-14.667 0 -27 -3.83301 -37 -11.5s-17 -19.167 -21 -34.5l-30 1v0z" />
    <glyph glyph-name="odieresis" unicode="&#xf6;" horiz-adv-x="602" 
d="M301 -12c-38.667 0 -73.5 6 -104.5 18s-57.833 30.333 -80.5 55s-39.667 54 -51 88s-17 72.333 -17 115s5.66699 80.834 17 114.501s28.333 62.834 51 87.501c22.667 25.333 49.5 44 80.5 56s65.833 18 104.5 18c39.333 0 74.333 -6 105 -18s57.334 -30.667 80.001 -56
c22.667 -24.667 39.667 -53.834 51 -87.501s17 -71.834 17 -114.501s-5.66699 -81 -17 -115s-28.333 -63.333 -51 -88s-49.334 -43 -80.001 -55s-65.667 -18 -105 -18v0zM301 18c21.333 -0.666992 40.999 4.83301 58.999 16.5s34.333 29.167 49 52.5
c14 23.333 24.667 49.666 32 78.999s11 62 11 98c0 35.333 -3.66699 67.666 -11 96.999s-18 55.666 -32 78.999c-14.667 23.333 -31 41 -49 53s-37.667 18 -59 18s-41 -6 -59 -18s-34.333 -29.667 -49 -53c-14 -23.333 -24.667 -49.666 -32 -78.999s-11 -61.666 -11 -96.999
c0 -36 3.66699 -68.667 11 -98s18 -55.666 32 -78.999c14.667 -23.333 30.834 -40.833 48.501 -52.5s37.5 -17.5 59.5 -17.5v1zM161.999 626v84h85v-84h-85v0zM354.999 626v84h84v-84h-84v0z" />
    <glyph glyph-name="divide" unicode="&#xf7;" horiz-adv-x="608" 
d="M258 45v90h91v-90h-91v0zM39 262v54h530v-54h-530v0zM258 442v91h91v-91h-91v0z" />
    <glyph glyph-name="oslash" unicode="&#xf8;" horiz-adv-x="602" 
d="M139 38l-43.9961 -50.001h-47l64 75c-21.333 28 -37.333 58.833 -48 92.5s-16 69.834 -16 108.501c0 42 5.5 79.833 16.5 113.5s27.833 62.834 50.5 87.501c22.667 25.333 49 44.166 79 56.499s63.333 18.5 100 18.5c29.333 0 57.666 -4.5 84.999 -13.5
s54 -22.5 80 -40.5l45 55h50l-69 -81c23.333 -27.333 40.666 -57.166 51.999 -89.499s17 -67.833 17 -106.5c0 -42.667 -5.66699 -80.834 -17 -114.501s-28.333 -63.167 -51 -88.5c-22.667 -24.667 -49 -43 -79 -55s-64 -18 -102 -18c-32.667 0 -62.834 4 -90.501 12
s-52.834 20.333 -75.501 37v1zM193.004 96.999c13.333 -27.333 28.834 -47.5 46.501 -60.5s37.5 -19.5 59.5 -19.5c21.333 0 41 5.83301 59 17.5s34.333 29.167 49 52.5c15.333 23.333 26.666 49.5 33.999 78.5s11 60.5 11 94.5c0 23.333 -2.16699 45.833 -6.5 67.5
s-10.5 42.5 -18.5 62.5l-234 -293v0zM174.005 136.999l239.001 292.998c-14 26.667 -30.333 46.834 -49 60.501s-39.667 20.5 -63 20.5c-21.333 0 -40.833 -6 -58.5 -18s-33.834 -30.333 -48.501 -55c-14.667 -24 -25.667 -50.667 -33 -80s-11 -61.666 -11 -96.999
c0 -22 2 -43.333 6 -64s10 -41 18 -61v1z" />
    <glyph glyph-name="ugrave" unicode="&#xf9;" horiz-adv-x="632" 
d="M427 0l0.00195312 99.001c-12 -19.333 -25 -36 -39 -50s-29 -25.667 -45 -35c-16 -8.66699 -32.833 -15.167 -50.5 -19.5s-36.5 -6.5 -56.5 -6.5c-22.667 0 -42.834 3.66699 -60.501 11s-33.167 18.333 -46.5 33c-12.667 15.333 -22.334 33.166 -29.001 53.499
s-10 43.5 -10 69.5v248c0 21.333 -1 38.5 -3 51.5s-4.66699 21.833 -8 26.5c-3.33301 4 -11 7.5 -23 10.5s-27.667 5.16699 -47 6.5l-9 2v30h186v-359c0 -20.667 1.83301 -38.667 5.5 -54s9.16699 -28 16.5 -38c7.33301 -10.667 16.333 -18.5 27 -23.5
s23.334 -7.5 38.001 -7.5c13.333 0 26.666 1.83301 39.999 5.5s26.333 8.83398 39 15.501s25.167 15.167 37.5 25.5s24.833 22.166 37.5 35.499v273c-0.666992 24 -2 42.833 -4 56.5s-4.33301 21.834 -7 24.501c-2.66699 3.33301 -9.83398 6.16602 -21.501 8.49902
s-27.834 4.16602 -48.501 5.49902l-9 2v30h186v-404c1.33301 -25.333 3 -44.666 5 -57.999s4.33301 -21.666 7 -24.999c2.66699 -2.66699 9.83398 -5.33398 21.501 -8.00098s27.834 -4.66699 48.501 -6l9 1v-30h-187v0zM176.002 770.001h111l106 -144h-45l-172 144v0z" />
    <glyph glyph-name="uacute" unicode="&#xfa;" horiz-adv-x="632" 
d="M427 0l0.00195312 99.001c-12 -19.333 -25 -36 -39 -50s-29 -25.667 -45 -35c-16 -8.66699 -32.833 -15.167 -50.5 -19.5s-36.5 -6.5 -56.5 -6.5c-22.667 0 -42.834 3.66699 -60.501 11s-33.167 18.333 -46.5 33c-12.667 15.333 -22.334 33.166 -29.001 53.499
s-10 43.5 -10 69.5v248c0 21.333 -1 38.5 -3 51.5s-4.66699 21.833 -8 26.5c-3.33301 4 -11 7.5 -23 10.5s-27.667 5.16699 -47 6.5l-9 2v30h186v-359c0 -20.667 1.83301 -38.667 5.5 -54s9.16699 -28 16.5 -38c7.33301 -10.667 16.333 -18.5 27 -23.5
s23.334 -7.5 38.001 -7.5c13.333 0 26.666 1.83301 39.999 5.5s26.333 8.83398 39 15.501s25.167 15.167 37.5 25.5s24.833 22.166 37.5 35.499v273c-0.666992 24 -2 42.833 -4 56.5s-4.33301 21.834 -7 24.501c-2.66699 3.33301 -9.83398 6.16602 -21.501 8.49902
s-27.834 4.16602 -48.501 5.49902l-9 2v30h186v-404c1.33301 -25.333 3 -44.666 5 -57.999s4.33301 -21.666 7 -24.999c2.66699 -2.66699 9.83398 -5.33398 21.501 -8.00098s27.834 -4.66699 48.501 -6l9 1v-30h-187v0zM321.002 770.001h111l-171 -144h-46l106 144v0z" />
    <glyph glyph-name="ucircumflex" unicode="&#xfb;" horiz-adv-x="632" 
d="M427 0l0.00195312 99.001c-12 -19.333 -25 -36 -39 -50s-29 -25.667 -45 -35c-16 -8.66699 -32.833 -15.167 -50.5 -19.5s-36.5 -6.5 -56.5 -6.5c-22.667 0 -42.834 3.66699 -60.501 11s-33.167 18.333 -46.5 33c-12.667 15.333 -22.334 33.166 -29.001 53.499
s-10 43.5 -10 69.5v248c0 21.333 -1 38.5 -3 51.5s-4.66699 21.833 -8 26.5c-3.33301 4 -11 7.5 -23 10.5s-27.667 5.16699 -47 6.5l-9 2v30h186v-359c0 -20.667 1.83301 -38.667 5.5 -54s9.16699 -28 16.5 -38c7.33301 -10.667 16.333 -18.5 27 -23.5
s23.334 -7.5 38.001 -7.5c13.333 0 26.666 1.83301 39.999 5.5s26.333 8.83398 39 15.501s25.167 15.167 37.5 25.5s24.833 22.166 37.5 35.499v273c-0.666992 24 -2 42.833 -4 56.5s-4.33301 21.834 -7 24.501c-2.66699 3.33301 -9.83398 6.16602 -21.501 8.49902
s-27.834 4.16602 -48.501 5.49902l-9 2v30h186v-404c1.33301 -25.333 3 -44.666 5 -57.999s4.33301 -21.666 7 -24.999c2.66699 -2.66699 9.83398 -5.33398 21.501 -8.00098s27.834 -4.66699 48.501 -6l9 1v-30h-187v0zM129.002 626.001l109 144h108l109 -144h-42l-121 96
l-121 -96h-42v0z" />
    <glyph glyph-name="udieresis" unicode="&#xfc;" horiz-adv-x="632" 
d="M427 0l0.00195312 99.001c-12 -19.333 -25 -36 -39 -50s-29 -25.667 -45 -35c-16 -8.66699 -32.833 -15.167 -50.5 -19.5s-36.5 -6.5 -56.5 -6.5c-22.667 0 -42.834 3.66699 -60.501 11s-33.167 18.333 -46.5 33c-12.667 15.333 -22.334 33.166 -29.001 53.499
s-10 43.5 -10 69.5v248c0 21.333 -1 38.5 -3 51.5s-4.66699 21.833 -8 26.5c-3.33301 4 -11 7.5 -23 10.5s-27.667 5.16699 -47 6.5l-9 2v30h186v-359c0 -20.667 1.83301 -38.667 5.5 -54s9.16699 -28 16.5 -38c7.33301 -10.667 16.333 -18.5 27 -23.5
s23.334 -7.5 38.001 -7.5c13.333 0 26.666 1.83301 39.999 5.5s26.333 8.83398 39 15.501s25.167 15.167 37.5 25.5s24.833 22.166 37.5 35.499v273c-0.666992 24 -2 42.833 -4 56.5s-4.33301 21.834 -7 24.501c-2.66699 3.33301 -9.83398 6.16602 -21.501 8.49902
s-27.834 4.16602 -48.501 5.49902l-9 2v30h186v-404c1.33301 -25.333 3 -44.666 5 -57.999s4.33301 -21.666 7 -24.999c2.66699 -2.66699 9.83398 -5.33398 21.501 -8.00098s27.834 -4.66699 48.501 -6l9 1v-30h-187v0zM159.002 626.001v84h85v-84h-85v0zM352.002 626.001
v84h85v-84h-85v0z" />
    <glyph glyph-name="yacute" unicode="&#xfd;" horiz-adv-x="551" 
d="M81 -192l172.998 191.998l-167 401c-8.66699 20.667 -16.167 37.834 -22.5 51.501s-11.833 23.167 -16.5 28.5c-4 5.33301 -9.16699 9.33301 -15.5 12s-14.166 4.33398 -23.499 5.00098l-9 2v30h242v-30h-11c-22 -0.666992 -38.5 -2.5 -49.5 -5.5s-16.5 -7.5 -16.5 -13.5
c0 -2.66699 2.33301 -10.834 7 -24.501s11.667 -32.5 21 -56.5l119 -283l126 286c9.33301 20.667 16.333 37.167 21 49.5s7 20.833 7 25.5c0 7.33301 -5 12.666 -15 15.999s-24.667 5 -44 5l-13 1v30h157v-30l-10 -1c-10 -1.33301 -19.167 -6.66602 -27.5 -15.999
s-16.166 -22.666 -23.499 -39.999c-1.33301 -2.66699 -3.5 -7.5 -6.5 -14.5s-7.16699 -16.167 -12.5 -27.5l-269 -593h-121v0zM327.998 769.998h111l-171 -144h-46l106 144v0z" />
    <glyph glyph-name="thorn" unicode="&#xfe;" 
 />
    <glyph glyph-name="ydieresis" unicode="&#xff;" horiz-adv-x="551" 
d="M81 -192l172.998 191.998l-167 401c-8.66699 20.667 -16.167 37.834 -22.5 51.501s-11.833 23.167 -16.5 28.5c-4 5.33301 -9.16699 9.33301 -15.5 12s-14.166 4.33398 -23.499 5.00098l-9 2v30h242v-30h-11c-22 -0.666992 -38.5 -2.5 -49.5 -5.5s-16.5 -7.5 -16.5 -13.5
c0 -2.66699 2.33301 -10.834 7 -24.501s11.667 -32.5 21 -56.5l119 -283l126 286c9.33301 20.667 16.333 37.167 21 49.5s7 20.833 7 25.5c0 7.33301 -5 12.666 -15 15.999s-24.667 5 -44 5l-13 1v30h157v-30l-10 -1c-10 -1.33301 -19.167 -6.66602 -27.5 -15.999
s-16.166 -22.666 -23.499 -39.999c-1.33301 -2.66699 -3.5 -7.5 -6.5 -14.5s-7.16699 -16.167 -12.5 -27.5l-269 -593h-121v0zM172.998 625.998v84h84v-84h-84v0zM365.998 625.998v84h84v-84h-84v0z" />
    <glyph glyph-name="Abreve" unicode="&#x102;" 
 />
    <glyph glyph-name="abreve" unicode="&#x103;" 
 />
    <glyph glyph-name="Aogonek" unicode="&#x104;" 
 />
    <glyph glyph-name="aogonek" unicode="&#x105;" 
 />
    <glyph glyph-name="Cacute" unicode="&#x106;" 
 />
    <glyph glyph-name="cacute" unicode="&#x107;" 
 />
    <glyph glyph-name="Ccaron" unicode="&#x10c;" 
 />
    <glyph glyph-name="ccaron" unicode="&#x10d;" 
 />
    <glyph glyph-name="Dcaron" unicode="&#x10e;" 
 />
    <glyph glyph-name="dcaron" unicode="&#x10f;" 
 />
    <glyph glyph-name="Dslash" unicode="&#x110;" 
 />
    <glyph glyph-name="dslash" unicode="&#x111;" 
 />
    <glyph glyph-name="Eogonek" unicode="&#x118;" 
 />
    <glyph glyph-name="eogonek" unicode="&#x119;" 
 />
    <glyph glyph-name="Ecaron" unicode="&#x11a;" 
 />
    <glyph glyph-name="ecaron" unicode="&#x11b;" 
 />
    <glyph glyph-name="Gbreve" unicode="&#x11e;" 
 />
    <glyph glyph-name="gbreve" unicode="&#x11f;" 
 />
    <glyph glyph-name="Idot" unicode="&#x130;" 
 />
    <glyph glyph-name="dotlessi" unicode="&#x131;" horiz-adv-x="307" 
d="M204 530v-404.001c0 -22.667 1 -40.667 3 -54s4.66699 -22 8 -26c3.33301 -4.66699 11 -8.33398 23 -11.001s28 -4.66699 48 -6l9 1v-30h-277v30h9c19.333 0.666992 35 2.33398 47 5.00098s19.667 6.33398 23 11.001s6 13.5 8 26.5s3 30.5 3 52.5v278
c0 21.333 -1 38.5 -3 51.5s-4.66699 21.833 -8 26.5c-3.33301 4 -11 7.5 -23 10.5s-27.667 5.16699 -47 6.5l-9 2v30h186v0z" />
    <glyph glyph-name="Lacute" unicode="&#x139;" 
 />
    <glyph glyph-name="lacute" unicode="&#x13a;" 
 />
    <glyph glyph-name="Lcaron" unicode="&#x13d;" 
 />
    <glyph glyph-name="lcaron" unicode="&#x13e;" 
 />
    <glyph glyph-name="Ldot" unicode="&#x13f;" 
 />
    <glyph glyph-name="ldot" unicode="&#x140;" 
 />
    <glyph glyph-name="Lslash" unicode="&#x141;" 
 />
    <glyph glyph-name="lslash" unicode="&#x142;" 
 />
    <glyph glyph-name="Nacute" unicode="&#x143;" 
 />
    <glyph glyph-name="nacute" unicode="&#x144;" 
 />
    <glyph glyph-name="Ncaron" unicode="&#x147;" 
 />
    <glyph glyph-name="ncaron" unicode="&#x148;" 
 />
    <glyph glyph-name="Odblacute" unicode="&#x150;" 
 />
    <glyph glyph-name="odblacute" unicode="&#x151;" 
 />
    <glyph glyph-name="OE" unicode="&#x152;" horiz-adv-x="1013" 
d="M989 0l-440.005 0.000976562v31c-24.667 -16.667 -50.834 -29 -78.501 -37s-57.167 -12 -88.5 -12c-50.667 0 -96 8.33301 -136 25s-75 42 -105 76c-30 34.667 -52.5 75 -67.5 121s-22.5 98 -22.5 156c0 57.333 7.33301 109 22 155s37 86.333 67 121
c29.333 34.667 63.833 60.667 103.5 78s83.834 26 132.501 26c32.667 0 63.5 -4.5 92.5 -13.5s56.5 -22.5 82.5 -40.5v36h411v-126h-54l-1 9c-0.666992 22.667 -2.5 40 -5.5 52s-7.16699 18.667 -12.5 20c-4.66699 1.33301 -13 2.5 -25 3.5s-27.333 1.5 -46 1.5l-157 1v-289
l138 1c15.333 -0.666992 27.666 -0.666992 36.999 0s15.333 1.66699 18 3c3.33301 1.33301 5.83301 5.83301 7.5 13.5s2.83398 18.5 3.50098 32.5l1 10h45v-159h-45l-1 9c-0.666992 11.333 -2 20.666 -4 27.999s-4.33301 12.333 -7 15s-8.66699 4.5 -18 5.5
s-21.666 1.5 -36.999 1.5l-138 1v-229c0 -19.333 1 -34.833 3 -46.5s5.33301 -20.167 10 -25.5c4.66699 -4.66699 12.834 -8.16699 24.501 -10.5s26.834 -3.5 45.501 -3.5l77 1c28 -0.666992 50 -0.166992 66 1.5s26.333 3.83398 31 6.50098
c4.66699 3.33301 8.33398 10.166 11.001 20.499s4.33398 24.833 5.00098 43.5l1 10h54v-123v0zM550.995 292.001l0.000976562 131.998c0 52.667 -3 97.5 -9 134.5s-15.333 65.833 -28 86.5c-12 20.667 -28.833 36.167 -50.5 46.5s-48.167 15.5 -79.5 15.5
c-34.667 0 -65.834 -7.66699 -93.501 -23s-51.5 -38.666 -71.5 -69.999c-19.333 -30.667 -34 -67.167 -44 -109.5s-15 -90.5 -15 -144.5c0 -52.667 5 -100.167 15 -142.5s24.667 -79.166 44 -110.499c20 -31.333 43.5 -54.833 70.5 -70.5s57.167 -23.5 90.5 -23.5
c30 0 56 5.5 78 16.5s39.333 27.5 52 49.5c13.333 22 23.5 50.667 30.5 86s10.5 77.333 10.5 126v1z" />
    <glyph glyph-name="oe" unicode="&#x153;" horiz-adv-x="908" 
d="M856 22c-32.667 -11.333 -62.8262 -19.834 -90.4932 -25.501s-52.834 -8.5 -75.501 -8.5s-43.334 1.83301 -62.001 5.5s-35.667 8.5 -51 14.5c-15.333 7.33301 -31.333 17.833 -48 31.5s-34 30.167 -52 49.5c-26.667 -34 -55.5 -59.333 -86.5 -76s-64.167 -25 -99.5 -25
c-36 0 -68.5 6.16699 -97.5 18.5s-55.167 31.166 -78.5 56.499c-22.667 25.333 -39.5 54.833 -50.5 88.5s-16.5 70.834 -16.5 111.501c0 42.667 5.5 80.834 16.5 114.501s27.833 62.834 50.5 87.501c23.333 25.333 50 44.166 80 56.499s64 18.5 102 18.5
c39.333 0 73.666 -8.16699 102.999 -24.5s53.666 -40.833 72.999 -73.5c25.333 32.667 53.5 57.167 84.5 73.5s65.167 24.5 102.5 24.5c31.333 0 59.166 -5.33301 83.499 -16s44.833 -26.667 61.5 -48c17.333 -21.333 30.166 -47.333 38.499 -78s12.5 -65.667 12.5 -105v-8
h-323c0 -83.333 14.333 -145.833 43 -187.5s71.334 -62.5 128.001 -62.5c29.333 0 56.666 2.83301 81.999 8.5s48.666 14.5 69.999 26.5v-48v0zM151.008 262.999c0 -35.333 3.66699 -67.833 11 -97.5s18.333 -56.167 33 -79.5s31 -40.833 49 -52.5s38 -17.5 60 -17.5
c41.333 0 72.5 21.333 93.5 64s31.5 106.667 31.5 192c0 79.333 -10.333 138.833 -31 178.5s-51.667 59.5 -93 59.5c-22.667 0 -43 -6 -61 -18s-34.333 -29.667 -49 -53s-25.667 -49.833 -33 -79.5s-11 -62.167 -11 -97.5v1zM533.008 315.999l220.001 -0.00195312v21
c0 28.667 -2 53.834 -6 75.501s-10.333 39.834 -19 54.501s-19.334 25.667 -32.001 33s-27.667 11 -45 11c-18 0 -34.167 -4.5 -48.5 -13.5s-26.833 -22.167 -37.5 -39.5c-10.667 -18 -18.667 -38.833 -24 -62.5s-8 -50.5 -8 -80.5v1z" />
    <glyph glyph-name="Racute" unicode="&#x154;" 
 />
    <glyph glyph-name="racute" unicode="&#x155;" 
 />
    <glyph glyph-name="Rcaron" unicode="&#x158;" 
 />
    <glyph glyph-name="rcaron" unicode="&#x159;" 
 />
    <glyph glyph-name="Sacute" unicode="&#x15a;" 
 />
    <glyph glyph-name="sacute" unicode="&#x15b;" 
 />
    <glyph glyph-name="Scedilla" unicode="&#x15e;" 
 />
    <glyph glyph-name="scedilla" unicode="&#x15f;" 
 />
    <glyph glyph-name="Scaron" unicode="&#x160;" 
 />
    <glyph glyph-name="scaron" unicode="&#x161;" 
 />
    <glyph glyph-name="Tcedilla" unicode="&#x162;" 
 />
    <glyph glyph-name="tcedilla" unicode="&#x163;" 
 />
    <glyph glyph-name="Tcaron" unicode="&#x164;" 
 />
    <glyph glyph-name="tcaron" unicode="&#x165;" 
 />
    <glyph glyph-name="Uring" unicode="&#x16e;" 
 />
    <glyph glyph-name="uring" unicode="&#x16f;" 
 />
    <glyph glyph-name="udblacute" unicode="&#x170;" 
 />
    <glyph glyph-name="Udblacute" unicode="&#x171;" 
 />
    <glyph glyph-name="Ydieresis" unicode="&#x178;" horiz-adv-x="677" 
d="M283 320l-165.001 273.001l-41 64.5l-17 25.5c-2 2 -7.16699 3.5 -15.5 4.5s-20.166 1.83301 -35.499 2.5l-9 2v30h280v-30h-10c-22.667 -0.666992 -40 -2.33398 -52 -5.00098s-18 -6.66699 -18 -12v-0.5v-1.5c0 -5.33301 3.33301 -14.666 10 -27.999s16.667 -31 30 -53
l135 -227l141 227c14 22 24.5 40 31.5 54s10.5 23.667 10.5 29s-5.66699 9.33301 -17 12s-28.333 4 -51 4l-9 1v30h196v-30l-9 -1c-16 -1.33301 -28.5 -2.83301 -37.5 -4.5s-14.833 -3.5 -17.5 -5.5c-2.66699 -2.66699 -8.83398 -11.334 -18.501 -26.001l-40.5 -63
l-169 -272v-194c0 -22.667 1 -40.667 3 -54s4.66699 -22 8 -26s10.833 -7.5 22.5 -10.5s27.5 -5.16699 47.5 -6.5l10 1v-30h-284v30h9c20.667 0.666992 36.834 2.5 48.501 5.5s19.167 6.5 22.5 10.5s6 12.667 8 26s3 31 3 53v195v0zM215.999 783.001v84h84v-84h-84v0z
M408.999 783.001v84h84v-84h-84v0z" />
    <glyph glyph-name="Zacute" unicode="&#x179;" 
 />
    <glyph glyph-name="zacute" unicode="&#x17a;" 
 />
    <glyph glyph-name="Zdot" unicode="&#x17b;" 
 />
    <glyph glyph-name="zdot" unicode="&#x17c;" 
 />
    <glyph glyph-name="Zcaron" unicode="&#x17d;" 
 />
    <glyph glyph-name="zcaron" unicode="&#x17e;" 
 />
    <glyph glyph-name="florin" unicode="&#x192;" horiz-adv-x="608" 
d="M114 -144l100.003 504.998h-89v30h97l11 59c19.333 94 50.666 164.667 93.999 212s99.333 71 168 71c7.33301 0 14.666 -0.166992 21.999 -0.5s14.666 -1.16602 21.999 -2.49902l11.5 -2c3.66699 -0.666992 7.5 -1.66699 11.5 -3c4 -0.666992 7.83301 -1.5 11.5 -2.5
s7.5 -2.16699 11.5 -3.5v-123h-47l-1 9c-0.666992 6 -1 12.167 -1 18.5v19.5c0 10 -1.5 18.833 -4.5 26.5s-7.16699 13.834 -12.5 18.501c-6 5.33301 -13.333 9.33301 -22 12s-18.667 4 -30 4c-16.667 0 -31.5 -3.66699 -44.5 -11s-23.5 -18.333 -31.5 -33
s-16.333 -37.167 -25 -67.5s-17.667 -68.833 -27 -115.5l-17 -86h110v-30h-117l-101 -505h-100v0z" />
    <glyph glyph-name="hungarumlaut" unicode="&#x2ba;" 
 />
    <glyph glyph-name="tilde" unicode="&#x2c6;" horiz-adv-x="602" 
d="M138 626l109 144h108l108 -144h-42l-120 96l-121 -96h-42v0z" />
    <glyph glyph-name="caron" unicode="&#x2c7;" horiz-adv-x="602" 
d="M463 770l-108 -144h-108l-109 144h42l121 -96l120 96h42v0z" />
    <glyph glyph-name="macron" unicode="&#x2c9;" 
 />
    <glyph glyph-name="breve" unicode="&#x2d8;" 
 />
    <glyph glyph-name="dotaccent" unicode="&#x2d9;" 
 />
    <glyph glyph-name="ring" unicode="&#x2da;" horiz-adv-x="602" 
d="M300 626c-10.667 -0.666992 -20.667 1 -30 5s-17.666 9.66699 -24.999 17s-13 15.666 -17 24.999s-6 19.333 -6 30c0 11.333 2 21.5 6 30.5s9.66699 17.5 17 25.5c7.33301 7.33301 15.666 13 24.999 17s19.333 6 30 6c11.333 0 21.666 -2 30.999 -6
s17.666 -9.66699 24.999 -17c7.33301 -8 13 -16.5 17 -25.5s6 -19.167 6 -30.5c0 -10.667 -2 -20.667 -6 -30s-9.66699 -17.666 -17 -24.999s-15.666 -13 -24.999 -17s-19.666 -6 -30.999 -6v1zM300 656c7.33301 -0.666992 13.666 0.167969 18.999 2.50098
s10.333 5.83301 15 10.5c5.33301 4.66699 9.16602 9.83398 11.499 15.501s3.5 11.834 3.5 18.501c0 7.33301 -1.16699 13.833 -3.5 19.5s-6.16602 10.834 -11.499 15.501c-4.66699 4.66699 -9.66699 8 -15 10s-11.666 3 -18.999 3c-6.66699 0 -12.667 -1 -18 -3
s-10.666 -5.66699 -15.999 -11c-4.66699 -4.66699 -8.16699 -9.83398 -10.5 -15.501s-3.5 -11.834 -3.5 -18.501s1.16699 -12.834 3.5 -18.501s5.83301 -10.834 10.5 -15.501c5.33301 -4.66699 10.666 -8.16699 15.999 -10.5s11.333 -3.5 18 -3.5v1z" />
    <glyph glyph-name="ogonek" unicode="&#x2db;" 
 />
    <glyph glyph-name="circumflex" unicode="&#x2dc;" horiz-adv-x="602" 
d="M139 626c6 37.333 18.335 65.666 37.002 84.999s43.334 29 74.001 29c8.66699 0 17.667 -1.66699 27 -5s19.333 -8 30 -14l17 -10c8.66699 -6 17.167 -10.333 25.5 -13s16.833 -4 25.5 -4c16 0 28.833 3.83301 38.5 11.5s16.167 18.834 19.5 33.501l30 1
c-6.66699 -38.667 -19.334 -67.5 -38.001 -86.5s-43.334 -28.5 -74.001 -28.5c-8.66699 0 -17.667 1.5 -27 4.5s-19 7.83301 -29 14.5l-17 11c-8.66699 4.66699 -17.5 8.5 -26.5 11.5s-17.5 4.5 -25.5 4.5c-14.667 0 -26.834 -3.83301 -36.501 -11.5
s-16.5 -19.167 -20.5 -34.5l-30 1v0z" />
    <glyph glyph-name="Gamma" unicode="&#x393;" 
 />
    <glyph glyph-name="Theta" unicode="&#x398;" 
 />
    <glyph glyph-name="summation" unicode="&#x3a3;" 
 />
    <glyph glyph-name="Phi" unicode="&#x3a6;" 
 />
    <glyph glyph-name="Omega" unicode="&#x3a9;" 
 />
    <glyph glyph-name="alpha" unicode="&#x3b1;" 
 />
    <glyph glyph-name="delta" unicode="&#x3b4;" 
 />
    <glyph glyph-name="epsilon" unicode="&#x3b5;" 
 />
    <glyph glyph-name="pi" unicode="&#x3c0;" 
 />
    <glyph glyph-name="sigma" unicode="&#x3c3;" 
 />
    <glyph glyph-name="tau" unicode="&#x3c4;" 
 />
    <glyph glyph-name="phi" unicode="&#x3c6;" 
 />
    <glyph glyph-name="endash" unicode="&#x2013;" 
d="M48 265v60h404v-60h-404v0z" />
    <glyph glyph-name="emdash" unicode="&#x2014;" horiz-adv-x="1000" 
d="M54 265v48h891v-48h-891v0z" />
    <glyph glyph-name="underscoredbl" unicode="&#x2017;" 
 />
    <glyph glyph-name="quoteleft" unicode="&#x2018;" horiz-adv-x="265" 
d="M144 614l48 0.00195312v-120h-120v104c0 20 0.5 37.167 1.5 51.5s2.5 25.5 4.5 33.5c2.66699 7.33301 6.5 15.166 11.5 23.499s11.833 16.833 20.5 25.5c11.333 11.333 23.833 20.166 37.5 26.499s28.5 9.83301 44.5 10.5v-29c-16 -2 -28 -11 -36 -27s-12 -39 -12 -69
v-30v0z" />
    <glyph glyph-name="quoteright" unicode="&#x2019;" horiz-adv-x="265" 
d="M120 650l-48 -0.00195312v120h120v-104c0 -21.333 -0.5 -39.166 -1.5 -53.499s-2.5 -25.166 -4.5 -32.499c-2.66699 -8 -6.66699 -16.167 -12 -24.5s-12 -16.833 -20 -25.5c-11.333 -11.333 -23.833 -20 -37.5 -26s-28.5 -9.66699 -44.5 -11v30c16 0.666992 28 9 36 25
s12 39.333 12 70v32v0z" />
    <glyph glyph-name="quotesinglbase" unicode="&#x201a;" horiz-adv-x="265" 
d="M120 0h-48v120h120v-105c0 -20 -0.5 -37.167 -1.5 -51.5s-2.5 -25.166 -4.5 -32.499c-2.66699 -8 -6.66699 -16 -12 -24s-12 -16.333 -20 -25c-11.333 -11.333 -23.833 -20.333 -37.5 -27s-28.5 -10.334 -44.5 -11.001v30c16 1.33301 28 10 36 26s12 39 12 69v31v0z" />
    <glyph glyph-name="quotedblleft" unicode="&#x201c;" horiz-adv-x="458" 
d="M144 614l48 0.00195312v-120h-120v104c0 20 0.5 37.167 1.5 51.5s2.5 25.5 4.5 33.5c2.66699 7.33301 6.5 15.166 11.5 23.499s11.833 16.833 20.5 25.5c11.333 11.333 23.833 20.166 37.5 26.499s28.5 9.83301 44.5 10.5v-29c-16 -2 -28 -11 -36 -27s-12 -39 -12 -69
v-30v0zM337 614.002l48 0.00195312v-120h-120v104c0 20.667 0.5 38 1.5 52s2.5 25 4.5 33c2.66699 7.33301 6.5 15.166 11.5 23.499s11.833 16.833 20.5 25.5c11.333 11.333 23.833 20.166 37.5 26.499s28.5 9.83301 44.5 10.5v-29c-16 -2 -28 -11 -36 -27s-12 -39 -12 -69
v-30v0z" />
    <glyph glyph-name="quotedblright" unicode="&#x201d;" horiz-adv-x="458" 
d="M120 650l-48 -0.00195312v120h120v-104c0 -21.333 -0.5 -39.166 -1.5 -53.499s-2.5 -25.166 -4.5 -32.499c-2.66699 -8 -6.66699 -16.167 -12 -24.5s-12 -16.833 -20 -25.5c-11.333 -11.333 -23.833 -20 -37.5 -26s-28.5 -9.66699 -44.5 -11v30c16 0.666992 28 9 36 25
s12 39.333 12 70v32v0zM312 649.998l-47 -0.00195312v120h120v-104c0 -21.333 -0.5 -39.166 -1.5 -53.499s-2.83301 -25.166 -5.5 -32.499c-2 -8 -5.66699 -16.167 -11 -24.5s-12.333 -16.833 -21 -25.5c-11.333 -11.333 -23.833 -20 -37.5 -26s-28.167 -9.66699 -43.5 -11
v30c15.333 0.666992 27 9 35 25s12 39.333 12 70v32v0z" />
    <glyph glyph-name="quotedblbase" unicode="&#x201e;" horiz-adv-x="458" 
d="M120 0h-48v120h120v-105c0 -20 -0.5 -37.167 -1.5 -51.5s-2.5 -25.166 -4.5 -32.499c-2.66699 -8 -6.66699 -16 -12 -24s-12 -16.333 -20 -25c-11.333 -11.333 -23.833 -20.333 -37.5 -27s-28.5 -10.334 -44.5 -11.001v30c16 1.33301 28 10 36 26s12 39 12 69v31v0z
M312 0h-47v120h120v-105c0 -20 -0.5 -37.167 -1.5 -51.5s-2.83301 -25.166 -5.5 -32.499c-2 -8 -5.66699 -16 -11 -24s-12.333 -16.333 -21 -25c-11.333 -11.333 -23.833 -20.333 -37.5 -27s-28.167 -10.334 -43.5 -11.001v30c15.333 1.33301 27 10 35 26s12 39 12 69v31v0z
" />
    <glyph glyph-name="dagger" unicode="&#x2020;" horiz-adv-x="608" 
d="M255 -144l24 562l-186 -21v72l186 -21l-24 274h97l-24 -274l187 21v-72l-187 21l24 -562h-97v0z" />
    <glyph glyph-name="daggerdbl" unicode="&#x2021;" horiz-adv-x="608" 
d="M255 -144l24 273l-186 -21v72l186 -21v259l-186 -21v72l186 -21l-24 274h97l-24 -274l187 21v-72l-187 21v-259l187 21v-72l-187 21l24 -273h-97v0z" />
    <glyph glyph-name="bullet" unicode="&#x2022;" horiz-adv-x="608" 
d="M304 213c-10 -0.666992 -19.3311 0.833008 -27.998 4.5s-16.667 8.83398 -24 15.501c-6.66699 7.33301 -11.834 15.166 -15.501 23.499s-5.5 17.833 -5.5 28.5c0 9.33301 2 18.333 6 27s9.33301 16.667 16 24c7.33301 7.33301 15.166 12.666 23.499 15.999s17.5 5 27.5 5
s19.333 -1.66699 28 -5s16.334 -8.66602 23.001 -15.999c7.33301 -7.33301 12.666 -15.333 15.999 -24s5 -17.667 5 -27c0 -10.667 -1.66699 -20.167 -5 -28.5s-8.66602 -16.166 -15.999 -23.499c-6.66699 -6.66699 -14.334 -11.834 -23.001 -15.501s-18 -5.5 -28 -5.5v1z
" />
    <glyph glyph-name="ellipsis" unicode="&#x2026;" horiz-adv-x="1000" 
d="M118 0v96h96v-96h-96v0zM451 0v96h97v-96h-97v0zM784 0v96h96v-96h-96v0z" />
    <glyph glyph-name="perthousand" unicode="&#x2030;" horiz-adv-x="1023" 
d="M16 -18l581 758h61l-581 -758h-61v0zM510 0c-22.667 0 -43.167 4 -61.5 12s-34.833 20.333 -49.5 37c-14 17.333 -24.667 36.666 -32 57.999s-11 45.333 -11 72s3.66699 50.834 11 72.501s18 40.834 32 57.501c14.667 17.333 31.167 30.166 49.5 38.499
s38.833 12.5 61.5 12.5s43.167 -4.16699 61.5 -12.5s34.833 -21.166 49.5 -38.499c14.667 -16.667 25.5 -35.834 32.5 -57.501s10.5 -45.834 10.5 -72.501s-3.5 -50.667 -10.5 -72s-17.833 -40.666 -32.5 -57.999c-14.667 -16.667 -31.167 -29 -49.5 -37
s-38.833 -12 -61.5 -12v0zM510 29c14 -0.666992 26.167 2.16699 36.5 8.5s18.833 15.833 25.5 28.5s11.667 28.5 15 47.5s5 41.167 5 66.5s-1.66699 47.166 -5 65.499s-8.33301 33.833 -15 46.5c-6.66699 13.333 -15.167 23 -25.5 29s-22.5 9 -36.5 9
c-13.333 0 -25 -3 -35 -9s-18.667 -15.667 -26 -29c-6.66699 -12.667 -11.667 -28.167 -15 -46.5s-5 -40.166 -5 -65.499s1.66699 -47.5 5 -66.5s8.33301 -34.833 15 -47.5c7.33301 -12.667 16 -22.167 26 -28.5s21.667 -9.5 35 -9.5v1zM860 0.000976562
c-22.667 0 -43.167 4 -61.5 12s-34.833 20.333 -49.5 37c-14.667 17.333 -25.5 36.666 -32.5 57.999s-10.5 45.333 -10.5 72s3.5 50.834 10.5 72.501s17.833 40.834 32.5 57.501c14.667 17.333 31.167 30.166 49.5 38.499s38.833 12.5 61.5 12.5s43.167 -4.16699 61.5 -12.5
s34.5 -21.166 48.5 -38.499c14.667 -16.667 25.5 -35.834 32.5 -57.501s10.5 -45.834 10.5 -72.501s-3.5 -50.667 -10.5 -72s-17.833 -40.666 -32.5 -57.999c-14 -16.667 -30.167 -29 -48.5 -37s-38.833 -12 -61.5 -12v0zM860 29.001
c13.333 -0.666992 25.166 2.16699 35.499 8.5s18.833 15.833 25.5 28.5s11.667 28.5 15 47.5s5 41.167 5 66.5s-1.66699 47.166 -5 65.499s-8.33301 33.833 -15 46.5c-6.66699 13.333 -15.167 23 -25.5 29s-22.166 9 -35.499 9s-25.166 -3 -35.499 -9
s-18.833 -15.667 -25.5 -29c-6.66699 -12.667 -11.834 -28.167 -15.501 -46.5s-5.5 -40.166 -5.5 -65.499s1.83301 -47.5 5.5 -66.5s8.83398 -34.833 15.501 -47.5s15.167 -22.167 25.5 -28.5s22.166 -9.5 35.499 -9.5v1zM164 361.002
c-22.667 -0.666992 -43.167 3.16699 -61.5 11.5s-34.833 20.833 -49.5 37.5c-14 17.333 -24.667 36.666 -32 57.999s-11 45.333 -11 72c0 27.333 3.66699 51.833 11 73.5s18 40.834 32 57.501c14.667 16.667 31.167 29.167 49.5 37.5s38.833 12.5 61.5 12.5
s43.167 -4.16699 61.5 -12.5s34.5 -20.833 48.5 -37.5c14.667 -16.667 25.5 -35.834 32.5 -57.501s10.5 -46.167 10.5 -73.5c0 -26.667 -3.5 -50.667 -10.5 -72s-17.5 -40.666 -31.5 -57.999c-14.667 -16.667 -31.167 -29.167 -49.5 -37.5s-38.833 -12.5 -61.5 -12.5v1z
M164 391.003c13.333 -0.666992 25.166 2.16699 35.499 8.5s18.833 15.833 25.5 28.5s11.667 28.5 15 47.5s5 40.833 5 65.5c0 25.333 -1.66699 47.333 -5 66s-8.33301 34.334 -15 47.001s-15.167 22 -25.5 28s-22.166 9 -35.499 9s-25 -3 -35 -9s-18.667 -15.333 -26 -28
c-6.66699 -12.667 -11.667 -28.334 -15 -47.001s-5 -40.667 -5 -66c0 -24.667 1.66699 -46.5 5 -65.5s8.33301 -34.833 15 -47.5c7.33301 -12.667 16 -22.167 26 -28.5s21.667 -9.5 35 -9.5v1z" />
    <glyph glyph-name="guilsinglleft" unicode="&#x2039;" horiz-adv-x="339" 
d="M279 457l-134 -192l134 -192l-25 -19l-206 211l206 211l25 -19v0z" />
    <glyph glyph-name="guilsinglright" unicode="&#x203a;" horiz-adv-x="339" 
d="M60 72l133 193l-133 191l24 20l207 -211l-207 -211l-24 18v0z" />
    <glyph glyph-name="exclamdbl" unicode="&#x203c;" 
 />
    <glyph glyph-name="nsuperior" unicode="&#x207f;" 
 />
    <glyph glyph-name="franc" unicode="&#x20a3;" 
 />
    <glyph glyph-name="peseta" unicode="&#x20a7;" 
 />
    <glyph glyph-name="trademark" unicode="&#x2122;" horiz-adv-x="903" 
d="M147 692h-90v-66h-42v96h337v-96h-42v66h-91v-307h67v-30h-205v30h66v307v0zM595 385l-98 263v-293h-115v30h66v307h-66v30h174l81 -216l74 216h159v-30h-66v-307h66v-30h-144v313l-100 -283h-31v0z" />
    <glyph glyph-name="arrowleft" unicode="&#x2190;" 
 />
    <glyph glyph-name="arrowup" unicode="&#x2191;" 
 />
    <glyph glyph-name="arrowright" unicode="&#x2192;" 
 />
    <glyph glyph-name="arrowdown" unicode="&#x2193;" 
 />
    <glyph glyph-name="arrowboth" unicode="&#x2194;" 
 />
    <glyph glyph-name="arrowupdn" unicode="&#x2195;" 
 />
    <glyph glyph-name="arrowupdnbase" unicode="&#x21a8;" 
 />
    <glyph glyph-name="partialdiff" unicode="&#x2202;" 
 />
    <glyph glyph-name="Delta" unicode="&#x2206;" 
 />
    <glyph glyph-name="product" unicode="&#x220f;" 
 />
    <glyph glyph-name="minus" unicode="&#x2212;" 
 />
    <glyph glyph-name="fraction" unicode="&#x2215;" 
 />
    <glyph glyph-name="periodcentered" unicode="&#x2219;" 
 />
    <glyph glyph-name="radical" unicode="&#x221a;" 
 />
    <glyph glyph-name="infinity" unicode="&#x221e;" 
 />
    <glyph glyph-name="orthogonal" unicode="&#x221f;" 
 />
    <glyph glyph-name="intersection" unicode="&#x2229;" 
 />
    <glyph glyph-name="integral" unicode="&#x222b;" 
 />
    <glyph glyph-name="approxequal" unicode="&#x2248;" 
 />
    <glyph glyph-name="notequal" unicode="&#x2260;" 
 />
    <glyph glyph-name="equivalence" unicode="&#x2261;" 
 />
    <glyph glyph-name="lessequal" unicode="&#x2264;" 
 />
    <glyph glyph-name="greaterequal" unicode="&#x2265;" 
 />
    <glyph glyph-name="house" unicode="&#x2302;" 
 />
    <glyph glyph-name="revlogicalnot" unicode="&#x2310;" 
 />
    <glyph glyph-name="integraltp" unicode="&#x2320;" 
 />
    <glyph glyph-name="integralbt" unicode="&#x2321;" 
 />
    <glyph glyph-name="2500" unicode="&#x2500;" 
 />
    <glyph glyph-name="2502" unicode="&#x2502;" 
 />
    <glyph glyph-name="250c" unicode="&#x250c;" 
 />
    <glyph glyph-name="2510" unicode="&#x2510;" 
 />
    <glyph glyph-name="2514" unicode="&#x2514;" 
 />
    <glyph glyph-name="2518" unicode="&#x2518;" 
 />
    <glyph glyph-name="251c" unicode="&#x251c;" 
 />
    <glyph glyph-name="2524" unicode="&#x2524;" 
 />
    <glyph glyph-name="252c" unicode="&#x252c;" 
 />
    <glyph glyph-name="2534" unicode="&#x2534;" 
 />
    <glyph glyph-name="253c" unicode="&#x253c;" 
 />
    <glyph glyph-name="2550" unicode="&#x2550;" 
 />
    <glyph glyph-name="2551" unicode="&#x2551;" 
 />
    <glyph glyph-name="2552" unicode="&#x2552;" 
 />
    <glyph glyph-name="2553" unicode="&#x2553;" 
 />
    <glyph glyph-name="2554" unicode="&#x2554;" 
 />
    <glyph glyph-name="2555" unicode="&#x2555;" 
 />
    <glyph glyph-name="2556" unicode="&#x2556;" 
 />
    <glyph glyph-name="2557" unicode="&#x2557;" 
 />
    <glyph glyph-name="2558" unicode="&#x2558;" 
 />
    <glyph glyph-name="2559" unicode="&#x2559;" 
 />
    <glyph glyph-name="255a" unicode="&#x255a;" 
 />
    <glyph glyph-name="255b" unicode="&#x255b;" 
 />
    <glyph glyph-name="255c" unicode="&#x255c;" 
 />
    <glyph glyph-name="255d" unicode="&#x255d;" 
 />
    <glyph glyph-name="255e" unicode="&#x255e;" 
 />
    <glyph glyph-name="255f" unicode="&#x255f;" 
 />
    <glyph glyph-name="2560" unicode="&#x2560;" 
 />
    <glyph glyph-name="2561" unicode="&#x2561;" 
 />
    <glyph glyph-name="2562" unicode="&#x2562;" 
 />
    <glyph glyph-name="2563" unicode="&#x2563;" 
 />
    <glyph glyph-name="2564" unicode="&#x2564;" 
 />
    <glyph glyph-name="2565" unicode="&#x2565;" 
 />
    <glyph glyph-name="2566" unicode="&#x2566;" 
 />
    <glyph glyph-name="2567" unicode="&#x2567;" 
 />
    <glyph glyph-name="2568" unicode="&#x2568;" 
 />
    <glyph glyph-name="2569" unicode="&#x2569;" 
 />
    <glyph glyph-name="256a" unicode="&#x256a;" 
 />
    <glyph glyph-name="256b" unicode="&#x256b;" 
 />
    <glyph glyph-name="256c" unicode="&#x256c;" 
 />
    <glyph glyph-name="upblock" unicode="&#x2580;" 
 />
    <glyph glyph-name="dnblock" unicode="&#x2584;" 
 />
    <glyph glyph-name="block" unicode="&#x2588;" 
 />
    <glyph glyph-name="lfblock" unicode="&#x258c;" 
 />
    <glyph glyph-name="rtblock" unicode="&#x2590;" 
 />
    <glyph glyph-name="ltshade" unicode="&#x2591;" 
 />
    <glyph glyph-name="shade" unicode="&#x2592;" 
 />
    <glyph glyph-name="dkshade" unicode="&#x2593;" 
 />
    <glyph glyph-name="filledbox" unicode="&#x25a0;" 
 />
    <glyph glyph-name="filledrect" unicode="&#x25ac;" 
 />
    <glyph glyph-name="triagup" unicode="&#x25b2;" 
 />
    <glyph glyph-name="triagrt" unicode="&#x25ba;" 
 />
    <glyph glyph-name="triagdn" unicode="&#x25bc;" 
 />
    <glyph glyph-name="triaglf" unicode="&#x25c4;" 
 />
    <glyph glyph-name="lozenge" unicode="&#x25ca;" horiz-adv-x="608" 
d="M258 45v90h91v-90h-91v0zM39 262v54h530v-54h-530v0zM258 442v91h91v-91h-91v0z" />
    <glyph glyph-name="circle" unicode="&#x25cb;" 
 />
    <glyph glyph-name="invbullet" unicode="&#x25d8;" 
 />
    <glyph glyph-name="invcircle" unicode="&#x25d9;" 
 />
    <glyph glyph-name="smileface" unicode="&#x263a;" 
 />
    <glyph glyph-name="invsmileface" unicode="&#x263b;" 
 />
    <glyph glyph-name="sun" unicode="&#x263c;" 
 />
    <glyph glyph-name="female" unicode="&#x2640;" 
 />
    <glyph glyph-name="male" unicode="&#x2642;" 
 />
    <glyph glyph-name="spade" unicode="&#x2660;" 
 />
    <glyph glyph-name="club" unicode="&#x2663;" 
 />
    <glyph glyph-name="heart" unicode="&#x2665;" 
 />
    <glyph glyph-name="diamond" unicode="&#x2666;" 
 />
    <glyph glyph-name="musicalnote" unicode="&#x266a;" 
 />
    <glyph glyph-name="musicalnotedbl" unicode="&#x266b;" 
 />
    <glyph glyph-name="apple" unicode="&#xf000;" 
 />
    <glyph glyph-name="fi" unicode="&#xf001;" 
 />
    <glyph glyph-name="fl" unicode="&#xf002;" 
 />
    <glyph glyph-name="glyph1" horiz-adv-x="0" 
 />
    <glyph glyph-name="glyph2" horiz-adv-x="304" 
 />
    <glyph glyph-name="degree" horiz-adv-x="259" 
d="M129 572c-11.333 -0.666992 -22 1 -32 5s-19 10 -27 18c-8.66699 8.66699 -15 18 -19 28s-6 20.667 -6 32c0 12 2 23 6 33s10.333 19 19 27c8 8 17 14 27 18s20.667 6 32 6c12 0 23 -2 33 -6s19 -10 27 -18s14 -17 18 -27s6 -21 6 -33c0 -11.333 -2 -22 -6 -32
s-10 -19.333 -18 -28c-8 -8 -17 -14 -27 -18s-21 -6 -33 -6v1zM129 602c7.33301 -0.666992 14.166 0.333008 20.499 3s12.166 6.66699 17.499 12s9.33301 11.333 12 18s4 13.334 4 20.001c0 7.33301 -1.33301 14.166 -4 20.499s-6.66699 12.166 -12 17.499
s-11.166 9.33301 -17.499 12s-13.166 4 -20.499 4c-6.66699 0 -13.334 -1.33301 -20.001 -4s-12.667 -6.66699 -18 -12c-4.66699 -5.33301 -8.5 -11.166 -11.5 -17.499s-4.5 -13.166 -4.5 -20.499c0 -6.66699 1.5 -13.334 4.5 -20.001s6.83301 -12.667 11.5 -18
c5.33301 -5.33301 11.333 -9.33301 18 -12s13.334 -4 20.001 -4v1z" />
    <glyph glyph-name="bullet" horiz-adv-x="608" 
d="M304 213c-10 -0.666992 -19.3311 0.833008 -27.998 4.5s-16.667 8.83398 -24 15.501c-6.66699 7.33301 -11.834 15.166 -15.501 23.499s-5.5 17.833 -5.5 28.5c0 9.33301 2 18.333 6 27s9.33301 16.667 16 24c7.33301 7.33301 15.166 12.666 23.499 15.999s17.5 5 27.5 5
s19.333 -1.66699 28 -5s16.334 -8.66602 23.001 -15.999c7.33301 -7.33301 12.666 -15.333 15.999 -24s5 -17.667 5 -27c0 -10.667 -1.66699 -20.167 -5 -28.5s-8.66602 -16.166 -15.999 -23.499c-6.66699 -6.66699 -14.334 -11.834 -23.001 -15.501s-18 -5.5 -28 -5.5v1z
" />
    <glyph glyph-name="endash" 
 />
  </font>
</defs>
</svg>
